<?xml version="1.0" encoding="UTF-8"?>
<svg width="180px" height="380px" viewBox="0 0 180 380" version="1.1" xmlns="http://www.w3.org/2000/svg" xmlns:xlink="http://www.w3.org/1999/xlink">
    <!-- Generator: Sketch 61.2 (89653) - https://sketch.com -->
    <title>CVGenie</title>
    <desc>Created with Sketch.</desc>
    <g id="CVGenie" stroke="none" stroke-width="1" fill="none" fill-rule="evenodd">
        <g id="bg">
            <rect id="Background" stroke="#DCDCDC" fill="#DCDCDC" fill-rule="nonzero" x="0" y="0" width="180" height="380" rx="2"></rect>
            <g id="branding" transform="translate(35.000000, 5.000000)">
                <g id="Branding" transform="translate(0.000000, 357.000000)">
                    <path d="M58.881,9.948 C59.151,9.948 59.4045,9.8925 59.6415,9.7815 C59.8785,9.6705 60.081,9.513 60.249,9.309 L60.249,9.309 L60.249,9.705 C60.249,9.741 60.261,9.771 60.285,9.795 C60.309,9.819 60.339,9.831 60.375,9.831 L60.375,9.831 L60.789,9.831 C60.825,9.831 60.855,9.819 60.879,9.795 C60.903,9.771 60.915,9.741 60.915,9.705 L60.915,9.705 L60.915,3.126 C60.915,3.09 60.903,3.06 60.879,3.036 C60.855,3.012 60.825,3 60.789,3 L60.789,3 L60.339,3 C60.303,3 60.273,3.012 60.249,3.036 C60.225,3.06 60.213,3.09 60.213,3.126 L60.213,3.126 L60.213,5.133 C60.039,4.971 59.8365,4.845 59.6055,4.755 C59.3745,4.665 59.136,4.62 58.89,4.62 C58.548,4.62 58.2315,4.704 57.9405,4.872 C57.6495,5.04 57.42,5.268 57.252,5.556 C57.084,5.844 57,6.159 57,6.501 L57,6.501 L57,8.067 C57,8.409 57.084,8.724 57.252,9.012 C57.42,9.3 57.648,9.528 57.936,9.696 C58.224,9.864 58.539,9.948 58.881,9.948 Z M58.953,9.282 C58.725,9.282 58.515,9.2265 58.323,9.1155 C58.131,9.0045 57.9795,8.853 57.8685,8.661 C57.7575,8.469 57.702,8.259 57.702,8.031 L57.702,8.031 L57.702,6.537 C57.702,6.309 57.7575,6.099 57.8685,5.907 C57.9795,5.715 58.131,5.5635 58.323,5.4525 C58.515,5.3415 58.725,5.286 58.953,5.286 C59.181,5.286 59.3925,5.3415 59.5875,5.4525 C59.7825,5.5635 59.9355,5.715 60.0465,5.907 C60.1575,6.099 60.213,6.309 60.213,6.537 L60.213,6.537 L60.213,8.031 C60.213,8.259 60.1575,8.469 60.0465,8.661 C59.9355,8.853 59.7825,9.0045 59.5875,9.1155 C59.3925,9.2265 59.181,9.282 58.953,9.282 Z M65.613,9.831 C65.649,9.831 65.679,9.819 65.703,9.795 C65.727,9.771 65.739,9.741 65.739,9.705 L65.739,9.705 L65.739,9.291 C65.739,9.255 65.727,9.225 65.703,9.201 C65.679,9.177 65.649,9.165 65.613,9.165 L65.613,9.165 L64.308,9.165 C64.08,9.165 63.87,9.1095 63.678,8.9985 C63.486,8.8875 63.3345,8.736 63.2235,8.544 C63.1125,8.352 63.057,8.142 63.057,7.914 L63.057,7.914 L63.057,7.518 L65.937,7.518 C66.027,7.518 66.1035,7.4865 66.1665,7.4235 C66.2295,7.3605 66.261,7.284 66.261,7.194 L66.261,7.194 L66.261,6.582 C66.261,6.228 66.174,5.8995 66,5.5965 C65.826,5.2935 65.589,5.055 65.289,4.881 C64.989,4.707 64.662,4.62 64.308,4.62 C63.954,4.62 63.627,4.707 63.327,4.881 C63.027,5.055 62.79,5.2935 62.616,5.5965 C62.442,5.8995 62.355,6.228 62.355,6.582 L62.355,6.582 L62.355,7.869 C62.355,8.223 62.442,8.5515 62.616,8.8545 C62.79,9.1575 63.027,9.396 63.327,9.57 C63.627,9.744 63.954,9.831 64.308,9.831 L64.308,9.831 L65.613,9.831 Z M65.559,6.87 L63.057,6.87 L63.057,6.537 C63.057,6.309 63.1125,6.099 63.2235,5.907 C63.3345,5.715 63.486,5.5635 63.678,5.4525 C63.87,5.3415 64.08,5.286 64.308,5.286 C64.536,5.286 64.746,5.3415 64.938,5.4525 C65.13,5.5635 65.2815,5.715 65.3925,5.907 C65.5035,6.099 65.559,6.309 65.559,6.537 L65.559,6.537 L65.559,6.87 Z M69.492,9.831 C69.528,9.831 69.558,9.819 69.582,9.795 C69.606,9.771 69.618,9.741 69.618,9.705 L69.618,9.705 L69.618,9.291 C69.618,9.255 69.606,9.225 69.582,9.201 C69.558,9.177 69.528,9.165 69.492,9.165 L69.492,9.165 L68.538,9.165 L68.538,3.324 C68.538,3.234 68.5065,3.1575 68.4435,3.0945 C68.3805,3.0315 68.304,3 68.214,3 L68.214,3 L66.999,3 C66.963,3 66.933,3.012 66.909,3.036 C66.885,3.06 66.873,3.09 66.873,3.126 L66.873,3.126 L66.873,3.54 C66.873,3.576 66.885,3.606 66.909,3.63 C66.933,3.654 66.963,3.666 66.999,3.666 L66.999,3.666 L67.836,3.666 L67.836,9.507 C67.836,9.597 67.8675,9.6735 67.9305,9.7365 C67.9935,9.7995 68.07,9.831 68.16,9.831 L68.16,9.831 L69.492,9.831 Z M73.731,9.831 C73.767,9.831 73.797,9.819 73.821,9.795 C73.845,9.771 73.857,9.741 73.857,9.705 L73.857,9.705 L73.857,9.291 C73.857,9.255 73.845,9.225 73.821,9.201 C73.797,9.177 73.767,9.165 73.731,9.165 L73.731,9.165 L72.426,9.165 C72.198,9.165 71.988,9.1095 71.796,8.9985 C71.604,8.8875 71.4525,8.736 71.3415,8.544 C71.2305,8.352 71.175,8.142 71.175,7.914 L71.175,7.914 L71.175,7.518 L74.055,7.518 C74.145,7.518 74.2215,7.4865 74.2845,7.4235 C74.3475,7.3605 74.379,7.284 74.379,7.194 L74.379,7.194 L74.379,6.582 C74.379,6.228 74.292,5.8995 74.118,5.5965 C73.944,5.2935 73.707,5.055 73.407,4.881 C73.107,4.707 72.78,4.62 72.426,4.62 C72.072,4.62 71.745,4.707 71.445,4.881 C71.145,5.055 70.908,5.2935 70.734,5.5965 C70.56,5.8995 70.473,6.228 70.473,6.582 L70.473,6.582 L70.473,7.869 C70.473,8.223 70.56,8.5515 70.734,8.8545 C70.908,9.1575 71.145,9.396 71.445,9.57 C71.745,9.744 72.072,9.831 72.426,9.831 L72.426,9.831 L73.731,9.831 Z M73.677,6.87 L71.175,6.87 L71.175,6.537 C71.175,6.309 71.2305,6.099 71.3415,5.907 C71.4525,5.715 71.604,5.5635 71.796,5.4525 C71.988,5.3415 72.198,5.286 72.426,5.286 C72.654,5.286 72.864,5.3415 73.056,5.4525 C73.248,5.5635 73.3995,5.715 73.5105,5.907 C73.6215,6.099 73.677,6.309 73.677,6.537 L73.677,6.537 L73.677,6.87 Z M75.765,9.831 C75.825,9.831 75.87,9.807 75.9,9.759 L75.9,9.759 L77.187,7.779 L78.474,9.759 C78.504,9.807 78.549,9.831 78.609,9.831 L78.609,9.831 L79.041,9.831 C79.089,9.831 79.128,9.816 79.158,9.786 C79.188,9.756 79.203,9.72 79.203,9.678 C79.203,9.648 79.194,9.615 79.176,9.579 L79.176,9.579 L77.592,7.149 L78.996,4.989 C79.014,4.953 79.023,4.92 79.023,4.89 C79.023,4.848 79.008,4.812 78.978,4.782 C78.948,4.752 78.909,4.737 78.861,4.737 L78.861,4.737 L78.429,4.737 C78.369,4.737 78.324,4.761 78.294,4.809 L78.294,4.809 L77.187,6.519 L76.08,4.809 C76.05,4.761 76.005,4.737 75.945,4.737 L75.945,4.737 L75.513,4.737 C75.465,4.737 75.426,4.752 75.396,4.782 C75.366,4.812 75.351,4.848 75.351,4.89 C75.351,4.92 75.36,4.953 75.378,4.989 L75.378,4.989 L76.782,7.149 L75.198,9.579 C75.18,9.615 75.171,9.648 75.171,9.678 C75.171,9.72 75.186,9.756 75.216,9.786 C75.246,9.816 75.285,9.831 75.333,9.831 L75.333,9.831 L75.765,9.831 Z M81.588,9.948 C81.93,9.948 82.2465,9.8715 82.5375,9.7185 C82.8285,9.5655 83.067,9.354 83.253,9.084 L83.253,9.084 L83.253,9.705 C83.253,9.741 83.265,9.771 83.289,9.795 C83.313,9.819 83.343,9.831 83.379,9.831 L83.379,9.831 L83.757,9.831 C83.793,9.831 83.823,9.819 83.847,9.795 C83.871,9.771 83.883,9.741 83.883,9.705 L83.883,9.705 L83.883,6.249 C83.883,5.925 83.8065,5.64 83.6535,5.394 C83.5005,5.148 83.283,4.9575 83.001,4.8225 C82.719,4.6875 82.398,4.62 82.038,4.62 C81.642,4.62 81.2925,4.7025 80.9895,4.8675 C80.6865,5.0325 80.448,5.259 80.274,5.547 C80.256,5.583 80.247,5.613 80.247,5.637 C80.247,5.691 80.274,5.742 80.328,5.79 L80.328,5.79 L80.571,5.952 C80.613,5.982 80.652,5.997 80.688,5.997 C80.76,5.997 80.82,5.958 80.868,5.88 C80.982,5.694 81.1365,5.5485 81.3315,5.4435 C81.5265,5.3385 81.756,5.286 82.02,5.286 C82.356,5.286 82.6365,5.3745 82.8615,5.5515 C83.0865,5.7285 83.199,5.961 83.199,6.249 L83.199,6.249 L83.199,6.321 C83.199,6.495 83.16,6.6285 83.082,6.7215 C83.004,6.8145 82.878,6.873 82.704,6.897 L82.704,6.897 L81.534,7.059 C81.054,7.125 80.6805,7.287 80.4135,7.545 C80.1465,7.803 80.013,8.13 80.013,8.526 C80.013,8.952 80.16,9.2955 80.454,9.5565 C80.748,9.8175 81.126,9.948 81.588,9.948 Z M81.66,9.318 C81.372,9.318 81.138,9.243 80.958,9.093 C80.778,8.943 80.688,8.745 80.688,8.499 C80.688,8.025 80.988,7.743 81.588,7.653 L81.588,7.653 L81.84,7.617 C82.62,7.509 83.082,7.446 83.226,7.428 L83.226,7.428 L83.226,7.797 C83.226,8.025 83.1585,8.2575 83.0235,8.4945 C82.8885,8.7315 82.701,8.928 82.461,9.084 C82.221,9.24 81.954,9.318 81.66,9.318 Z M85.989,9.822 C86.025,9.822 86.055,9.81 86.079,9.786 C86.103,9.762 86.115,9.732 86.115,9.696 L86.115,9.696 L86.115,6.753 C86.115,6.291 86.238,5.928 86.484,5.664 C86.73,5.4 87.054,5.268 87.456,5.268 C87.798,5.268 88.0695,5.3685 88.2705,5.5695 C88.4715,5.7705 88.572,6.063 88.572,6.447 L88.572,6.447 L88.572,9.696 C88.572,9.732 88.584,9.762 88.608,9.786 C88.632,9.81 88.662,9.822 88.698,9.822 L88.698,9.822 L89.148,9.822 C89.184,9.822 89.214,9.81 89.238,9.786 C89.262,9.762 89.274,9.732 89.274,9.696 L89.274,9.696 L89.274,6.312 C89.274,5.802 89.1165,5.391 88.8015,5.079 C88.4865,4.767 88.074,4.611 87.564,4.611 C87.252,4.611 86.9715,4.674 86.7225,4.8 C86.4735,4.926 86.271,5.112 86.115,5.358 L86.115,5.358 L86.115,4.863 C86.115,4.827 86.103,4.797 86.079,4.773 C86.055,4.749 86.025,4.737 85.989,4.737 L85.989,4.737 L85.539,4.737 C85.503,4.737 85.473,4.749 85.449,4.773 C85.425,4.797 85.413,4.827 85.413,4.863 L85.413,4.863 L85.413,9.696 C85.413,9.732 85.425,9.762 85.449,9.786 C85.473,9.81 85.503,9.822 85.539,9.822 L85.539,9.822 L85.989,9.822 Z M92.46,9.948 C92.73,9.948 92.9835,9.8925 93.2205,9.7815 C93.4575,9.6705 93.66,9.513 93.828,9.309 L93.828,9.309 L93.828,9.705 C93.828,9.741 93.84,9.771 93.864,9.795 C93.888,9.819 93.918,9.831 93.954,9.831 L93.954,9.831 L94.368,9.831 C94.404,9.831 94.434,9.819 94.458,9.795 C94.482,9.771 94.494,9.741 94.494,9.705 L94.494,9.705 L94.494,3.126 C94.494,3.09 94.482,3.06 94.458,3.036 C94.434,3.012 94.404,3 94.368,3 L94.368,3 L93.918,3 C93.882,3 93.852,3.012 93.828,3.036 C93.804,3.06 93.792,3.09 93.792,3.126 L93.792,3.126 L93.792,5.133 C93.618,4.971 93.4155,4.845 93.1845,4.755 C92.9535,4.665 92.715,4.62 92.469,4.62 C92.127,4.62 91.8105,4.704 91.5195,4.872 C91.2285,5.04 90.999,5.268 90.831,5.556 C90.663,5.844 90.579,6.159 90.579,6.501 L90.579,6.501 L90.579,8.067 C90.579,8.409 90.663,8.724 90.831,9.012 C90.999,9.3 91.227,9.528 91.515,9.696 C91.803,9.864 92.118,9.948 92.46,9.948 Z M92.532,9.282 C92.304,9.282 92.094,9.2265 91.902,9.1155 C91.71,9.0045 91.5585,8.853 91.4475,8.661 C91.3365,8.469 91.281,8.259 91.281,8.031 L91.281,8.031 L91.281,6.537 C91.281,6.309 91.3365,6.099 91.4475,5.907 C91.5585,5.715 91.71,5.5635 91.902,5.4525 C92.094,5.3415 92.304,5.286 92.532,5.286 C92.76,5.286 92.9715,5.3415 93.1665,5.4525 C93.3615,5.5635 93.5145,5.715 93.6255,5.907 C93.7365,6.099 93.792,6.309 93.792,6.537 L93.792,6.537 L93.792,8.031 C93.792,8.259 93.7365,8.469 93.6255,8.661 C93.5145,8.853 93.3615,9.0045 93.1665,9.1155 C92.9715,9.2265 92.76,9.282 92.532,9.282 Z M99.192,9.831 C99.228,9.831 99.258,9.819 99.282,9.795 C99.306,9.771 99.318,9.741 99.318,9.705 L99.318,9.705 L99.318,9.291 C99.318,9.255 99.306,9.225 99.282,9.201 C99.258,9.177 99.228,9.165 99.192,9.165 L99.192,9.165 L97.887,9.165 C97.659,9.165 97.449,9.1095 97.257,8.9985 C97.065,8.8875 96.9135,8.736 96.8025,8.544 C96.6915,8.352 96.636,8.142 96.636,7.914 L96.636,7.914 L96.636,7.518 L99.516,7.518 C99.606,7.518 99.6825,7.4865 99.7455,7.4235 C99.8085,7.3605 99.84,7.284 99.84,7.194 L99.84,7.194 L99.84,6.582 C99.84,6.228 99.753,5.8995 99.579,5.5965 C99.405,5.2935 99.168,5.055 98.868,4.881 C98.568,4.707 98.241,4.62 97.887,4.62 C97.533,4.62 97.206,4.707 96.906,4.881 C96.606,5.055 96.369,5.2935 96.195,5.5965 C96.021,5.8995 95.934,6.228 95.934,6.582 L95.934,6.582 L95.934,7.869 C95.934,8.223 96.021,8.5515 96.195,8.8545 C96.369,9.1575 96.606,9.396 96.906,9.57 C97.206,9.744 97.533,9.831 97.887,9.831 L97.887,9.831 L99.192,9.831 Z M99.138,6.87 L96.636,6.87 L96.636,6.537 C96.636,6.309 96.6915,6.099 96.8025,5.907 C96.9135,5.715 97.065,5.5635 97.257,5.4525 C97.449,5.3415 97.659,5.286 97.887,5.286 C98.115,5.286 98.325,5.3415 98.517,5.4525 C98.709,5.5635 98.8605,5.715 98.9715,5.907 C99.0825,6.099 99.138,6.309 99.138,6.537 L99.138,6.537 L99.138,6.87 Z M103.386,9.831 C103.422,9.831 103.452,9.819 103.476,9.795 C103.5,9.771 103.512,9.741 103.512,9.705 L103.512,9.705 L103.512,9.291 C103.512,9.255 103.5,9.225 103.476,9.201 C103.452,9.177 103.422,9.165 103.386,9.165 L103.386,9.165 L102.342,9.165 L102.342,6.303 L102.873,5.88 C103.137,5.67 103.335,5.5335 103.467,5.4705 C103.599,5.4075 103.74,5.376 103.89,5.376 L103.89,5.376 L104.088,5.376 C104.124,5.376 104.154,5.364 104.178,5.34 C104.202,5.316 104.214,5.286 104.214,5.25 L104.214,5.25 L104.214,4.809 C104.214,4.773 104.2035,4.743 104.1825,4.719 C104.1615,4.695 104.13,4.683 104.088,4.683 L104.088,4.683 L103.818,4.683 C103.668,4.683 103.5255,4.7115 103.3905,4.7685 C103.2555,4.8255 103.08,4.938 102.864,5.106 L102.864,5.106 L102.342,5.511 L102.342,5.061 C102.342,4.971 102.3105,4.8945 102.2475,4.8315 C102.1845,4.7685 102.108,4.737 102.018,4.737 L102.018,4.737 L100.893,4.737 C100.857,4.737 100.827,4.749 100.803,4.773 C100.779,4.797 100.767,4.827 100.767,4.863 L100.767,4.863 L100.767,5.25 C100.767,5.286 100.779,5.316 100.803,5.34 C100.827,5.364 100.857,5.376 100.893,5.376 L100.893,5.376 L101.64,5.376 L101.64,9.165 L100.893,9.165 C100.857,9.165 100.827,9.177 100.803,9.201 C100.779,9.225 100.767,9.255 100.767,9.291 L100.767,9.291 L100.767,9.705 C100.767,9.741 100.779,9.771 100.803,9.795 C100.827,9.819 100.857,9.831 100.893,9.831 L100.893,9.831 L103.386,9.831 Z" id="delexander" fill="#000000" fill-rule="nonzero"></path>
                    <line x1="52.5" y1="0.5" x2="52.5" y2="11.5" id="Line" stroke="#000000" stroke-linecap="square"></line>
                    <g id="Logo/Panel/LightMode" transform="translate(0.000000, 2.000000)" fill="#000000" fill-rule="nonzero">
                        <g id="Logo/Print/LightMode" transform="translate(0.000000, -0.000000)">
                            <path d="M1.55377327,1.81928916 L2.68700133,1.81928916 L2.68700133,4.07912925 L4.81507646,1.81928916 L6.30360705,1.81928916 L4.04463098,4.07912925 L6.41954787,7.30694037 L4.93849734,7.30694037 L3.23678524,4.90935056 L2.68700133,5.47151836 L2.68700133,7.30694037 L1.55377327,7.30694037 L1.55377327,1.81928916 Z M9.22830785,5.33376863 C9.16098703,5.37596245 9.09304389,5.4100893 9.0244764,5.43615019 C8.9559089,5.46221108 8.86178584,5.48641011 8.74210439,5.50874801 L8.50274269,5.5534236 C8.27833997,5.59313543 8.11752043,5.6415335 8.02027926,5.69861926 C7.85571726,5.79541685 7.7734375,5.94557495 7.7734375,6.14909809 C7.7734375,6.33028332 7.82392735,6.4612063 7.92490858,6.54187095 C8.0258898,6.62253561 8.14868611,6.66286733 8.2933012,6.66286733 C8.52269064,6.66286733 8.73400003,6.59585462 8.9272357,6.46182719 C9.12047138,6.32779976 9.22082776,6.08332747 9.22830785,5.72840298 L9.22830785,5.33376863 Z M8.58128324,4.83861422 C8.77825798,4.81379432 8.91913189,4.78276992 9.00390625,4.74554008 C9.15600143,4.68100835 9.23204787,4.58048929 9.23204787,4.44397987 C9.23204787,4.27768658 9.17407804,4.16289629 9.05813664,4.09960556 C8.94219523,4.03631483 8.77202572,4.00466994 8.54762301,4.00466994 C8.29579329,4.00466994 8.11752047,4.06671874 8.0127992,4.19081821 C7.9379983,4.28265182 7.88813177,4.40674943 7.86319814,4.56311477 L6.83469082,4.56311477 C6.8571311,4.20819028 6.95686414,3.91656089 7.13389295,3.68821786 C7.41564303,3.33081139 7.8993483,3.15211083 8.58502327,3.15211083 C9.03133534,3.15211083 9.4277742,3.24022013 9.77435173,3.41644138 C10.1209293,3.59266263 10.2942154,3.92524423 10.2942154,4.41419614 L10.2942154,6.27567892 C10.2942154,6.40474237 10.2967088,6.56110536 10.3016955,6.74477257 C10.3091756,6.88376398 10.3303688,6.97807817 10.3652759,7.02771796 C10.400183,7.07735774 10.4525429,7.11830996 10.522357,7.15057582 L10.522357,7.30694037 L9.3629488,7.30694037 C9.33053508,7.22503472 9.30809514,7.1480942 9.29562832,7.07611651 C9.28316151,7.00413881 9.2731882,6.92223439 9.26570811,6.83040078 C9.11859966,6.98924811 8.94905349,7.1245145 8.75706449,7.23620403 C8.52767505,7.36774947 8.26836913,7.4335212 7.97913896,7.4335212 C7.61012116,7.4335212 7.30531204,7.32865872 7.06470246,7.11893061 C6.82409288,6.9092025 6.70378989,6.61198873 6.70378989,6.22728036 C6.70378989,5.72840049 6.89702267,5.36727644 7.28349402,5.14389739 C7.49542992,5.02227991 7.80709568,4.93541158 8.21850066,4.8832898 L8.58128324,4.83861422 Z M12.3026097,3.24890793 L12.3026097,5.69489629 C12.3026097,5.92572131 12.3300363,6.09945796 12.3848903,6.21611147 C12.4821315,6.42211659 12.6728709,6.52511761 12.9571144,6.52511761 C13.3211454,6.52511761 13.5704781,6.37868243 13.7051197,6.08580767 C13.7749339,5.92696035 13.8098404,5.71723539 13.8098404,5.4566265 L13.8098404,3.24890793 L14.8907081,3.24890793 L14.8907081,7.30694037 L13.8547207,7.30694037 L13.8547207,6.73360368 L13.8417055,6.75147388 C13.8284409,6.77058504 13.8078459,6.80185783 13.7799202,6.84529264 C13.7400264,6.90734238 13.6926532,6.96194533 13.6377992,7.00910313 C13.4707438,7.15802249 13.309301,7.25978253 13.1534658,7.3143863 C12.9976305,7.36899007 12.8149944,7.39629154 12.6055519,7.39629154 C12.0021579,7.39629154 11.5957457,7.1803617 11.3863032,6.74849554 C11.2691151,6.51022455 11.2105219,6.15902832 11.2105219,5.69489629 L11.2105219,3.24890793 L12.3026097,3.24890793 Z M15.5003324,4.04189959 L15.5003324,3.28613759 L16.0688165,3.28613759 L16.0688165,2.15435606 L17.123504,2.15435606 L17.123504,3.28613759 L17.7854887,3.28613759 L17.7854887,4.04189959 L17.123504,4.04189959 L17.123504,6.18632774 C17.123504,6.35262104 17.1446973,6.45624254 17.1870844,6.49719537 C17.2294716,6.53814819 17.3591246,6.5586243 17.5760472,6.5586243 C17.6084609,6.5586243 17.6427442,6.55800381 17.6788979,6.55676281 C17.7150517,6.55552182 17.7505816,6.55366036 17.7854887,6.55117837 L17.7854887,7.34417003 L17.2805851,7.36278485 C16.7769257,7.38015878 16.4328467,7.29329045 16.2483378,7.10217727 C16.1286563,6.98055978 16.0688165,6.79317239 16.0688165,6.54000947 L16.0688165,4.04189959 L15.5003324,4.04189959 Z M20.078125,4.01583883 C19.831282,4.01583883 19.6399192,4.09277935 19.5040309,4.2466627 C19.3681426,4.40054604 19.2827462,4.60903003 19.2478391,4.87212091 L20.9046709,4.87212091 C20.8872173,4.5916561 20.8018209,4.3788287 20.6484791,4.23363232 C20.4951372,4.08843593 20.3050211,4.01583883 20.078125,4.01583883 Z M20.078125,3.14094193 C20.4172224,3.14094193 20.7226549,3.20423171 20.9944315,3.33081317 C21.2662081,3.45739463 21.4906075,3.65719179 21.6676363,3.93021062 C21.8272116,4.1709636 21.9306846,4.45018322 21.9780585,4.76787787 C22.0054855,4.95402708 22.0167055,5.22207792 22.0117188,5.57203843 L19.2216589,5.57203843 C19.2366191,5.9790847 19.3650254,6.2645092 19.6068816,6.4283205 C19.7539901,6.53008207 19.9310163,6.58096209 20.1379654,6.58096209 C20.3573814,6.58096209 20.5356542,6.51891329 20.6727892,6.39481381 C20.7475901,6.3278001 20.8136633,6.23472689 20.8710106,6.1155914 L21.9593584,6.1155914 C21.9319314,6.35634437 21.8060184,6.60081667 21.5816157,6.84901561 C21.2325448,7.24365193 20.7438529,7.44096713 20.1155253,7.44096713 C19.5969057,7.44096713 19.1393803,7.27467633 18.7429355,6.94208975 C18.3464907,6.60950316 18.1482713,6.06843758 18.1482713,5.31887677 C18.1482713,4.61647376 18.3271674,4.07789013 18.6849651,3.70310973 C19.0427628,3.32832932 19.5071448,3.14094193 20.078125,3.14094193 Z M24.9887799,3.15211083 C25.4101584,3.15211083 25.7548607,3.26193721 26.0228973,3.48159328 C26.2909339,3.70124934 26.4249501,4.06547583 26.4249501,4.57428366 L26.4249501,7.30694037 L25.3328624,7.30694037 L25.3328624,4.83861422 C25.3328624,4.62516313 25.3041891,4.46135428 25.2468418,4.34718277 C25.1421205,4.13869565 24.9426544,4.03445366 24.6484375,4.03445366 C24.2868998,4.03445366 24.0388138,4.18709372 23.9041722,4.49237842 C23.834358,4.65370773 23.7994515,4.85970977 23.7994515,5.1103907 L23.7994515,7.30694037 L22.7372839,7.30694037 L22.7372839,3.25635386 L23.7657912,3.25635386 L23.7657912,3.84830538 C23.9029262,3.63981827 24.0325792,3.48966016 24.154754,3.39782655 C24.37417,3.23401525 24.6521758,3.15211083 24.9887799,3.15211083 Z M28.5231051,2.76492241 L27.4571975,2.76492241 L27.4571975,1.78578247 L28.5231051,1.78578247 L28.5231051,2.76492241 Z M26.9448138,8.93387631 L26.9448138,8.08504017 L27.0618065,8.09379496 L27.0618065,8.09379496 L27.0719747,8.09434758 C27.0969084,8.09558858 27.1193483,8.09620907 27.1392952,8.09620907 C27.2440165,8.09620907 27.3231796,8.07076906 27.3767869,8.01988827 C27.4303942,7.96900749 27.4571975,7.87034989 27.4571975,7.72391251 L27.4571975,3.26752276 L28.5231051,3.26752276 L28.5231051,7.74252734 C28.5231051,8.1520556 28.442072,8.45485377 28.2800033,8.65093093 C28.1231627,8.84068303 27.8203831,8.93861822 27.3716558,8.94473916 L27.3262965,8.94504521 C27.3077744,8.94504521 27.284164,8.94463999 27.2554651,8.94382955 L27.0222096,8.93600373 C26.9976832,8.93529459 26.9718846,8.93458545 26.9448138,8.93387631 Z M31.7844082,5.33376863 C31.7170874,5.37596245 31.6491443,5.4100893 31.5805768,5.43615019 C31.5120093,5.46221108 31.4178862,5.48641011 31.2982048,5.50874801 L31.0588431,5.5534236 C30.8344404,5.59313543 30.6736208,5.6415335 30.5763797,5.69861926 C30.4118177,5.79541685 30.3295379,5.94557495 30.3295379,6.14909809 C30.3295379,6.33028332 30.3800278,6.4612063 30.481009,6.54187095 C30.5819902,6.62253561 30.7047865,6.66286733 30.8494016,6.66286733 C31.078791,6.66286733 31.2901004,6.59585462 31.4833361,6.46182719 C31.6765718,6.32779976 31.7769282,6.08332747 31.7844082,5.72840298 L31.7844082,5.33376863 Z M31.1373836,4.83861422 C31.3343584,4.81379432 31.4752323,4.78276992 31.5600066,4.74554008 C31.7121018,4.68100835 31.7881483,4.58048929 31.7881483,4.44397987 C31.7881483,4.27768658 31.7301784,4.16289629 31.614237,4.09960556 C31.4982956,4.03631483 31.3281261,4.00466994 31.1037234,4.00466994 C30.8518937,4.00466994 30.6736209,4.06671874 30.5688996,4.19081821 C30.4940987,4.28265182 30.4442322,4.40674943 30.4192985,4.56311477 L29.3907912,4.56311477 C29.4132315,4.20819028 29.5129645,3.91656089 29.6899934,3.68821786 C29.9717434,3.33081139 30.4554487,3.15211083 31.1411237,3.15211083 C31.5874357,3.15211083 31.9838746,3.24022013 32.3304521,3.41644138 C32.6770297,3.59266263 32.8503158,3.92524423 32.8503158,4.41419614 L32.8503158,6.27567892 C32.8503158,6.40474237 32.8528092,6.56110536 32.8577959,6.74477257 C32.865276,6.88376398 32.8864692,6.97807817 32.9213763,7.02771796 C32.9562834,7.07735774 33.0086433,7.11830996 33.0784574,7.15057582 L33.0784574,7.30694037 L31.9190492,7.30694037 C31.8866355,7.22503472 31.8641955,7.1480942 31.8517287,7.07611651 C31.8392619,7.00413881 31.8292886,6.92223439 31.8218085,6.83040078 C31.6747001,6.98924811 31.5051539,7.1245145 31.3131649,7.23620403 C31.0837754,7.36774947 30.8244695,7.4335212 30.5352394,7.4335212 C30.1662216,7.4335212 29.8614124,7.32865872 29.6208029,7.11893061 C29.3801933,6.9092025 29.2598903,6.61198873 29.2598903,6.22728036 C29.2598903,5.72840049 29.4531231,5.36727644 29.8395944,5.14389739 C30.0515303,5.02227991 30.3631961,4.93541158 30.7746011,4.8832898 L31.1373836,4.83861422 Z M35.0008311,2.77236834 L35.0008311,6.35386119 L36.0629987,6.35386119 C36.6065519,6.35386119 36.9855375,6.08705133 37.1999668,5.5534236 C37.3171548,5.26054885 37.375748,4.91183456 37.375748,4.50727028 C37.375748,3.94882266 37.2878583,3.52006542 37.1120761,3.22098569 C36.936294,2.92190596 36.586605,2.77236834 36.0629987,2.77236834 L35.0008311,2.77236834 Z M36.2574801,1.81928916 C36.5990709,1.82425314 36.88331,1.86396438 37.1102061,1.93842406 C37.4966775,2.06500552 37.8095899,2.29706805 38.0489528,2.63461862 C38.2409418,2.90763745 38.3718414,3.20298977 38.4416556,3.52068441 C38.5114698,3.83837906 38.5463763,4.14117723 38.5463763,4.42908801 C38.5463763,5.1587929 38.3992701,5.776799 38.1050532,6.28312485 C37.706115,6.96567194 37.0902635,7.30694037 36.2574801,7.30694037 L33.8825632,7.30694037 L33.8825632,1.81928916 L36.2574801,1.81928916 Z M40.2480884,5.61299105 C40.2829955,5.86367198 40.351562,6.05105937 40.4537899,6.17515885 C40.6407922,6.40101989 40.9611846,6.51394871 41.4149767,6.51394871 C41.6867534,6.51394871 41.9074127,6.48416528 42.0769614,6.42459754 C42.3986053,6.31042602 42.5594249,6.09821911 42.5594249,5.78797043 C42.5594249,5.6067852 42.4796384,5.4665549 42.3200632,5.36727532 C42.1684667,5.27531762 41.934739,5.19344105 41.6188739,5.12164341 L40.9848737,4.98008691 C40.4114001,4.85102346 40.0149612,4.71079316 39.7955452,4.5593918 C39.424034,4.30622888 39.2382812,3.9103575 39.2382812,3.37176579 C39.2382812,2.88033188 39.4178007,2.47205075 39.7768451,2.14691013 C40.1358894,1.82176951 40.6632279,1.65920164 41.3588763,1.65920164 C41.93983,1.65920164 42.4353786,1.81246219 42.8455369,2.11898789 C43.2556952,2.42551358 43.4707446,2.87040352 43.4906915,3.45367103 L42.3836436,3.45367103 C42.3636967,3.12356644 42.2190838,2.88902196 41.9498005,2.75003055 C41.7702784,2.65819694 41.5471257,2.61228082 41.2803358,2.61228082 C40.9836255,2.61228082 40.7467595,2.67184768 40.5697307,2.79098317 C40.3927019,2.91011866 40.3041888,3.07640946 40.3041888,3.28986055 C40.3041888,3.47702512 40.3837022,3.61895804 40.5427313,3.71566314 L40.5659907,3.72917049 C40.673704,3.79112094 40.8986061,3.86336366 41.2407033,3.94590064 L42.2340426,4.18337228 C42.6504343,4.28265186 42.9645934,4.4154363 43.1765293,4.58172959 C43.5056532,4.8398565 43.6702128,5.2133903 43.6702128,5.70234222 C43.6702128,6.20370409 43.4776033,6.62005157 43.0923787,6.95139716 C42.707154,7.28274275 42.1629856,7.44841306 41.459857,7.44841306 C40.7417684,7.44841306 40.17703,7.2852247 39.765625,6.95884309 C39.35422,6.63246148 39.1485206,6.18384862 39.1485206,5.61299105 L40.2480884,5.61299105 Z M47.6271609,3.56536 C47.6271609,3.27993122 47.5517378,3.07641113 47.4008893,2.95479365 C47.2500408,2.83317617 47.0387314,2.77236834 46.7669548,2.77236834 L45.6935672,2.77236834 L45.6935672,4.38813539 L46.7669548,4.38813539 C47.0387314,4.38813539 47.2500408,4.32236365 47.4008893,4.19081821 C47.5517378,4.05927277 47.6271609,3.85078879 47.6271609,3.56536 Z M48.767869,3.55791407 C48.767869,4.20571331 48.6033095,4.6636335 48.2741855,4.93168836 C47.9450615,5.19974321 47.4750695,5.33376863 46.8641955,5.33376863 L45.6935672,5.33376863 L45.6935672,7.30694037 L44.549119,7.30694037 L44.549119,1.81928916 L46.9502161,1.81928916 C47.5037428,1.81928916 47.9450615,1.96076044 48.2741855,2.24370723 C48.6033095,2.52665403 48.767869,2.96471859 48.767869,3.55791407 Z" id="KautenjaDSP"></path>
                        </g>
                    </g>
                </g>
                <path d="M25.96875,10.625 L25.96875,9.296875 L27.296875,9.296875 L27.296875,6.640625 L24.640625,6.640625 L24.640625,7.96875 L23.3125,7.96875 L23.3125,9.296875 L21.984375,9.296875 L21.984375,7.96875 L20.65625,7.96875 L20.65625,2.65625 L21.984375,2.65625 L21.984375,1.328125 L23.3125,1.328125 L23.3125,2.65625 L25.96875,2.65625 L25.96875,1.328125 L24.640625,1.328125 L24.640625,0 L20.65625,0 L20.65625,1.328125 L19.328125,1.328125 L19.328125,2.65625 L18,2.65625 L18,7.96875 L19.328125,7.96875 L19.328125,9.296875 L20.65625,9.296875 L20.65625,10.625 L25.96875,10.625 Z M34.784375,10.625 L34.784375,9.296875 L36.1125,9.296875 L36.1125,7.96875 L37.440625,7.96875 L37.440625,5.3125 L38.76875,5.3125 L38.76875,0 L36.1125,0 L36.1125,5.3125 L34.784375,5.3125 L34.784375,7.96875 L33.45625,7.96875 L33.45625,3.984375 L32.128125,3.984375 L32.128125,0 L29.471875,0 L29.471875,2.65625 L30.8,2.65625 L30.8,6.640625 L32.128125,6.640625 L32.128125,9.296875 L33.45625,9.296875 L33.45625,10.625 L34.784375,10.625 Z M55.025,10.625 L55.025,9.296875 L56.353125,9.296875 L56.353125,5.3125 L51.040625,5.3125 L51.040625,6.640625 L53.696875,6.640625 L53.696875,7.96875 L52.36875,7.96875 L52.36875,9.296875 L51.040625,9.296875 L51.040625,7.96875 L49.7125,7.96875 L49.7125,2.65625 L51.040625,2.65625 L51.040625,1.328125 L52.36875,1.328125 L52.36875,2.65625 L55.025,2.65625 L55.025,1.328125 L53.696875,1.328125 L53.696875,0 L49.7125,0 L49.7125,1.328125 L48.384375,1.328125 L48.384375,2.65625 L47.05625,2.65625 L47.05625,7.96875 L48.384375,7.96875 L48.384375,9.296875 L49.7125,9.296875 L49.7125,10.625 L55.025,10.625 Z M65.16875,10.625 L65.16875,9.296875 L66.496875,9.296875 L66.496875,7.96875 L63.840625,7.96875 L63.840625,9.296875 L61.184375,9.296875 L61.184375,6.640625 L66.496875,6.640625 L66.496875,3.984375 L65.16875,3.984375 L65.16875,2.65625 L59.85625,2.65625 L59.85625,3.984375 L58.528125,3.984375 L58.528125,9.296875 L59.85625,9.296875 L59.85625,10.625 L65.16875,10.625 Z M63.840625,5.3125 L61.184375,5.3125 L61.184375,3.984375 L63.840625,3.984375 L63.840625,5.3125 Z M72.625,10.625 L72.625,5.3125 L73.953125,5.3125 L73.953125,9.296875 L75.28125,9.296875 L75.28125,10.625 L77.9375,10.625 L77.9375,9.296875 L76.609375,9.296875 L76.609375,3.984375 L75.28125,3.984375 L75.28125,2.65625 L72.625,2.65625 L72.625,3.984375 L71.296875,3.984375 L71.296875,2.65625 L68.640625,2.65625 L68.640625,3.984375 L69.96875,3.984375 L69.96875,10.625 L72.625,10.625 Z M84.096875,1.328125 L84.096875,0 L81.440625,0 L81.440625,1.328125 L84.096875,1.328125 Z M84.096875,10.625 L84.096875,9.296875 L82.76875,9.296875 L82.76875,2.65625 L80.1125,2.65625 L80.1125,9.296875 L81.440625,9.296875 L81.440625,10.625 L84.096875,10.625 Z M92.865625,10.625 L92.865625,9.296875 L94.19375,9.296875 L94.19375,7.96875 L91.5375,7.96875 L91.5375,9.296875 L88.88125,9.296875 L88.88125,6.640625 L94.19375,6.640625 L94.19375,3.984375 L92.865625,3.984375 L92.865625,2.65625 L87.553125,2.65625 L87.553125,3.984375 L86.225,3.984375 L86.225,9.296875 L87.553125,9.296875 L87.553125,10.625 L92.865625,10.625 Z M91.5375,5.3125 L88.88125,5.3125 L88.88125,3.984375 L91.5375,3.984375 L91.5375,5.3125 Z" id="CVGenie" fill="#000000" fill-rule="nonzero"></path>
            </g>
        </g>
        <g id="layer1" transform="translate(21.863950, 68.000000)" stroke="#000000" stroke-linecap="round" stroke-linejoin="round" stroke-width="0.694798119">
            <line x1="0.615811333" y1="2.77742456" x2="116.220827" y2="2.77742456" id="path69638"></line>
            <line x1="0.615811333" y1="41.2184329" x2="116.220827" y2="41.2184329" id="path69668"></line>
            <line x1="0.615811333" y1="79.6634854" x2="116.220827" y2="79.6634854" id="path69672"></line>
            <line x1="0.615811333" y1="118.108538" x2="116.220827" y2="118.108538" id="path69676"></line>
            <line x1="0.615811333" y1="156.549508" x2="116.220827" y2="156.549508" id="path69680"></line>
            <line x1="0.615811333" y1="194.994599" x2="116.220827" y2="194.994599" id="path69684"></line>
            <line x1="0.615811333" y1="233.439651" x2="116.220827" y2="233.439651" id="path69688"></line>
            <line x1="0.615811333" y1="271.880622" x2="116.220827" y2="271.880622" id="path69692"></line>
        </g>
    </g>
</svg>