<?xml version="1.0" encoding="UTF-8"?>
<svg width="180px" height="380px" viewBox="0 0 180 380" version="1.1" xmlns="http://www.w3.org/2000/svg" xmlns:xlink="http://www.w3.org/1999/xlink">
    <!-- Generator: Sketch 61.2 (89653) - https://sketch.com -->
    <title>CVGenie-Dark</title>
    <desc>Created with Sketch.</desc>
    <g id="CVGenie-Dark" stroke="none" stroke-width="1" fill="none" fill-rule="evenodd">
        <g id="bg">
            <rect id="Background" fill="#333333" fill-rule="nonzero" x="0" y="0" width="180" height="380"></rect>
            <g id="branding" transform="translate(1.000000, 2.000000)">
                <g id="Brand" transform="translate(34.000000, 360.000000)">
                    <path d="M58.881,9.948 C59.151,9.948 59.4045,9.8925 59.6415,9.7815 C59.8785,9.6705 60.081,9.513 60.249,9.309 L60.249,9.309 L60.249,9.705 C60.249,9.741 60.261,9.771 60.285,9.795 C60.309,9.819 60.339,9.831 60.375,9.831 L60.375,9.831 L60.789,9.831 C60.825,9.831 60.855,9.819 60.879,9.795 C60.903,9.771 60.915,9.741 60.915,9.705 L60.915,9.705 L60.915,3.126 C60.915,3.09 60.903,3.06 60.879,3.036 C60.855,3.012 60.825,3 60.789,3 L60.789,3 L60.339,3 C60.303,3 60.273,3.012 60.249,3.036 C60.225,3.06 60.213,3.09 60.213,3.126 L60.213,3.126 L60.213,5.133 C60.039,4.971 59.8365,4.845 59.6055,4.755 C59.3745,4.665 59.136,4.62 58.89,4.62 C58.548,4.62 58.2315,4.704 57.9405,4.872 C57.6495,5.04 57.42,5.268 57.252,5.556 C57.084,5.844 57,6.159 57,6.501 L57,6.501 L57,8.067 C57,8.409 57.084,8.724 57.252,9.012 C57.42,9.3 57.648,9.528 57.936,9.696 C58.224,9.864 58.539,9.948 58.881,9.948 Z M58.953,9.282 C58.725,9.282 58.515,9.2265 58.323,9.1155 C58.131,9.0045 57.9795,8.853 57.8685,8.661 C57.7575,8.469 57.702,8.259 57.702,8.031 L57.702,8.031 L57.702,6.537 C57.702,6.309 57.7575,6.099 57.8685,5.907 C57.9795,5.715 58.131,5.5635 58.323,5.4525 C58.515,5.3415 58.725,5.286 58.953,5.286 C59.181,5.286 59.3925,5.3415 59.5875,5.4525 C59.7825,5.5635 59.9355,5.715 60.0465,5.907 C60.1575,6.099 60.213,6.309 60.213,6.537 L60.213,6.537 L60.213,8.031 C60.213,8.259 60.1575,8.469 60.0465,8.661 C59.9355,8.853 59.7825,9.0045 59.5875,9.1155 C59.3925,9.2265 59.181,9.282 58.953,9.282 Z M65.613,9.831 C65.649,9.831 65.679,9.819 65.703,9.795 C65.727,9.771 65.739,9.741 65.739,9.705 L65.739,9.705 L65.739,9.291 C65.739,9.255 65.727,9.225 65.703,9.201 C65.679,9.177 65.649,9.165 65.613,9.165 L65.613,9.165 L64.308,9.165 C64.08,9.165 63.87,9.1095 63.678,8.9985 C63.486,8.8875 63.3345,8.736 63.2235,8.544 C63.1125,8.352 63.057,8.142 63.057,7.914 L63.057,7.914 L63.057,7.518 L65.937,7.518 C66.027,7.518 66.1035,7.4865 66.1665,7.4235 C66.2295,7.3605 66.261,7.284 66.261,7.194 L66.261,7.194 L66.261,6.582 C66.261,6.228 66.174,5.8995 66,5.5965 C65.826,5.2935 65.589,5.055 65.289,4.881 C64.989,4.707 64.662,4.62 64.308,4.62 C63.954,4.62 63.627,4.707 63.327,4.881 C63.027,5.055 62.79,5.2935 62.616,5.5965 C62.442,5.8995 62.355,6.228 62.355,6.582 L62.355,6.582 L62.355,7.869 C62.355,8.223 62.442,8.5515 62.616,8.8545 C62.79,9.1575 63.027,9.396 63.327,9.57 C63.627,9.744 63.954,9.831 64.308,9.831 L64.308,9.831 L65.613,9.831 Z M65.559,6.87 L63.057,6.87 L63.057,6.537 C63.057,6.309 63.1125,6.099 63.2235,5.907 C63.3345,5.715 63.486,5.5635 63.678,5.4525 C63.87,5.3415 64.08,5.286 64.308,5.286 C64.536,5.286 64.746,5.3415 64.938,5.4525 C65.13,5.5635 65.2815,5.715 65.3925,5.907 C65.5035,6.099 65.559,6.309 65.559,6.537 L65.559,6.537 L65.559,6.87 Z M69.492,9.831 C69.528,9.831 69.558,9.819 69.582,9.795 C69.606,9.771 69.618,9.741 69.618,9.705 L69.618,9.705 L69.618,9.291 C69.618,9.255 69.606,9.225 69.582,9.201 C69.558,9.177 69.528,9.165 69.492,9.165 L69.492,9.165 L68.538,9.165 L68.538,3.324 C68.538,3.234 68.5065,3.1575 68.4435,3.0945 C68.3805,3.0315 68.304,3 68.214,3 L68.214,3 L66.999,3 C66.963,3 66.933,3.012 66.909,3.036 C66.885,3.06 66.873,3.09 66.873,3.126 L66.873,3.126 L66.873,3.54 C66.873,3.576 66.885,3.606 66.909,3.63 C66.933,3.654 66.963,3.666 66.999,3.666 L66.999,3.666 L67.836,3.666 L67.836,9.507 C67.836,9.597 67.8675,9.6735 67.9305,9.7365 C67.9935,9.7995 68.07,9.831 68.16,9.831 L68.16,9.831 L69.492,9.831 Z M73.731,9.831 C73.767,9.831 73.797,9.819 73.821,9.795 C73.845,9.771 73.857,9.741 73.857,9.705 L73.857,9.705 L73.857,9.291 C73.857,9.255 73.845,9.225 73.821,9.201 C73.797,9.177 73.767,9.165 73.731,9.165 L73.731,9.165 L72.426,9.165 C72.198,9.165 71.988,9.1095 71.796,8.9985 C71.604,8.8875 71.4525,8.736 71.3415,8.544 C71.2305,8.352 71.175,8.142 71.175,7.914 L71.175,7.914 L71.175,7.518 L74.055,7.518 C74.145,7.518 74.2215,7.4865 74.2845,7.4235 C74.3475,7.3605 74.379,7.284 74.379,7.194 L74.379,7.194 L74.379,6.582 C74.379,6.228 74.292,5.8995 74.118,5.5965 C73.944,5.2935 73.707,5.055 73.407,4.881 C73.107,4.707 72.78,4.62 72.426,4.62 C72.072,4.62 71.745,4.707 71.445,4.881 C71.145,5.055 70.908,5.2935 70.734,5.5965 C70.56,5.8995 70.473,6.228 70.473,6.582 L70.473,6.582 L70.473,7.869 C70.473,8.223 70.56,8.5515 70.734,8.8545 C70.908,9.1575 71.145,9.396 71.445,9.57 C71.745,9.744 72.072,9.831 72.426,9.831 L72.426,9.831 L73.731,9.831 Z M73.677,6.87 L71.175,6.87 L71.175,6.537 C71.175,6.309 71.2305,6.099 71.3415,5.907 C71.4525,5.715 71.604,5.5635 71.796,5.4525 C71.988,5.3415 72.198,5.286 72.426,5.286 C72.654,5.286 72.864,5.3415 73.056,5.4525 C73.248,5.5635 73.3995,5.715 73.5105,5.907 C73.6215,6.099 73.677,6.309 73.677,6.537 L73.677,6.537 L73.677,6.87 Z M75.765,9.831 C75.825,9.831 75.87,9.807 75.9,9.759 L75.9,9.759 L77.187,7.779 L78.474,9.759 C78.504,9.807 78.549,9.831 78.609,9.831 L78.609,9.831 L79.041,9.831 C79.089,9.831 79.128,9.816 79.158,9.786 C79.188,9.756 79.203,9.72 79.203,9.678 C79.203,9.648 79.194,9.615 79.176,9.579 L79.176,9.579 L77.592,7.149 L78.996,4.989 C79.014,4.953 79.023,4.92 79.023,4.89 C79.023,4.848 79.008,4.812 78.978,4.782 C78.948,4.752 78.909,4.737 78.861,4.737 L78.861,4.737 L78.429,4.737 C78.369,4.737 78.324,4.761 78.294,4.809 L78.294,4.809 L77.187,6.519 L76.08,4.809 C76.05,4.761 76.005,4.737 75.945,4.737 L75.945,4.737 L75.513,4.737 C75.465,4.737 75.426,4.752 75.396,4.782 C75.366,4.812 75.351,4.848 75.351,4.89 C75.351,4.92 75.36,4.953 75.378,4.989 L75.378,4.989 L76.782,7.149 L75.198,9.579 C75.18,9.615 75.171,9.648 75.171,9.678 C75.171,9.72 75.186,9.756 75.216,9.786 C75.246,9.816 75.285,9.831 75.333,9.831 L75.333,9.831 L75.765,9.831 Z M81.588,9.948 C81.93,9.948 82.2465,9.8715 82.5375,9.7185 C82.8285,9.5655 83.067,9.354 83.253,9.084 L83.253,9.084 L83.253,9.705 C83.253,9.741 83.265,9.771 83.289,9.795 C83.313,9.819 83.343,9.831 83.379,9.831 L83.379,9.831 L83.757,9.831 C83.793,9.831 83.823,9.819 83.847,9.795 C83.871,9.771 83.883,9.741 83.883,9.705 L83.883,9.705 L83.883,6.249 C83.883,5.925 83.8065,5.64 83.6535,5.394 C83.5005,5.148 83.283,4.9575 83.001,4.8225 C82.719,4.6875 82.398,4.62 82.038,4.62 C81.642,4.62 81.2925,4.7025 80.9895,4.8675 C80.6865,5.0325 80.448,5.259 80.274,5.547 C80.256,5.583 80.247,5.613 80.247,5.637 C80.247,5.691 80.274,5.742 80.328,5.79 L80.328,5.79 L80.571,5.952 C80.613,5.982 80.652,5.997 80.688,5.997 C80.76,5.997 80.82,5.958 80.868,5.88 C80.982,5.694 81.1365,5.5485 81.3315,5.4435 C81.5265,5.3385 81.756,5.286 82.02,5.286 C82.356,5.286 82.6365,5.3745 82.8615,5.5515 C83.0865,5.7285 83.199,5.961 83.199,6.249 L83.199,6.249 L83.199,6.321 C83.199,6.495 83.16,6.6285 83.082,6.7215 C83.004,6.8145 82.878,6.873 82.704,6.897 L82.704,6.897 L81.534,7.059 C81.054,7.125 80.6805,7.287 80.4135,7.545 C80.1465,7.803 80.013,8.13 80.013,8.526 C80.013,8.952 80.16,9.2955 80.454,9.5565 C80.748,9.8175 81.126,9.948 81.588,9.948 Z M81.66,9.318 C81.372,9.318 81.138,9.243 80.958,9.093 C80.778,8.943 80.688,8.745 80.688,8.499 C80.688,8.025 80.988,7.743 81.588,7.653 L81.588,7.653 L81.84,7.617 C82.62,7.509 83.082,7.446 83.226,7.428 L83.226,7.428 L83.226,7.797 C83.226,8.025 83.1585,8.2575 83.0235,8.4945 C82.8885,8.7315 82.701,8.928 82.461,9.084 C82.221,9.24 81.954,9.318 81.66,9.318 Z M85.989,9.822 C86.025,9.822 86.055,9.81 86.079,9.786 C86.103,9.762 86.115,9.732 86.115,9.696 L86.115,9.696 L86.115,6.753 C86.115,6.291 86.238,5.928 86.484,5.664 C86.73,5.4 87.054,5.268 87.456,5.268 C87.798,5.268 88.0695,5.3685 88.2705,5.5695 C88.4715,5.7705 88.572,6.063 88.572,6.447 L88.572,6.447 L88.572,9.696 C88.572,9.732 88.584,9.762 88.608,9.786 C88.632,9.81 88.662,9.822 88.698,9.822 L88.698,9.822 L89.148,9.822 C89.184,9.822 89.214,9.81 89.238,9.786 C89.262,9.762 89.274,9.732 89.274,9.696 L89.274,9.696 L89.274,6.312 C89.274,5.802 89.1165,5.391 88.8015,5.079 C88.4865,4.767 88.074,4.611 87.564,4.611 C87.252,4.611 86.9715,4.674 86.7225,4.8 C86.4735,4.926 86.271,5.112 86.115,5.358 L86.115,5.358 L86.115,4.863 C86.115,4.827 86.103,4.797 86.079,4.773 C86.055,4.749 86.025,4.737 85.989,4.737 L85.989,4.737 L85.539,4.737 C85.503,4.737 85.473,4.749 85.449,4.773 C85.425,4.797 85.413,4.827 85.413,4.863 L85.413,4.863 L85.413,9.696 C85.413,9.732 85.425,9.762 85.449,9.786 C85.473,9.81 85.503,9.822 85.539,9.822 L85.539,9.822 L85.989,9.822 Z M92.46,9.948 C92.73,9.948 92.9835,9.8925 93.2205,9.7815 C93.4575,9.6705 93.66,9.513 93.828,9.309 L93.828,9.309 L93.828,9.705 C93.828,9.741 93.84,9.771 93.864,9.795 C93.888,9.819 93.918,9.831 93.954,9.831 L93.954,9.831 L94.368,9.831 C94.404,9.831 94.434,9.819 94.458,9.795 C94.482,9.771 94.494,9.741 94.494,9.705 L94.494,9.705 L94.494,3.126 C94.494,3.09 94.482,3.06 94.458,3.036 C94.434,3.012 94.404,3 94.368,3 L94.368,3 L93.918,3 C93.882,3 93.852,3.012 93.828,3.036 C93.804,3.06 93.792,3.09 93.792,3.126 L93.792,3.126 L93.792,5.133 C93.618,4.971 93.4155,4.845 93.1845,4.755 C92.9535,4.665 92.715,4.62 92.469,4.62 C92.127,4.62 91.8105,4.704 91.5195,4.872 C91.2285,5.04 90.999,5.268 90.831,5.556 C90.663,5.844 90.579,6.159 90.579,6.501 L90.579,6.501 L90.579,8.067 C90.579,8.409 90.663,8.724 90.831,9.012 C90.999,9.3 91.227,9.528 91.515,9.696 C91.803,9.864 92.118,9.948 92.46,9.948 Z M92.532,9.282 C92.304,9.282 92.094,9.2265 91.902,9.1155 C91.71,9.0045 91.5585,8.853 91.4475,8.661 C91.3365,8.469 91.281,8.259 91.281,8.031 L91.281,8.031 L91.281,6.537 C91.281,6.309 91.3365,6.099 91.4475,5.907 C91.5585,5.715 91.71,5.5635 91.902,5.4525 C92.094,5.3415 92.304,5.286 92.532,5.286 C92.76,5.286 92.9715,5.3415 93.1665,5.4525 C93.3615,5.5635 93.5145,5.715 93.6255,5.907 C93.7365,6.099 93.792,6.309 93.792,6.537 L93.792,6.537 L93.792,8.031 C93.792,8.259 93.7365,8.469 93.6255,8.661 C93.5145,8.853 93.3615,9.0045 93.1665,9.1155 C92.9715,9.2265 92.76,9.282 92.532,9.282 Z M99.192,9.831 C99.228,9.831 99.258,9.819 99.282,9.795 C99.306,9.771 99.318,9.741 99.318,9.705 L99.318,9.705 L99.318,9.291 C99.318,9.255 99.306,9.225 99.282,9.201 C99.258,9.177 99.228,9.165 99.192,9.165 L99.192,9.165 L97.887,9.165 C97.659,9.165 97.449,9.1095 97.257,8.9985 C97.065,8.8875 96.9135,8.736 96.8025,8.544 C96.6915,8.352 96.636,8.142 96.636,7.914 L96.636,7.914 L96.636,7.518 L99.516,7.518 C99.606,7.518 99.6825,7.4865 99.7455,7.4235 C99.8085,7.3605 99.84,7.284 99.84,7.194 L99.84,7.194 L99.84,6.582 C99.84,6.228 99.753,5.8995 99.579,5.5965 C99.405,5.2935 99.168,5.055 98.868,4.881 C98.568,4.707 98.241,4.62 97.887,4.62 C97.533,4.62 97.206,4.707 96.906,4.881 C96.606,5.055 96.369,5.2935 96.195,5.5965 C96.021,5.8995 95.934,6.228 95.934,6.582 L95.934,6.582 L95.934,7.869 C95.934,8.223 96.021,8.5515 96.195,8.8545 C96.369,9.1575 96.606,9.396 96.906,9.57 C97.206,9.744 97.533,9.831 97.887,9.831 L97.887,9.831 L99.192,9.831 Z M99.138,6.87 L96.636,6.87 L96.636,6.537 C96.636,6.309 96.6915,6.099 96.8025,5.907 C96.9135,5.715 97.065,5.5635 97.257,5.4525 C97.449,5.3415 97.659,5.286 97.887,5.286 C98.115,5.286 98.325,5.3415 98.517,5.4525 C98.709,5.5635 98.8605,5.715 98.9715,5.907 C99.0825,6.099 99.138,6.309 99.138,6.537 L99.138,6.537 L99.138,6.87 Z M103.386,9.831 C103.422,9.831 103.452,9.819 103.476,9.795 C103.5,9.771 103.512,9.741 103.512,9.705 L103.512,9.705 L103.512,9.291 C103.512,9.255 103.5,9.225 103.476,9.201 C103.452,9.177 103.422,9.165 103.386,9.165 L103.386,9.165 L102.342,9.165 L102.342,6.303 L102.873,5.88 C103.137,5.67 103.335,5.5335 103.467,5.4705 C103.599,5.4075 103.74,5.376 103.89,5.376 L103.89,5.376 L104.088,5.376 C104.124,5.376 104.154,5.364 104.178,5.34 C104.202,5.316 104.214,5.286 104.214,5.25 L104.214,5.25 L104.214,4.809 C104.214,4.773 104.2035,4.743 104.1825,4.719 C104.1615,4.695 104.13,4.683 104.088,4.683 L104.088,4.683 L103.818,4.683 C103.668,4.683 103.5255,4.7115 103.3905,4.7685 C103.2555,4.8255 103.08,4.938 102.864,5.106 L102.864,5.106 L102.342,5.511 L102.342,5.061 C102.342,4.971 102.3105,4.8945 102.2475,4.8315 C102.1845,4.7685 102.108,4.737 102.018,4.737 L102.018,4.737 L100.893,4.737 C100.857,4.737 100.827,4.749 100.803,4.773 C100.779,4.797 100.767,4.827 100.767,4.863 L100.767,4.863 L100.767,5.25 C100.767,5.286 100.779,5.316 100.803,5.34 C100.827,5.364 100.857,5.376 100.893,5.376 L100.893,5.376 L101.64,5.376 L101.64,9.165 L100.893,9.165 C100.857,9.165 100.827,9.177 100.803,9.201 C100.779,9.225 100.767,9.255 100.767,9.291 L100.767,9.291 L100.767,9.705 C100.767,9.741 100.779,9.771 100.803,9.795 C100.827,9.819 100.857,9.831 100.893,9.831 L100.893,9.831 L103.386,9.831 Z" id="delexander" fill="#FFFFFF" fill-rule="nonzero"></path>
                    <line x1="52.5" y1="0.5" x2="52.5" y2="11.5" id="Line" stroke="#FFFFFF" stroke-linecap="square"></line>
                    <g id="Logo/Panel/DarkMode" transform="translate(0.000000, 2.000000)" fill="#FFFFFF" fill-rule="nonzero">
                        <g id="Logo/Print/DarkMode">
                            <path d="M1.55377327,1.92887931 L2.68700133,1.92887931 L2.68700133,4.19305371 L4.81507646,1.92887931 L6.30360705,1.92887931 L4.04463098,4.19305371 L6.41954787,7.4270557 L4.93849734,7.4270557 L3.23678524,5.02486737 L2.68700133,5.5881134 L2.68700133,7.4270557 L1.55377327,7.4270557 L1.55377327,1.92887931 Z M9.22830785,5.45009947 C9.16098703,5.49237422 9.09304389,5.52656651 9.0244764,5.55267739 C8.9559089,5.57878826 8.86178584,5.60303371 8.74210439,5.62541446 L8.50274269,5.67017573 C8.27833997,5.70996373 8.11752043,5.75845462 8.02027926,5.81564987 C7.85571726,5.91263311 7.7734375,6.06307922 7.7734375,6.26699271 C7.7734375,6.44852544 7.82392735,6.57969953 7.92490858,6.6605189 C8.0258898,6.74133827 8.14868611,6.78174735 8.2933012,6.78174735 C8.52269064,6.78174735 8.73400003,6.71460611 8.9272357,6.58032162 C9.12047138,6.44603713 9.22082776,6.20109594 9.22830785,5.84549072 L9.22830785,5.45009947 Z M8.58128324,4.95399536 C8.77825798,4.92912786 8.91913189,4.89804395 9.00390625,4.86074271 C9.15600143,4.79608721 9.23204787,4.69537535 9.23204787,4.55860411 C9.23204787,4.39199187 9.17407804,4.27698142 9.05813664,4.2135693 C8.94219523,4.15015718 8.77202572,4.11845159 8.54762301,4.11845159 C8.29579329,4.11845159 8.11752047,4.1806194 8.0127992,4.3049569 C7.9379983,4.39696664 7.88813177,4.52130227 7.86319814,4.67796751 L6.83469082,4.67796751 C6.8571311,4.32236228 6.95686414,4.03017356 7.13389295,3.80139257 C7.41564303,3.4433006 7.8993483,3.26425729 8.58502327,3.26425729 C9.03133534,3.26425729 9.4277742,3.35253559 9.77435173,3.52909483 C10.1209293,3.70565407 10.2942154,4.03887355 10.2942154,4.52876326 L10.2942154,6.39381631 C10.2942154,6.5231273 10.2967088,6.67979019 10.3016955,6.86380968 C10.3091756,7.00306767 10.3303688,7.09756275 10.3652759,7.14729775 C10.400183,7.19703274 10.4525429,7.2380635 10.522357,7.27039125 L10.522357,7.4270557 L9.3629488,7.4270557 C9.33053508,7.34499296 9.30809514,7.26790487 9.29562832,7.19578912 C9.28316151,7.12367338 9.2731882,7.04161187 9.26570811,6.94960212 C9.11859966,7.10875411 8.94905349,7.24427994 8.75706449,7.35618369 C8.52767505,7.48798143 8.26836913,7.55387931 7.97913896,7.55387931 C7.61012116,7.55387931 7.30531204,7.44881571 7.06470246,7.23868534 C6.82409288,7.02855498 6.70378989,6.73077116 6.70378989,6.34532493 C6.70378989,5.84548822 6.89702267,5.48367154 7.28349402,5.25986406 C7.49542992,5.13801332 7.80709568,5.05097838 8.21850066,4.99875663 L8.58128324,4.95399536 Z M12.3026097,3.36124005 L12.3026097,5.81191976 C12.3026097,6.0431875 12.3300363,6.21725737 12.3848903,6.33413462 C12.4821315,6.54053485 12.6728709,6.64373342 12.9571144,6.64373342 C13.3211454,6.64373342 13.5704781,6.49701738 13.7051197,6.2035809 C13.7749339,6.04442891 13.8098404,5.8343017 13.8098404,5.57319297 L13.8098404,3.36124005 L14.8907081,3.36124005 L14.8907081,7.4270557 L13.8547207,7.4270557 L13.8547207,6.85261936 L13.8417055,6.87052384 C13.8284409,6.88967165 13.8078459,6.92100442 13.7799202,6.96452255 C13.7400264,7.02669129 13.6926532,7.08139897 13.6377992,7.12864721 C13.4707438,7.2778522 13.309301,7.37980742 13.1534658,7.43451592 C12.9976305,7.48922441 12.8149944,7.51657825 12.6055519,7.51657825 C12.0021579,7.51657825 11.5957457,7.30023426 11.3863032,6.86753979 C11.2691151,6.6288118 11.2105219,6.27694198 11.2105219,5.81191976 L11.2105219,3.36124005 L12.3026097,3.36124005 Z M15.5003324,4.15575265 L15.5003324,3.39854111 L16.0688165,3.39854111 L16.0688165,2.26458886 L17.123504,2.26458886 L17.123504,3.39854111 L17.7854887,3.39854111 L17.7854887,4.15575265 L17.123504,4.15575265 L17.123504,6.30429377 C17.123504,6.47090601 17.1446973,6.57472625 17.1870844,6.61575763 C17.2294716,6.656789 17.3591246,6.67730438 17.5760472,6.67730438 C17.6084609,6.67730438 17.6427442,6.6766827 17.6788979,6.67543932 C17.7150517,6.67419595 17.7505816,6.67233091 17.7854887,6.66984416 L17.7854887,7.46435676 L17.2805851,7.48300729 C16.7769257,7.50041454 16.4328467,7.4133796 16.2483378,7.22189987 C16.1286563,7.10004913 16.0688165,6.91230233 16.0688165,6.65865385 L16.0688165,4.15575265 L15.5003324,4.15575265 Z M20.078125,4.12964191 C19.831282,4.12964191 19.6399192,4.20673 19.5040309,4.36090849 C19.3681426,4.51508698 19.2827462,4.72397083 19.2478391,4.98756631 L20.9046709,4.98756631 C20.8872173,4.70656358 20.8018209,4.49332798 20.6484791,4.34785312 C20.4951372,4.20237825 20.3050211,4.12964191 20.078125,4.12964191 Z M20.078125,3.25306698 C20.4172224,3.25306698 20.7226549,3.31647815 20.9944315,3.44330239 C21.2662081,3.57012663 21.4906075,3.77030699 21.6676363,4.04384947 C21.8272116,4.2850642 21.9306846,4.56481936 21.9780585,4.88312334 C22.0054855,5.06962958 22.0167055,5.33819453 22.0117188,5.68882626 L19.2216589,5.68882626 C19.2366191,6.09665323 19.3650254,6.38262517 19.6068816,6.54675066 C19.7539901,6.64870741 19.9310163,6.69968501 20.1379654,6.69968501 C20.3573814,6.69968501 20.5356542,6.6375172 20.6727892,6.51317971 C20.7475901,6.44603746 20.8136633,6.35278574 20.8710106,6.23342175 L21.9593584,6.23342175 C21.9319314,6.47463648 21.8060184,6.71957767 21.5816157,6.96825265 C21.2325448,7.36364588 20.7438529,7.56133952 20.1155253,7.56133952 C19.5969057,7.56133952 19.1393803,7.39472978 18.7429355,7.06150531 C18.3464907,6.72828083 18.1482713,6.1861775 18.1482713,5.43517905 C18.1482713,4.73142884 18.3271674,4.19181222 18.6849651,3.816313 C19.0427628,3.44081377 19.5071448,3.25306698 20.078125,3.25306698 Z M24.9887799,3.26425729 C25.4101584,3.26425729 25.7548607,3.37429432 26.0228973,3.59437168 C26.2909339,3.81444904 26.4249501,4.17937411 26.4249501,4.68915782 L26.4249501,7.4270557 L25.3328624,7.4270557 L25.3328624,4.95399536 C25.3328624,4.74013487 25.3041891,4.57601185 25.2468418,4.46162135 C25.1421205,4.25273437 24.9426544,4.14829244 24.6484375,4.14829244 C24.2868998,4.14829244 24.0388138,4.30122526 23.9041722,4.60709549 C23.834358,4.76873423 23.7994515,4.97513137 23.7994515,5.2262931 L23.7994515,7.4270557 L22.7372839,7.4270557 L22.7372839,3.36870027 L23.7657912,3.36870027 L23.7657912,3.96178714 C23.9029262,3.75290015 24.0325792,3.60245404 24.154754,3.5104443 C24.37417,3.34631881 24.6521758,3.26425729 24.9887799,3.26425729 Z M28.5231051,2.87632626 L27.4571975,2.87632626 L27.4571975,1.89530836 L28.5231051,1.89530836 L28.5231051,2.87632626 Z M26.9448138,9.05711207 L26.9448138,8.20664788 L27.0618065,8.21541945 L27.0618065,8.21541945 L27.0719747,8.21597314 C27.0969084,8.21721652 27.1193483,8.2178382 27.1392952,8.2178382 C27.2440165,8.2178382 27.3231796,8.19234939 27.3767869,8.14137102 C27.4303942,8.09039265 27.4571975,7.99154583 27.4571975,7.84482759 L27.4571975,3.37989058 L28.5231051,3.37989058 L28.5231051,7.86347812 C28.5231051,8.27379184 28.442072,8.57717077 28.2800033,8.77362401 C28.1231627,8.96374004 27.8203831,9.06186307 27.3716558,9.06799575 L27.3262965,9.06830239 C27.3077744,9.06830239 27.284164,9.06789639 27.2554651,9.0670844 L27.0222096,9.05924356 C26.9976832,9.05853307 26.9718846,9.05782257 26.9448138,9.05711207 Z M31.7844082,5.45009947 C31.7170874,5.49237422 31.6491443,5.52656651 31.5805768,5.55267739 C31.5120093,5.57878826 31.4178862,5.60303371 31.2982048,5.62541446 L31.0588431,5.67017573 C30.8344404,5.70996373 30.6736208,5.75845462 30.5763797,5.81564987 C30.4118177,5.91263311 30.3295379,6.06307922 30.3295379,6.26699271 C30.3295379,6.44852544 30.3800278,6.57969953 30.481009,6.6605189 C30.5819902,6.74133827 30.7047865,6.78174735 30.8494016,6.78174735 C31.078791,6.78174735 31.2901004,6.71460611 31.4833361,6.58032162 C31.6765718,6.44603713 31.7769282,6.20109594 31.7844082,5.84549072 L31.7844082,5.45009947 Z M31.1373836,4.95399536 C31.3343584,4.92912786 31.4752323,4.89804395 31.5600066,4.86074271 C31.7121018,4.79608721 31.7881483,4.69537535 31.7881483,4.55860411 C31.7881483,4.39199187 31.7301784,4.27698142 31.614237,4.2135693 C31.4982956,4.15015718 31.3281261,4.11845159 31.1037234,4.11845159 C30.8518937,4.11845159 30.6736209,4.1806194 30.5688996,4.3049569 C30.4940987,4.39696664 30.4442322,4.52130227 30.4192985,4.67796751 L29.3907912,4.67796751 C29.4132315,4.32236228 29.5129645,4.03017356 29.6899934,3.80139257 C29.9717434,3.4433006 30.4554487,3.26425729 31.1411237,3.26425729 C31.5874357,3.26425729 31.9838746,3.35253559 32.3304521,3.52909483 C32.6770297,3.70565407 32.8503158,4.03887355 32.8503158,4.52876326 L32.8503158,6.39381631 C32.8503158,6.5231273 32.8528092,6.67979019 32.8577959,6.86380968 C32.865276,7.00306767 32.8864692,7.09756275 32.9213763,7.14729775 C32.9562834,7.19703274 33.0086433,7.2380635 33.0784574,7.27039125 L33.0784574,7.4270557 L31.9190492,7.4270557 C31.8866355,7.34499296 31.8641955,7.26790487 31.8517287,7.19578912 C31.8392619,7.12367338 31.8292886,7.04161187 31.8218085,6.94960212 C31.6747001,7.10875411 31.5051539,7.24427994 31.3131649,7.35618369 C31.0837754,7.48798143 30.8244695,7.55387931 30.5352394,7.55387931 C30.1662216,7.55387931 29.8614124,7.44881571 29.6208029,7.23868534 C29.3801933,7.02855498 29.2598903,6.73077116 29.2598903,6.34532493 C29.2598903,5.84548822 29.4531231,5.48367154 29.8395944,5.25986406 C30.0515303,5.13801332 30.3631961,5.05097838 30.7746011,4.99875663 L31.1373836,4.95399536 Z M35.0008311,2.88378647 L35.0008311,6.47214854 L36.0629987,6.47214854 C36.6065519,6.47214854 36.9855375,6.20482694 37.1999668,5.67017573 C37.3171548,5.37673925 37.375748,5.02735614 37.375748,4.62201592 C37.375748,4.0624972 37.2878583,3.63291761 37.1120761,3.33326426 C36.936294,3.0336109 36.586605,2.88378647 36.0629987,2.88378647 L35.0008311,2.88378647 Z M36.2574801,1.92887931 C36.5990709,1.93385281 36.88331,1.97364021 37.1102061,2.04824271 C37.4966775,2.17506695 37.8095899,2.40757457 38.0489528,2.74577255 C38.2409418,3.01931503 38.3718414,3.31523382 38.4416556,3.6335378 C38.5114698,3.95184178 38.5463763,4.25522071 38.5463763,4.54368369 C38.5463763,5.27478814 38.3992701,5.89397956 38.1050532,6.40127653 C37.706115,7.08513273 37.0902635,7.4270557 36.2574801,7.4270557 L33.8825632,7.4270557 L33.8825632,1.92887931 L36.2574801,1.92887931 Z M40.2480884,5.72985743 C40.2829955,5.98101916 40.351562,6.16876596 40.4537899,6.29310345 C40.6407922,6.51939768 40.9611846,6.6325431 41.4149767,6.6325431 C41.6867534,6.6325431 41.9074127,6.60270255 42.0769614,6.54302056 C42.3986053,6.42863006 42.5594249,6.21601614 42.5594249,5.90517241 C42.5594249,5.72363968 42.4796384,5.58314042 42.3200632,5.48367042 C42.1684667,5.39153634 41.934739,5.30950274 41.6188739,5.2375674 L40.9848737,5.09573939 C40.4114001,4.9664284 40.0149612,4.82592914 39.7955452,4.6742374 C39.424034,4.42058892 39.2382812,4.02395827 39.2382812,3.48433355 C39.2382812,2.99195709 39.4178007,2.58289288 39.7768451,2.25712865 C40.1358894,1.93136442 40.6632279,1.76848475 41.3588763,1.76848475 C41.93983,1.76848475 42.4353786,1.92203925 42.8455369,2.22915285 C43.2556952,2.53626646 43.4707446,2.98200968 43.4906915,3.56639589 L42.3836436,3.56639589 C42.3636967,3.23565816 42.2190838,3.00066383 41.9498005,2.86140584 C41.7702784,2.76939609 41.5471257,2.72339191 41.2803358,2.72339191 C40.9836255,2.72339191 40.7467595,2.78307301 40.5697307,2.902437 C40.3927019,3.02180099 40.3041888,3.18841073 40.3041888,3.40227122 C40.3041888,3.58979476 40.3837022,3.73199991 40.5427313,3.82889049 L40.5659907,3.84242374 C40.673704,3.90449302 40.8986061,3.97687429 41.2407033,4.05956958 L42.2340426,4.29749668 C42.6504343,4.39696668 42.9645934,4.5300058 43.1765293,4.69661804 C43.5056532,4.95524002 43.6702128,5.32949026 43.6702128,5.81937997 C43.6702128,6.32170344 43.4776033,6.73884947 43.0923787,7.07083057 C42.707154,7.40281167 42.1629856,7.56879973 41.459857,7.56879973 C40.7417684,7.56879973 40.17703,7.40529839 39.765625,7.07829078 C39.35422,6.75128318 39.1485206,6.30180989 39.1485206,5.72985743 L40.2480884,5.72985743 Z M47.6271609,3.67829907 C47.6271609,3.39232284 47.5517378,3.18841241 47.4008893,3.06656167 C47.2500408,2.94471093 47.0387314,2.88378647 46.7669548,2.88378647 L45.6935672,2.88378647 L45.6935672,4.50265252 L46.7669548,4.50265252 C47.0387314,4.50265252 47.2500408,4.43675464 47.4008893,4.3049569 C47.5517378,4.17315916 47.6271609,3.9642753 47.6271609,3.67829907 Z M48.767869,3.67083886 C48.767869,4.31988057 48.6033095,4.77867903 48.2741855,5.04724801 C47.9450615,5.31581699 47.4750695,5.45009947 46.8641955,5.45009947 L45.6935672,5.45009947 L45.6935672,7.4270557 L44.549119,7.4270557 L44.549119,1.92887931 L46.9502161,1.92887931 C47.5037428,1.92887931 47.9450615,2.07062192 48.2741855,2.35411141 C48.6033095,2.63760089 48.767869,3.07650565 48.767869,3.67083886 Z" id="KautenjaDSP"></path>
                        </g>
                    </g>
                </g>
                <path d="M60.128125,14 L60.128125,12.671875 L61.45625,12.671875 L61.45625,10.015625 L58.8,10.015625 L58.8,11.34375 L57.471875,11.34375 L57.471875,12.671875 L56.14375,12.671875 L56.14375,11.34375 L54.815625,11.34375 L54.815625,6.03125 L56.14375,6.03125 L56.14375,4.703125 L57.471875,4.703125 L57.471875,6.03125 L60.128125,6.03125 L60.128125,4.703125 L58.8,4.703125 L58.8,3.375 L54.815625,3.375 L54.815625,4.703125 L53.4875,4.703125 L53.4875,6.03125 L52.159375,6.03125 L52.159375,11.34375 L53.4875,11.34375 L53.4875,12.671875 L54.815625,12.671875 L54.815625,14 L60.128125,14 Z M68.94375,14 L68.94375,12.671875 L70.271875,12.671875 L70.271875,11.34375 L71.6,11.34375 L71.6,8.6875 L72.928125,8.6875 L72.928125,3.375 L70.271875,3.375 L70.271875,8.6875 L68.94375,8.6875 L68.94375,11.34375 L67.615625,11.34375 L67.615625,7.359375 L66.2875,7.359375 L66.2875,3.375 L63.63125,3.375 L63.63125,6.03125 L64.959375,6.03125 L64.959375,10.015625 L66.2875,10.015625 L66.2875,12.671875 L67.615625,12.671875 L67.615625,14 L68.94375,14 Z M89.184375,14 L89.184375,12.671875 L90.5125,12.671875 L90.5125,8.6875 L85.2,8.6875 L85.2,10.015625 L87.85625,10.015625 L87.85625,11.34375 L86.528125,11.34375 L86.528125,12.671875 L85.2,12.671875 L85.2,11.34375 L83.871875,11.34375 L83.871875,6.03125 L85.2,6.03125 L85.2,4.703125 L86.528125,4.703125 L86.528125,6.03125 L89.184375,6.03125 L89.184375,4.703125 L87.85625,4.703125 L87.85625,3.375 L83.871875,3.375 L83.871875,4.703125 L82.54375,4.703125 L82.54375,6.03125 L81.215625,6.03125 L81.215625,11.34375 L82.54375,11.34375 L82.54375,12.671875 L83.871875,12.671875 L83.871875,14 L89.184375,14 Z M99.328125,14 L99.328125,12.671875 L100.65625,12.671875 L100.65625,11.34375 L98,11.34375 L98,12.671875 L95.34375,12.671875 L95.34375,10.015625 L100.65625,10.015625 L100.65625,7.359375 L99.328125,7.359375 L99.328125,6.03125 L94.015625,6.03125 L94.015625,7.359375 L92.6875,7.359375 L92.6875,12.671875 L94.015625,12.671875 L94.015625,14 L99.328125,14 Z M98,8.6875 L95.34375,8.6875 L95.34375,7.359375 L98,7.359375 L98,8.6875 Z M106.784375,14 L106.784375,8.6875 L108.1125,8.6875 L108.1125,12.671875 L109.440625,12.671875 L109.440625,14 L112.096875,14 L112.096875,12.671875 L110.76875,12.671875 L110.76875,7.359375 L109.440625,7.359375 L109.440625,6.03125 L106.784375,6.03125 L106.784375,7.359375 L105.45625,7.359375 L105.45625,6.03125 L102.8,6.03125 L102.8,7.359375 L104.128125,7.359375 L104.128125,14 L106.784375,14 Z M118.25625,4.703125 L118.25625,3.375 L115.6,3.375 L115.6,4.703125 L118.25625,4.703125 Z M118.25625,14 L118.25625,12.671875 L116.928125,12.671875 L116.928125,6.03125 L114.271875,6.03125 L114.271875,12.671875 L115.6,12.671875 L115.6,14 L118.25625,14 Z M127.025,14 L127.025,12.671875 L128.353125,12.671875 L128.353125,11.34375 L125.696875,11.34375 L125.696875,12.671875 L123.040625,12.671875 L123.040625,10.015625 L128.353125,10.015625 L128.353125,7.359375 L127.025,7.359375 L127.025,6.03125 L121.7125,6.03125 L121.7125,7.359375 L120.384375,7.359375 L120.384375,12.671875 L121.7125,12.671875 L121.7125,14 L127.025,14 Z M125.696875,8.6875 L123.040625,8.6875 L123.040625,7.359375 L125.696875,7.359375 L125.696875,8.6875 Z" id="CVGenie" fill="#CFCFCF" fill-rule="nonzero"></path>
            </g>
        </g>
        <g id="Control-Surface" transform="translate(21.000000, 64.000000)" stroke="#FFFFFF" stroke-linecap="round" stroke-linejoin="round" stroke-width="0.694798119">
            <g id="Param-8" transform="translate(1.000000, 273.000000)">
                <line x1="0.479760964" y1="2.88062179" x2="116.084777" y2="2.88062179" id="path69692"></line>
            </g>
            <g id="Param-7" transform="translate(1.000000, 234.000000)">
                <line x1="0.479760964" y1="2.88062179" x2="116.084777" y2="2.88062179" id="path69692"></line>
            </g>
            <g id="Param-6" transform="translate(1.000000, 195.000000)">
                <line x1="0.479760964" y1="2.88062179" x2="116.084777" y2="2.88062179" id="path69692"></line>
            </g>
            <g id="Param-5" transform="translate(0.000000, 156.000000)">
                <line x1="0.479760964" y1="2.88062179" x2="116.084777" y2="2.88062179" id="path69692"></line>
            </g>
            <g id="Param-4" transform="translate(0.000000, 117.000000)">
                <line x1="0.479760964" y1="2.88062179" x2="116.084777" y2="2.88062179" id="path69692"></line>
            </g>
            <g id="Param-3" transform="translate(0.000000, 78.000000)">
                <line x1="0.479760964" y1="2.88062179" x2="116.084777" y2="2.88062179" id="path69692"></line>
            </g>
            <g id="Param-2" transform="translate(0.000000, 39.000000)">
                <line x1="0.479760964" y1="2.88062179" x2="116.084777" y2="2.88062179" id="path69692"></line>
            </g>
            <g id="Param-1" transform="translate(1.000000, 0.000000)">
                <line x1="0.479760964" y1="2.88062179" x2="116.084777" y2="2.88062179" id="path69692"></line>
            </g>
        </g>
    </g>
</svg>