<?xml version="1.0" encoding="UTF-8"?>
<svg width="570px" height="380px" viewBox="0 0 570 380" version="1.1" xmlns="http://www.w3.org/2000/svg" xmlns:xlink="http://www.w3.org/1999/xlink">
    <!-- Generator: Sketch 61.2 (89653) - https://sketch.com -->
    <title>RackNES-Light</title>
    <desc>Created with Sketch.</desc>
    <g id="RackNES-Light" stroke="none" stroke-width="1" fill="none" fill-rule="evenodd">
        <g id="bg">
            <rect id="Background" fill="#DCDCDC" fill-rule="nonzero" x="0" y="0" width="570" height="380"></rect>
            <g id="Logo/Panel/LightMode" transform="translate(254.000000, 364.000000)" fill="#000000" fill-rule="nonzero">
                <g id="Logo/Print/LightMode" transform="translate(0.000000, -0.000000)">
                    <path d="M1.95775432,2.18314699 L3.38562168,2.18314699 L3.38562168,4.8949551 L6.06699634,2.18314699 L7.94254488,2.18314699 L5.09623504,4.8949551 L8.08863032,8.76832845 L6.22250665,8.76832845 L4.0783494,5.89122067 L3.38562168,6.56582203 L3.38562168,8.76832845 L1.95775432,8.76832845 L1.95775432,2.18314699 Z M11.6276679,6.40052236 C11.5428437,6.45115495 11.4572353,6.49210716 11.3708403,6.52338022 C11.2844452,6.55465329 11.1658502,6.58369213 11.0150515,6.61049762 L10.7134558,6.66410832 C10.4307084,6.71176252 10.2280757,6.7698402 10.1055519,6.83834311 C9.89820375,6.95450021 9.79453125,7.13468994 9.79453125,7.37891771 C9.79453125,7.59633998 9.85814847,7.75344755 9.98538481,7.85024514 C10.1126211,7.94704273 10.2673445,7.9954408 10.4495595,7.9954408 C10.7385902,7.9954408 11.00484,7.91502555 11.248317,7.75419263 C11.4917939,7.59335972 11.618243,7.29999297 11.6276679,6.87408358 L11.6276679,6.40052236 Z M10.8124169,5.80633706 C11.0606051,5.77655319 11.2381062,5.7393239 11.3449219,5.69464809 C11.5365618,5.61721002 11.6323803,5.49658715 11.6323803,5.33277584 C11.6323803,5.13322389 11.5593383,4.99547554 11.4132522,4.91952667 C11.267166,4.84357779 11.0527524,4.80560392 10.770005,4.80560392 C10.4526995,4.80560392 10.2280758,4.88006249 10.096127,5.02898185 C10.0018779,5.13918219 9.93904603,5.28809932 9.90762965,5.47573772 L8.61171044,5.47573772 C8.63998518,5.04982833 8.76564882,4.69987307 8.98870512,4.42586144 C9.34371022,3.99697366 9.95317886,3.78253299 10.8171293,3.78253299 C11.3794825,3.78253299 11.8789955,3.88826416 12.3156832,4.09972966 C12.7523709,4.31119516 12.9707114,4.71029307 12.9707114,5.29703537 L12.9707114,7.5308147 C12.9707114,7.68569084 12.973853,7.87332643 12.9801363,8.09372709 C12.9895612,8.26051678 13.0162647,8.3736938 13.0602477,8.43326155 C13.1042306,8.49282929 13.170204,8.54197195 13.2581699,8.58069098 L13.2581699,8.76832845 L11.7973155,8.76832845 C11.7564742,8.67004166 11.7281999,8.57771304 11.7124917,8.49133981 C11.6967835,8.40496658 11.6842171,8.30668127 11.6747922,8.19648094 C11.4894356,8.38709773 11.2758074,8.5494174 11.0339013,8.68344483 C10.7448706,8.84129936 10.4181451,8.92022544 10.0537151,8.92022544 C9.58875266,8.92022544 9.20469317,8.79439046 8.9015251,8.54271673 C8.59835703,8.291043 8.44677527,7.93438647 8.44677527,7.47273644 C8.44677527,6.87408058 8.69024856,6.44073173 9.17720246,6.17267687 C9.44424169,6.02673589 9.83694056,5.9224939 10.3553108,5.85994776 L10.8124169,5.80633706 Z M15.5012882,3.89868952 L15.5012882,6.83387555 C15.5012882,7.11086557 15.5358457,7.31934956 15.6049618,7.45933376 C15.7274857,7.70653991 15.9678174,7.83014113 16.3259641,7.83014113 C16.7846433,7.83014113 17.0988023,7.65441891 17.2684508,7.30296921 C17.3564167,7.11235242 17.4003989,6.86068247 17.4003989,6.5479518 L17.4003989,3.89868952 L18.7622922,3.89868952 L18.7622922,8.76832845 L17.4569481,8.76832845 L17.4569481,8.08032441 L17.4405489,8.10176866 C17.4238355,8.12470204 17.3978858,8.16222939 17.3626995,8.21435117 C17.3124333,8.28881086 17.252743,8.35433439 17.183627,8.41092375 C16.9731372,8.58962699 16.7697192,8.71173904 16.5733669,8.77726356 C16.3770145,8.84278808 16.1468929,8.87554985 15.8829953,8.87554985 C15.1227189,8.87554985 14.6106396,8.61643404 14.346742,8.09819465 C14.199085,7.81226946 14.1252576,7.39083398 14.1252576,6.83387555 L14.1252576,3.89868952 L15.5012882,3.89868952 Z M19.5304189,4.85027951 L19.5304189,3.9433651 L20.2467088,3.9433651 L20.2467088,2.58522727 L21.575615,2.58522727 L21.575615,3.9433651 L22.4097158,3.9433651 L22.4097158,4.85027951 L21.575615,4.85027951 L21.575615,7.42359329 C21.575615,7.62314524 21.6023185,7.74749105 21.6557264,7.79663444 C21.7091342,7.84577783 21.872497,7.87034916 22.1458195,7.87034916 C22.1866608,7.87034916 22.2298577,7.86960457 22.2754114,7.86811538 C22.3209652,7.86662618 22.3657328,7.86439243 22.4097158,7.86141404 L22.4097158,8.81300403 L21.7735372,8.83534183 C21.1389263,8.85619054 20.7053868,8.75194854 20.4729056,8.52261272 C20.322107,8.37667174 20.2467088,8.15180687 20.2467088,7.84801136 L20.2467088,4.85027951 L19.5304189,4.85027951 Z M25.2984375,4.8190066 C24.9874153,4.8190066 24.7462982,4.91133522 24.575079,5.09599523 C24.4038597,5.28065525 24.2962602,5.53083603 24.2522773,5.84654509 L26.3398853,5.84654509 C26.3178938,5.50998732 26.2102944,5.25459444 26.0170836,5.08035878 C25.8238729,4.90612312 25.5843266,4.8190066 25.2984375,4.8190066 Z M25.2984375,3.76913032 C25.7257003,3.76913032 26.1105452,3.84507805 26.4529837,3.99697581 C26.7954223,4.14887356 27.0781654,4.38863014 27.3012217,4.71625275 C27.5022866,5.00515632 27.6326626,5.34021987 27.6923537,5.72145345 C27.7269117,5.9448325 27.7410489,6.2664935 27.7347656,6.68644611 L24.2192902,6.68644611 C24.2381401,7.17490164 24.399932,7.51741104 24.7046709,7.7139846 C24.8900275,7.83609848 25.1130805,7.89715451 25.3738364,7.89715451 C25.6503006,7.89715451 25.8749243,7.82269594 26.0477144,7.67377658 C26.1419636,7.59336012 26.2252157,7.48167227 26.2974734,7.33870968 L27.6687916,7.33870968 C27.6342335,7.62761325 27.4755832,7.92098 27.1928358,8.21881873 C26.7530064,8.69238232 26.1372546,8.92916056 25.3455618,8.92916056 C24.6921011,8.92916056 24.1156192,8.7296116 23.6160987,8.3305077 C23.1165783,7.9314038 22.8668218,7.2821251 22.8668218,6.38265213 C22.8668218,5.53976851 23.092231,4.89346816 23.543056,4.44373167 C23.9938811,3.99399519 24.5790024,3.76913032 25.2984375,3.76913032 Z M31.4858627,3.78253299 C32.0167995,3.78253299 32.4511245,3.91432465 32.7888506,4.17791193 C33.1265767,4.44149921 33.2954372,4.87857099 33.2954372,5.4891404 L33.2954372,8.76832845 L31.9194066,8.76832845 L31.9194066,5.80633706 C31.9194066,5.55019575 31.8832783,5.35362514 31.8110206,5.21661932 C31.6790718,4.96643478 31.4277445,4.84134439 31.0570313,4.84134439 C30.6014937,4.84134439 30.2889054,5.02451246 30.119257,5.39085411 C30.0312911,5.58444928 29.9873088,5.83165172 29.9873088,6.13246884 L29.9873088,8.76832845 L28.6489777,8.76832845 L28.6489777,3.90762463 L29.9448969,3.90762463 L29.9448969,4.61796646 C30.117687,4.36778192 30.2810498,4.18759219 30.43499,4.07739186 C30.7114542,3.8808183 31.0617416,3.78253299 31.4858627,3.78253299 Z M35.9391124,3.31790689 L34.5960688,3.31790689 L34.5960688,2.14293897 L35.9391124,2.14293897 L35.9391124,3.31790689 Z M33.9504654,10.7206516 L33.9504654,9.7020482 L34.0978762,9.71255395 L34.0978762,9.71255395 L34.1106882,9.7132171 C34.1421045,9.71470629 34.1703789,9.71545088 34.195512,9.71545088 C34.3274608,9.71545088 34.4272063,9.68492287 34.4947515,9.62386593 C34.5622967,9.56280899 34.5960688,9.44441987 34.5960688,9.26869501 L34.5960688,3.92102731 L35.9391124,3.92102731 L35.9391124,9.29103281 C35.9391124,9.78246672 35.8370107,10.1458245 35.6328042,10.3811171 C35.435185,10.6088196 35.0536827,10.7263419 34.4882863,10.733687 L34.4311336,10.7340543 C34.4077958,10.7340543 34.3780467,10.733568 34.341886,10.7325955 L34.0479841,10.7232045 C34.0170809,10.7223535 33.9845746,10.7215025 33.9504654,10.7206516 Z M40.0483544,6.40052236 C39.9635302,6.45115495 39.8779218,6.49210716 39.7915268,6.52338022 C39.7051317,6.55465329 39.5865367,6.58369213 39.435738,6.61049762 L39.1341423,6.66410832 C38.8513949,6.71176252 38.6487622,6.7698402 38.5262384,6.83834311 C38.3188903,6.95450021 38.2152178,7.13468994 38.2152178,7.37891771 C38.2152178,7.59633998 38.278835,7.75344755 38.4060713,7.85024514 C38.5333077,7.94704273 38.688031,7.9954408 38.870246,7.9954408 C39.1592767,7.9954408 39.4255265,7.91502555 39.6690035,7.75419263 C39.9124804,7.59335972 40.0389295,7.29999297 40.0483544,6.87408358 L40.0483544,6.40052236 Z M39.2331034,5.80633706 C39.4812916,5.77655319 39.6587927,5.7393239 39.7656084,5.69464809 C39.9572483,5.61721002 40.0530668,5.49658715 40.0530668,5.33277584 C40.0530668,5.13322389 39.9800248,4.99547554 39.8339387,4.91952667 C39.6878525,4.84357779 39.4734389,4.80560392 39.1906915,4.80560392 C38.873386,4.80560392 38.6487623,4.88006249 38.5168135,5.02898185 C38.4225644,5.13918219 38.3597325,5.28809932 38.3283162,5.47573772 L37.0323969,5.47573772 C37.0606717,5.04982833 37.1863353,4.69987307 37.4093916,4.42586144 C37.7643967,3.99697366 38.3738654,3.78253299 39.2378158,3.78253299 C39.800169,3.78253299 40.299682,3.88826416 40.7363697,4.09972966 C41.1730574,4.31119516 41.3913979,4.71029307 41.3913979,5.29703537 L41.3913979,7.5308147 C41.3913979,7.68569084 41.3945395,7.87332643 41.4008228,8.09372709 C41.4102477,8.26051678 41.4369512,8.3736938 41.4809342,8.43326155 C41.5249171,8.49282929 41.5908905,8.54197195 41.6788564,8.58069098 L41.6788564,8.76832845 L40.218002,8.76832845 C40.1771607,8.67004166 40.1488864,8.57771304 40.1331782,8.49133981 C40.11747,8.40496658 40.1049036,8.30668127 40.0954787,8.19648094 C39.9101221,8.38709773 39.6964939,8.5494174 39.4545878,8.68344483 C39.1655571,8.84129936 38.8388316,8.92022544 38.4744016,8.92022544 C38.0094392,8.92022544 37.6253797,8.79439046 37.3222116,8.54271673 C37.0190435,8.291043 36.8674618,7.93438647 36.8674618,7.47273644 C36.8674618,6.87408058 37.1109351,6.44073173 37.597889,6.17267687 C37.8649282,6.02673589 38.2576271,5.9224939 38.7759973,5.85994776 L39.2331034,5.80633706 Z M44.1010472,3.32684201 L44.1010472,7.62463343 L45.4393783,7.62463343 C46.1242554,7.62463343 46.6017772,7.3044616 46.8719581,6.66410832 C47.0196151,6.31265862 47.0934425,5.89420147 47.0934425,5.40872434 C47.0934425,4.73858719 46.9827014,4.2240785 46.7612159,3.86518283 C46.5397304,3.50628715 46.0991223,3.32684201 45.4393783,3.32684201 L44.1010472,3.32684201 Z M45.6844249,2.18314699 C46.1148293,2.18910377 46.4729706,2.23675725 46.7588597,2.32610887 C47.2458136,2.47800662 47.6400833,2.75648166 47.9416805,3.16154234 C48.1835866,3.48916494 48.3485202,3.84358772 48.436486,4.2248213 C48.5244519,4.60605488 48.5684342,4.96941268 48.5684342,5.31490561 C48.5684342,6.19055148 48.3830803,6.9321588 48.012367,7.53974982 C47.5097049,8.35880633 46.733732,8.76832845 45.6844249,8.76832845 L42.6920296,8.76832845 L42.6920296,2.18314699 L45.6844249,2.18314699 Z M50.7125914,6.73558926 C50.7565744,7.03640638 50.8429681,7.26127125 50.9717753,7.41019062 C51.2073981,7.68122386 51.6110926,7.81673845 52.1828707,7.81673845 C52.5253092,7.81673845 52.80334,7.78099834 53.0169714,7.70951705 C53.4222427,7.57251123 53.6248753,7.31786293 53.6248753,6.94556452 C53.6248753,6.72814224 53.5243444,6.55986588 53.3232796,6.44073039 C53.132268,6.33038114 52.8377712,6.23212925 52.4397811,6.14597209 L51.6409408,5.97610429 C50.9183641,5.82122815 50.4188511,5.65295179 50.142387,5.47127016 C49.6742829,5.16747465 49.4402344,4.692429 49.4402344,4.04611895 C49.4402344,3.45639826 49.6664289,2.9664609 50.1188248,2.57629216 C50.5712207,2.18612342 51.2356672,1.99104197 52.1121842,1.99104197 C52.8441858,1.99104197 53.468577,2.17495463 53.9853765,2.54278547 C54.502176,2.9106163 54.7731382,3.44448422 54.7982713,4.14440524 L53.403391,4.14440524 C53.3782579,3.74827973 53.1960456,3.46682635 52.8567487,3.30003666 C52.6305507,3.18983633 52.3493783,3.13473699 52.0132231,3.13473699 C51.6393681,3.13473699 51.340917,3.20621721 51.1178607,3.3491798 C50.8948044,3.49214239 50.7832779,3.69169135 50.7832779,3.94783266 C50.7832779,4.17243014 50.8834648,4.34274965 51.0838415,4.45879577 L51.1131483,4.47500458 C51.248867,4.54934513 51.5322436,4.63603639 51.9632861,4.73508077 L53.2148936,5.02004674 C53.7395472,5.13918223 54.1353876,5.29852356 54.4024269,5.49807551 C54.8171231,5.8078278 55.0244681,6.25606836 55.0244681,6.84281067 C55.0244681,7.44444491 54.7817802,7.94406189 54.2963971,8.34167659 C53.811014,8.7392913 53.1253618,8.93809567 52.2394199,8.93809567 C51.3346281,8.93809567 50.6230578,8.74226965 50.1046875,8.35061171 C49.5863172,7.95895378 49.327136,7.42061834 49.327136,6.73558926 L50.7125914,6.73558926 Z M60.0102227,4.278432 C60.0102227,3.93591746 59.9151896,3.69169336 59.7251205,3.54575238 C59.5350514,3.3998114 59.2688016,3.32684201 58.926363,3.32684201 L57.5738946,3.32684201 L57.5738946,5.26576246 L58.926363,5.26576246 C59.2688016,5.26576246 59.5350514,5.18683638 59.7251205,5.02898185 C59.9151896,4.87112733 60.0102227,4.62094654 60.0102227,4.278432 Z M61.447515,4.26949688 C61.447515,5.04685598 61.24017,5.5963602 60.8254737,5.91802603 C60.4107775,6.23969186 59.8185876,6.40052236 59.0488863,6.40052236 L57.5738946,6.40052236 L57.5738946,8.76832845 L56.13189,8.76832845 L56.13189,2.18314699 L59.1572723,2.18314699 C59.8547159,2.18314699 60.4107775,2.35291253 60.8254737,2.69244868 C61.24017,3.03198484 61.447515,3.55766231 61.447515,4.26949688 Z" id="KautenjaDSP"></path>
                </g>
            </g>
            <path d="M248.671875,7.5546875 L255.703125,7.5546875 L255.703125,5.796875 L248.671875,5.796875 L248.671875,7.5546875 Z M248.671875,9.8984375 L248.671875,14 L246.328125,14 L246.328125,3.453125 L254.53125,3.453125 C256.875012,3.453125 258.046875,4.5234268 258.046875,6.6640625 C258.046875,7.67969258 257.878908,8.42577887 257.542969,8.90234375 C257.878908,9.45703402 258.046875,10.179683 258.046875,11.0703125 L258.046875,14 L255.703125,14 L255.703125,11.0703125 C255.703125,10.2890586 255.312504,9.8984375 254.53125,9.8984375 L248.671875,9.8984375 Z M265.46875,10.484375 L265.46875,9.3125 C265.46875,8.79166406 265.208336,8.53125 264.6875,8.53125 L261.5625,8.53125 C261.041664,8.53125 260.78125,8.79166406 260.78125,9.3125 L260.78125,10.484375 L265.46875,10.484375 Z M260.78125,12.046875 L260.78125,14 L259.21875,14 L259.21875,9.3125 C259.21875,7.74999219 259.999992,6.96875 261.5625,6.96875 L264.6875,6.96875 C266.250008,6.96875 267.03125,7.74999219 267.03125,9.3125 L267.03125,14 L265.46875,14 L265.46875,12.046875 L260.78125,12.046875 Z M275.625,14 L270.15625,14 C268.593742,14 267.8125,13.2187578 267.8125,11.65625 L267.8125,9.3125 C267.8125,7.74999219 268.593742,6.96875 270.15625,6.96875 L275.625,6.96875 L275.625,8.53125 L270.15625,8.53125 C269.635414,8.53125 269.375,8.79166406 269.375,9.3125 L269.375,11.65625 C269.375,12.1770859 269.635414,12.4375 270.15625,12.4375 L275.625,12.4375 L275.625,14 Z M277.96875,11.265625 L277.96875,14 L276.40625,14 L276.40625,6.96875 L277.96875,6.96875 L277.96875,9.703125 L281.875,9.703125 C282.395836,9.703125 282.65625,9.44271094 282.65625,8.921875 L282.65625,6.96875 L284.21875,6.96875 L284.21875,8.921875 C284.21875,9.58333664 284.078126,10.1041648 283.796875,10.484375 C284.078126,10.8645852 284.21875,11.3854134 284.21875,12.046875 L284.21875,14 L282.65625,14 L282.65625,12.046875 C282.65625,11.5260391 282.395836,11.265625 281.875,11.265625 L277.96875,11.265625 Z M285,14 L285,3.453125 L293.203125,3.453125 C295.546887,3.453125 296.71875,4.62498828 296.71875,6.96875 L296.71875,14 L294.375,14 L294.375,6.96875 C294.375,6.18749609 293.984379,5.796875 293.203125,5.796875 L287.34375,5.796875 L287.34375,14 L285,14 Z M309.609375,14 L301.40625,14 C299.062488,14 297.890625,12.8281367 297.890625,10.484375 L297.890625,3.453125 L309.609375,3.453125 L309.609375,5.796875 L300.234375,5.796875 L300.234375,7.5546875 L309.609375,7.5546875 L309.609375,9.8984375 L300.234375,9.8984375 L300.234375,10.484375 C300.234375,11.2656289 300.624996,11.65625 301.40625,11.65625 L309.609375,11.65625 L309.609375,14 Z M310.78125,14 L310.78125,11.65625 L320.15625,11.65625 L320.15625,9.8984375 L314.296875,9.8984375 C311.953113,9.8984375 310.78125,8.83985434 310.78125,6.72265625 C310.78125,4.54295785 311.953113,3.453125 314.296875,3.453125 L322.5,3.453125 L322.5,5.796875 L313.125,5.796875 L313.125,7.5546875 L318.984375,7.5546875 C321.328137,7.5546875 322.5,8.62889551 322.5,10.7773438 C322.5,12.925792 321.328137,14 318.984375,14 L310.78125,14 Z" id="RackNES" fill="#FF0000" fill-rule="nonzero"></path>
            <rect id="Screen" fill="#000000" x="157" y="18" width="256" height="240"></rect>
        </g>
        <g id="player2" transform="translate(514.000000, 190.000000) scale(-1, 1) translate(-514.000000, -190.000000) translate(458.000000, 0.000000)">
            <g id="bg">
                <rect id="inner" fill="#1A1A1A" x="9" y="0" width="91" height="380"></rect>
                <g id="button-bgs" transform="translate(17.000000, 9.000000)">
                    <rect id="Rectangle" fill="#FFFFFF" x="0" y="3.55271368e-14" width="76" height="40" rx="5"></rect>
                    <rect id="Rectangle" fill="#FFFFFF" x="0" y="46" width="76" height="40" rx="5"></rect>
                    <rect id="Rectangle" fill="#FFFFFF" x="0" y="92" width="76" height="40" rx="5"></rect>
                    <rect id="Rectangle" fill="#FFFFFF" x="0" y="138" width="76" height="40" rx="5"></rect>
                    <rect id="Rectangle" fill="#808080" x="0" y="184" width="76" height="40" rx="5"></rect>
                    <rect id="Rectangle" fill="#808080" x="0" y="230" width="76" height="40" rx="5"></rect>
                    <rect id="Rectangle" fill="#DDDDDD" x="0" y="276" width="76" height="40" rx="5"></rect>
                    <rect id="Rectangle" fill="#DDDDDD" x="0" y="322" width="76" height="40" rx="5"></rect>
                </g>
                <g id="arrows" transform="translate(41.000000, 13.000000)" fill="#CECECE">
                    <polygon id="Triangle" points="16.5 0 33 33 0 33"></polygon>
                    <polygon id="Triangle-Copy-2" transform="translate(16.500000, 110.500000) rotate(-90.000000) translate(-16.500000, -110.500000) " points="16.5 94 33 127 0 127"></polygon>
                    <polygon id="Triangle-Copy-3" transform="translate(16.500000, 154.500000) rotate(-270.000000) translate(-16.500000, -154.500000) " points="16.5 138 33 171 0 171"></polygon>
                    <polygon id="Triangle-Copy" transform="translate(16.500000, 63.500000) scale(1, -1) translate(-16.500000, -63.500000) " points="16.5 47 33 80 0 80"></polygon>
                </g>
                <g id="text" transform="translate(45.000000, 10.000000)" fill-rule="nonzero">
                    <path d="M23.3333333,7 L23.3333333,2 L24.3333333,2 L24.3333333,7 L23.3333333,7 Z M24.3333333,8 L24.3333333,7 L26.3333333,7 L26.3333333,6 L27.3333333,6 L27.3333333,2 L29.3333333,2 L29.3333333,7 L28.3333333,7 L28.3333333,8 L24.3333333,8 Z M34,5 L34,3 L32,3 L32,5 L34,5 Z M30,8 L30,2 L35,2 L35,3 L36,3 L36,5 L35,5 L35,6 L32,6 L32,8 L30,8 Z" id="UP" fill="#FF0000" transform="translate(29.666667, 5.000000) scale(-1, 1) translate(-29.666667, -5.000000) "></path>
                    <path d="M18.6666667,53 L18.6666667,49 L16.6666667,49 L16.6666667,53 L18.6666667,53 Z M15.6666667,54 L15.6666667,48 L20.6666667,48 L20.6666667,49 L21.6666667,49 L21.6666667,53 L20.6666667,53 L20.6666667,54 L15.6666667,54 Z M26.3333333,53 L26.3333333,49 L24.3333333,49 L24.3333333,53 L26.3333333,53 Z M23.3333333,54 L23.3333333,53 L22.3333333,53 L22.3333333,49 L23.3333333,49 L23.3333333,48 L27.3333333,48 L27.3333333,49 L28.3333333,49 L28.3333333,53 L27.3333333,53 L27.3333333,54 L23.3333333,54 Z M29,54 L29,48 L30,48 L30,51 L31,51 L31,50 L32,50 L32,51 L33,51 L33,48 L35,48 L35,54 L33,54 L33,53 L32,53 L32,52 L31,52 L31,53 L30,53 L30,54 L29,54 Z M35.6666667,54 L35.6666667,48 L36.6666667,48 L36.6666667,49 L37.6666667,49 L37.6666667,50 L38.6666667,50 L38.6666667,51 L39.6666667,51 L39.6666667,48 L41.6666667,48 L41.6666667,54 L39.6666667,54 L39.6666667,53 L38.6666667,53 L38.6666667,52 L37.6666667,52 L37.6666667,51 L36.6666667,51 L36.6666667,54 L35.6666667,54 Z" id="DOWN" fill="#FF0000" transform="translate(28.666667, 51.000000) scale(-1, 1) translate(-28.666667, -51.000000) "></path>
                    <path d="M16.6666667,100 L16.6666667,94 L18.6666667,94 L18.6666667,99 L22.6666667,99 L22.6666667,100 L16.6666667,100 Z M23.3333333,100 L23.3333333,94 L29.3333333,94 L29.3333333,95 L25.3333333,95 L25.3333333,96 L28.3333333,96 L28.3333333,97 L25.3333333,97 L25.3333333,99 L29.3333333,99 L29.3333333,100 L23.3333333,100 Z M30,100 L30,94 L36,94 L36,95 L32,95 L32,97 L35,97 L35,98 L32,98 L32,100 L30,100 Z M38.6666667,100 L38.6666667,95 L36.6666667,95 L36.6666667,94 L42.6666667,94 L42.6666667,95 L40.6666667,95 L40.6666667,100 L38.6666667,100 Z" id="LEFT" fill="#FF0000" transform="translate(29.666667, 97.000000) scale(-1, 1) translate(-29.666667, -97.000000) "></path>
                    <path d="M15.3333333,146 L15.3333333,145 L17.3333333,145 L17.3333333,146 L15.3333333,146 Z M15.3333333,143 L15.3333333,141 L13.3333333,141 L13.3333333,143 L15.3333333,143 Z M11.3333333,146 L11.3333333,140 L16.3333333,140 L16.3333333,141 L17.3333333,141 L17.3333333,143 L16.3333333,143 L16.3333333,144 L15.3333333,144 L15.3333333,145 L14.3333333,145 L14.3333333,144 L13.3333333,144 L13.3333333,146 L11.3333333,146 Z M19,146 L19,145 L20,145 L20,141 L19,141 L19,140 L23,140 L23,141 L22,141 L22,145 L23,145 L23,146 L19,146 Z M25.6666667,146 L25.6666667,145 L24.6666667,145 L24.6666667,141 L25.6666667,141 L25.6666667,140 L29.6666667,140 L29.6666667,141 L30.6666667,141 L30.6666667,142 L28.6666667,142 L28.6666667,141 L26.6666667,141 L26.6666667,145 L28.6666667,145 L28.6666667,144 L27.6666667,144 L27.6666667,143 L30.6666667,143 L30.6666667,146 L25.6666667,146 Z M31.3333333,146 L31.3333333,140 L32.3333333,140 L32.3333333,142 L35.3333333,142 L35.3333333,140 L37.3333333,140 L37.3333333,146 L35.3333333,146 L35.3333333,143 L32.3333333,143 L32.3333333,146 L31.3333333,146 Z M40,146 L40,141 L38,141 L38,140 L44,140 L44,141 L42,141 L42,146 L40,146 Z" id="RIGHT" fill="#FF0000" transform="translate(27.666667, 143.000000) scale(-1, 1) translate(-27.666667, -143.000000) "></path>
                    <path d="M7,191 L7,190 L8,190 L8,191 L7,191 Z M8,192 L8,191 L10,191 L10,189 L8,189 L8,188 L7,188 L7,187 L8,187 L8,186 L12,186 L12,187 L9,187 L9,188 L12,188 L12,189 L13,189 L13,191 L12,191 L12,192 L8,192 Z M13.6666667,192 L13.6666667,186 L19.6666667,186 L19.6666667,187 L15.6666667,187 L15.6666667,188 L18.6666667,188 L18.6666667,189 L15.6666667,189 L15.6666667,191 L19.6666667,191 L19.6666667,192 L13.6666667,192 Z M20.3333333,192 L20.3333333,186 L22.3333333,186 L22.3333333,191 L26.3333333,191 L26.3333333,192 L20.3333333,192 Z M27,192 L27,186 L33,186 L33,187 L29,187 L29,188 L32,188 L32,189 L29,189 L29,191 L33,191 L33,192 L27,192 Z M34.6666667,192 L34.6666667,191 L33.6666667,191 L33.6666667,187 L34.6666667,187 L34.6666667,186 L38.6666667,186 L38.6666667,187 L39.6666667,187 L39.6666667,188 L37.6666667,188 L37.6666667,187 L35.6666667,187 L35.6666667,191 L37.6666667,191 L37.6666667,190 L39.6666667,190 L39.6666667,191 L38.6666667,191 L38.6666667,192 L34.6666667,192 Z M42.3333333,192 L42.3333333,187 L40.3333333,187 L40.3333333,186 L46.3333333,186 L46.3333333,187 L44.3333333,187 L44.3333333,192 L42.3333333,192 Z" id="SELECT" fill="#1A1A1A" transform="translate(26.666667, 189.000000) scale(-1, 1) translate(-26.666667, -189.000000) "></path>
                    <path d="M11.8333333,237 L11.8333333,236 L12.8333333,236 L12.8333333,237 L11.8333333,237 Z M12.8333333,238 L12.8333333,237 L14.8333333,237 L14.8333333,235 L12.8333333,235 L12.8333333,234 L11.8333333,234 L11.8333333,233 L12.8333333,233 L12.8333333,232 L16.8333333,232 L16.8333333,233 L13.8333333,233 L13.8333333,234 L16.8333333,234 L16.8333333,235 L17.8333333,235 L17.8333333,237 L16.8333333,237 L16.8333333,238 L12.8333333,238 Z M20.5,238 L20.5,233 L18.5,233 L18.5,232 L24.5,232 L24.5,233 L22.5,233 L22.5,238 L20.5,238 Z M25.1666667,238 L25.1666667,233 L26.1666667,233 L26.1666667,235 L28.1666667,235 L28.1666667,233 L26.1666667,233 L26.1666667,232 L30.1666667,232 L30.1666667,233 L31.1666667,233 L31.1666667,238 L28.1666667,238 L28.1666667,236 L26.1666667,236 L26.1666667,238 L25.1666667,238 Z M35.8333333,238 L35.8333333,237 L37.8333333,237 L37.8333333,238 L35.8333333,238 Z M35.8333333,235 L35.8333333,233 L33.8333333,233 L33.8333333,235 L35.8333333,235 Z M31.8333333,238 L31.8333333,232 L36.8333333,232 L36.8333333,233 L37.8333333,233 L37.8333333,235 L36.8333333,235 L36.8333333,236 L35.8333333,236 L35.8333333,237 L34.8333333,237 L34.8333333,236 L33.8333333,236 L33.8333333,238 L31.8333333,238 Z M40.5,238 L40.5,233 L38.5,233 L38.5,232 L44.5,232 L44.5,233 L42.5,233 L42.5,238 L40.5,238 Z" id="START" fill="#1A1A1A" transform="translate(28.166667, 235.000000) scale(-1, 1) translate(-28.166667, -235.000000) "></path>
                    <path d="M16.8,311 L16.8,307 L12.8,307 L12.8,311 L16.8,311 Z M16.8,305 L16.8,303 L12.8,303 L12.8,305 L16.8,305 Z M8.8,313 L8.8,301 L18.8,301 L18.8,303 L20.8,303 L20.8,305 L18.8,305 L18.8,307 L20.8,307 L20.8,311 L18.8,311 L18.8,313 L8.8,313 Z" id="B" fill="#FF0000" transform="translate(14.800000, 307.000000) scale(-1, 1) translate(-14.800000, -307.000000) "></path>
                    <polygon id="A" fill="#FF0000" transform="translate(14.800000, 353.000000) scale(-1, 1) translate(-14.800000, -353.000000) " points="8.8 359 8.8 349 10.8 349 10.8 353 14.8 353 14.8 349 10.8 349 10.8 347 18.8 347 18.8 349 20.8 349 20.8 359 14.8 359 14.8 355 10.8 355 10.8 359"></polygon>
                </g>
            </g>
        </g>
        <g id="console-control" transform="translate(416.000000, 35.000000)">
            <g id="bg">
                <g id="Save">
                    <rect id="Rectangle" fill="#808080" x="0" y="0" width="51" height="40" rx="5"></rect>
                    <path d="M2,9 L2,8 L3,8 L3,9 L2,9 Z M3,10 L3,9 L5,9 L5,7 L3,7 L3,6 L2,6 L2,5 L3,5 L3,4 L7,4 L7,5 L4,5 L4,6 L7,6 L7,7 L8,7 L8,9 L7,9 L7,10 L3,10 Z M9,10 L9,5 L10,5 L10,7 L12,7 L12,5 L10,5 L10,4 L14,4 L14,5 L15,5 L15,10 L12,10 L12,8 L10,8 L10,10 L9,10 Z M17,9 L17,8 L18,8 L18,9 L17,9 Z M16,8 L16,4 L17,4 L17,8 L16,8 Z M18,10 L18,9 L19,9 L19,8 L20,8 L20,4 L22,4 L22,8 L21,8 L21,9 L20,9 L20,10 L18,10 Z M23,10 L23,4 L29,4 L29,5 L25,5 L25,6 L28,6 L28,7 L25,7 L25,9 L29,9 L29,10 L23,10 Z" id="SAVE" fill="#000000" fill-rule="nonzero"></path>
                </g>
                <g id="Load" transform="translate(0.000000, 55.000000)">
                    <rect id="Rectangle" fill="#808080" x="0" y="0" width="51" height="40" rx="5"></rect>
                    <path d="M2,10 L2,4 L4,4 L4,9 L8,9 L8,10 L2,10 Z M13,9 L13,5 L11,5 L11,9 L13,9 Z M10,10 L10,9 L9,9 L9,5 L10,5 L10,4 L14,4 L14,5 L15,5 L15,9 L14,9 L14,10 L10,10 Z M16,10 L16,5 L17,5 L17,7 L19,7 L19,5 L17,5 L17,4 L21,4 L21,5 L22,5 L22,10 L19,10 L19,8 L17,8 L17,10 L16,10 Z M26,9 L26,5 L24,5 L24,9 L26,9 Z M23,10 L23,4 L28,4 L28,5 L29,5 L29,9 L28,9 L28,10 L23,10 Z" id="LOAD" fill="#000000" fill-rule="nonzero"></path>
                </g>
                <g id="Hang" transform="translate(0.000000, 110.000000)">
                    <rect id="Rectangle" fill="#808080" x="0" y="0" width="51" height="40" rx="5"></rect>
                    <path d="M2,10 L2,4 L3,4 L3,6 L6,6 L6,4 L8,4 L8,10 L6,10 L6,7 L3,7 L3,10 L2,10 Z M9,10 L9,5 L10,5 L10,7 L12,7 L12,5 L10,5 L10,4 L14,4 L14,5 L15,5 L15,10 L12,10 L12,8 L10,8 L10,10 L9,10 Z M16,10 L16,4 L17,4 L17,5 L18,5 L18,6 L19,6 L19,7 L20,7 L20,4 L22,4 L22,10 L20,10 L20,9 L19,9 L19,8 L18,8 L18,7 L17,7 L17,10 L16,10 Z M24,10 L24,9 L23,9 L23,5 L24,5 L24,4 L28,4 L28,5 L29,5 L29,6 L27,6 L27,5 L25,5 L25,9 L27,9 L27,8 L26,8 L26,7 L29,7 L29,10 L24,10 Z" id="HANG" fill="#000000" fill-rule="nonzero"></path>
                </g>
                <g id="Reset" transform="translate(0.000000, 165.000000)">
                    <rect id="Rectangle" fill="#808080" x="0" y="0" width="51" height="40" rx="5"></rect>
                    <path d="M6,10 L6,9 L8,9 L8,10 L6,10 Z M6,7 L6,5 L4,5 L4,7 L6,7 Z M2,10 L2,4 L7,4 L7,5 L8,5 L8,7 L7,7 L7,8 L6,8 L6,9 L5,9 L5,8 L4,8 L4,10 L2,10 Z M9,10 L9,4 L15,4 L15,5 L11,5 L11,6 L14,6 L14,7 L11,7 L11,9 L15,9 L15,10 L9,10 Z M16,9 L16,8 L17,8 L17,9 L16,9 Z M17,10 L17,9 L19,9 L19,7 L17,7 L17,6 L16,6 L16,5 L17,5 L17,4 L21,4 L21,5 L18,5 L18,6 L21,6 L21,7 L22,7 L22,9 L21,9 L21,10 L17,10 Z M23,10 L23,4 L29,4 L29,5 L25,5 L25,6 L28,6 L28,7 L25,7 L25,9 L29,9 L29,10 L23,10 Z M32,10 L32,5 L30,5 L30,4 L36,4 L36,5 L34,5 L34,10 L32,10 Z" id="RESET" fill="#000000" fill-rule="nonzero"></path>
                </g>
            </g>
        </g>
        <g id="mixer" transform="translate(159.000000, 266.000000)">
            <g id="bg">
                <line x1="16.5" y1="25.5" x2="234.5" y2="25.5" id="normal" stroke="#3E3E3E" stroke-width="3" stroke-linecap="round" stroke-linejoin="round" stroke-dasharray="0,4"></line>
                <g id="mix" transform="translate(220.000000, 0.000000)">
                    <rect id="Rectangle" fill="#1A1A1A" x="0" y="0" width="32" height="40" rx="5"></rect>
                    <line x1="16" y1="73" x2="16" y2="40" id="Line-5" stroke="#1A1A1A" stroke-width="2" stroke-linecap="square"></line>
                    <path d="M3.5,10 L3.5,2.5 L4.75,2.5 L4.75,3.75 L6,3.75 L6,5 L7.25,5 L7.25,3.75 L8.5,3.75 L8.5,2.5 L11,2.5 L11,10 L8.5,10 L8.5,6.25 L7.25,6.25 L7.25,7.5 L6,7.5 L6,6.25 L4.75,6.25 L4.75,10 L3.5,10 Z M13.75,10 L13.75,8.75 L15,8.75 L15,3.75 L13.75,3.75 L13.75,2.5 L18.75,2.5 L18.75,3.75 L17.5,3.75 L17.5,8.75 L18.75,8.75 L18.75,10 L13.75,10 Z M27.75,10 L27.75,8.75 L29,8.75 L29,10 L27.75,10 Z M26.5,8.75 L26.5,7.5 L27.75,7.5 L27.75,8.75 L26.5,8.75 Z M22.75,5 L22.75,3.75 L24,3.75 L24,5 L22.75,5 Z M21.5,3.75 L21.5,2.5 L22.75,2.5 L22.75,3.75 L21.5,3.75 Z M21.5,10 L21.5,7.5 L22.75,7.5 L22.75,6.25 L24,6.25 L24,5 L25.25,5 L25.25,3.75 L26.5,3.75 L26.5,2.5 L29,2.5 L29,3.75 L27.75,3.75 L27.75,5 L26.5,5 L26.5,7.5 L24,7.5 L24,8.75 L22.75,8.75 L22.75,10 L21.5,10 Z" id="MIX" fill="#DCDCDC" fill-rule="nonzero"></path>
                </g>
                <g id="DMC" transform="translate(176.000000, 0.000000)">
                    <rect id="Rectangle" fill="#1A1A1A" x="0" y="0" width="32" height="40" rx="5"></rect>
                    <line x1="16" y1="73" x2="16" y2="40" id="Line-5" stroke="#1A1A1A" stroke-width="2" stroke-linecap="square"></line>
                    <path d="M7.25,8.75 L7.25,3.75 L4.75,3.75 L4.75,8.75 L7.25,8.75 Z M3.5,10 L3.5,2.5 L9.75,2.5 L9.75,3.75 L11,3.75 L11,8.75 L9.75,8.75 L9.75,10 L3.5,10 Z M12.5,10 L12.5,2.5 L13.75,2.5 L13.75,3.75 L15,3.75 L15,5 L16.25,5 L16.25,3.75 L17.5,3.75 L17.5,2.5 L20,2.5 L20,10 L17.5,10 L17.5,6.25 L16.25,6.25 L16.25,7.5 L15,7.5 L15,6.25 L13.75,6.25 L13.75,10 L12.5,10 Z M22.75,10 L22.75,8.75 L21.5,8.75 L21.5,3.75 L22.75,3.75 L22.75,2.5 L27.75,2.5 L27.75,3.75 L29,3.75 L29,5 L26.5,5 L26.5,3.75 L24,3.75 L24,8.75 L26.5,8.75 L26.5,7.5 L29,7.5 L29,8.75 L27.75,8.75 L27.75,10 L22.75,10 Z" fill="#DCDCDC" fill-rule="nonzero"></path>
                </g>
                <g id="noise" transform="translate(132.000000, 0.000000)">
                    <rect id="Rectangle" fill="#1A1A1A" x="0" y="0" width="32" height="40" rx="5"></rect>
                    <line x1="16" y1="73" x2="16" y2="40" id="Line-5" stroke="#1A1A1A" stroke-width="2" stroke-linecap="square"></line>
                    <path d="M3.5,10 L3.5,2.5 L4.75,2.5 L4.75,3.75 L6,3.75 L6,5 L7.25,5 L7.25,6.25 L8.5,6.25 L8.5,2.5 L11,2.5 L11,10 L8.5,10 L8.5,8.75 L7.25,8.75 L7.25,7.5 L6,7.5 L6,6.25 L4.75,6.25 L4.75,10 L3.5,10 Z M17.5,8.75 L17.5,3.75 L15,3.75 L15,8.75 L17.5,8.75 Z M13.75,10 L13.75,8.75 L12.5,8.75 L12.5,3.75 L13.75,3.75 L13.75,2.5 L18.75,2.5 L18.75,3.75 L20,3.75 L20,8.75 L18.75,8.75 L18.75,10 L13.75,10 Z M22.75,10 L22.75,8.75 L24,8.75 L24,3.75 L22.75,3.75 L22.75,2.5 L27.75,2.5 L27.75,3.75 L26.5,3.75 L26.5,8.75 L27.75,8.75 L27.75,10 L22.75,10 Z" id="NOI" fill="#DCDCDC" fill-rule="nonzero"></path>
                </g>
                <g id="triangle" transform="translate(88.000000, 0.000000)">
                    <rect id="Rectangle" fill="#1A1A1A" x="0" y="0" width="32" height="40" rx="5"></rect>
                    <line x1="16" y1="73" x2="16" y2="40" id="Line-5" stroke="#1A1A1A" stroke-width="2" stroke-linecap="square"></line>
                    <path d="M6,10 L6,3.75 L3.5,3.75 L3.5,2.5 L11,2.5 L11,3.75 L8.5,3.75 L8.5,10 L6,10 Z M17.5,10 L17.5,8.75 L20,8.75 L20,10 L17.5,10 Z M17.5,6.25 L17.5,3.75 L15,3.75 L15,6.25 L17.5,6.25 Z M12.5,10 L12.5,2.5 L18.75,2.5 L18.75,3.75 L20,3.75 L20,6.25 L18.75,6.25 L18.75,7.5 L17.5,7.5 L17.5,8.75 L16.25,8.75 L16.25,7.5 L15,7.5 L15,10 L12.5,10 Z M22.75,10 L22.75,8.75 L24,8.75 L24,3.75 L22.75,3.75 L22.75,2.5 L27.75,2.5 L27.75,3.75 L26.5,3.75 L26.5,8.75 L27.75,8.75 L27.75,10 L22.75,10 Z" id="TRI" fill="#DCDCDC" fill-rule="nonzero"></path>
                </g>
                <g id="square-2" transform="translate(44.000000, 0.000000)">
                    <rect id="Rectangle" fill="#1A1A1A" x="0" y="0" width="32" height="40" rx="5"></rect>
                    <line x1="16" y1="73" x2="16" y2="40" id="Line-5" stroke="#1A1A1A" stroke-width="2" stroke-linecap="square"></line>
                    <path d="M3.5,8.75 L3.5,7.5 L4.75,7.5 L4.75,8.75 L3.5,8.75 Z M4.75,10 L4.75,8.75 L7.25,8.75 L7.25,6.25 L4.75,6.25 L4.75,5 L3.5,5 L3.5,3.75 L4.75,3.75 L4.75,2.5 L9.75,2.5 L9.75,3.75 L6,3.75 L6,5 L9.75,5 L9.75,6.25 L11,6.25 L11,8.75 L9.75,8.75 L9.75,10 L4.75,10 Z M18.75,10 L18.75,8.75 L20,8.75 L20,10 L18.75,10 Z M17.5,8.75 L17.5,7.5 L18.75,7.5 L18.75,8.75 L17.5,8.75 Z M16.25,7.5 L16.25,6.25 L17.5,6.25 L17.5,7.5 L16.25,7.5 Z M18.75,7.5 L18.75,3.75 L20,3.75 L20,7.5 L18.75,7.5 Z M13.75,10 L13.75,8.75 L12.5,8.75 L12.5,3.75 L13.75,3.75 L13.75,2.5 L18.75,2.5 L18.75,3.75 L15,3.75 L15,8.75 L17.5,8.75 L17.5,10 L13.75,10 Z M21.5,5 L21.5,3.75 L22.75,3.75 L22.75,5 L21.5,5 Z M21.5,10 L21.5,7.5 L22.75,7.5 L22.75,6.25 L25.25,6.25 L25.25,3.75 L22.75,3.75 L22.75,2.5 L27.75,2.5 L27.75,3.75 L29,3.75 L29,6.25 L27.75,6.25 L27.75,7.5 L25.25,7.5 L25.25,8.75 L29,8.75 L29,10 L21.5,10 Z" id="SQ2" fill="#DCDCDC" fill-rule="nonzero"></path>
                </g>
                <g id="square-1">
                    <rect id="Rectangle" fill="#1A1A1A" x="0" y="0" width="32" height="40" rx="5"></rect>
                    <line x1="16" y1="73" x2="16" y2="40" id="Line-5" stroke="#1A1A1A" stroke-width="2" stroke-linecap="square"></line>
                    <path d="M3.5,8.75 L3.5,7.5 L4.75,7.5 L4.75,8.75 L3.5,8.75 Z M4.75,10 L4.75,8.75 L7.25,8.75 L7.25,6.25 L4.75,6.25 L4.75,5 L3.5,5 L3.5,3.75 L4.75,3.75 L4.75,2.5 L9.75,2.5 L9.75,3.75 L6,3.75 L6,5 L9.75,5 L9.75,6.25 L11,6.25 L11,8.75 L9.75,8.75 L9.75,10 L4.75,10 Z M18.75,10 L18.75,8.75 L20,8.75 L20,10 L18.75,10 Z M17.5,8.75 L17.5,7.5 L18.75,7.5 L18.75,8.75 L17.5,8.75 Z M16.25,7.5 L16.25,6.25 L17.5,6.25 L17.5,7.5 L16.25,7.5 Z M18.75,7.5 L18.75,3.75 L20,3.75 L20,7.5 L18.75,7.5 Z M13.75,10 L13.75,8.75 L12.5,8.75 L12.5,3.75 L13.75,3.75 L13.75,2.5 L18.75,2.5 L18.75,3.75 L15,3.75 L15,8.75 L17.5,8.75 L17.5,10 L13.75,10 Z M22.75,10 L22.75,8.75 L24,8.75 L24,5 L22.75,5 L22.75,3.75 L24,3.75 L24,2.5 L26.5,2.5 L26.5,8.75 L27.75,8.75 L27.75,10 L22.75,10 Z" id="SQ1" fill="#DCDCDC" fill-rule="nonzero"></path>
                </g>
            </g>
        </g>
        <g id="clock" transform="translate(112.000000, 35.000000)">
            <g id="bg">
                <line x1="17" y1="189" x2="17" y2="40" id="normal" stroke="#1A1A1A" stroke-width="2" stroke-linecap="square"></line>
                <g id="clock-mod" transform="translate(0.000000, 175.000000)" fill="#1A1A1A" fill-rule="nonzero">
                    <path d="M4.5,40 L4.5,32.5 L5.75,32.5 L5.75,33.75 L7,33.75 L7,35 L8.25,35 L8.25,33.75 L9.5,33.75 L9.5,32.5 L12,32.5 L12,40 L9.5,40 L9.5,36.25 L8.25,36.25 L8.25,37.5 L7,37.5 L7,36.25 L5.75,36.25 L5.75,40 L4.5,40 Z M17.8333333,38.75 L17.8333333,33.75 L15.3333333,33.75 L15.3333333,38.75 L17.8333333,38.75 Z M14.0833333,40 L14.0833333,38.75 L12.8333333,38.75 L12.8333333,33.75 L14.0833333,33.75 L14.0833333,32.5 L19.0833333,32.5 L19.0833333,33.75 L20.3333333,33.75 L20.3333333,38.75 L19.0833333,38.75 L19.0833333,40 L14.0833333,40 Z M24.9166667,38.75 L24.9166667,33.75 L22.4166667,33.75 L22.4166667,38.75 L24.9166667,38.75 Z M21.1666667,40 L21.1666667,32.5 L27.4166667,32.5 L27.4166667,33.75 L28.6666667,33.75 L28.6666667,38.75 L27.4166667,38.75 L27.4166667,40 L21.1666667,40 Z" id="MOD"></path>
                </g>
                <g id="clock-out">
                    <rect id="Rectangle" fill="#1A1A1A" x="0.5" y="0" width="32" height="40" rx="5"></rect>
                    <path d="M4.25,10 L4.25,8.75 L3,8.75 L3,3.75 L4.25,3.75 L4.25,2.5 L9.25,2.5 L9.25,3.75 L10.5,3.75 L10.5,5 L8,5 L8,3.75 L5.5,3.75 L5.5,8.75 L8,8.75 L8,7.5 L10.5,7.5 L10.5,8.75 L9.25,8.75 L9.25,10 L4.25,10 Z M12,10 L12,2.5 L14.5,2.5 L14.5,8.75 L19.5,8.75 L19.5,10 L12,10 Z M21,10 L21,2.5 L23.5,2.5 L23.5,5 L24.75,5 L24.75,3.75 L26,3.75 L26,2.5 L28.5,2.5 L28.5,3.75 L27.25,3.75 L27.25,5 L26,5 L26,7.5 L27.25,7.5 L27.25,8.75 L28.5,8.75 L28.5,10 L26,10 L26,8.75 L24.75,8.75 L24.75,7.5 L23.5,7.5 L23.5,10 L21,10 Z" id="CLK" fill="#DCDCDC" fill-rule="nonzero"></path>
                </g>
            </g>
        </g>
        <g id="player1">
            <g id="bg">
                <rect id="inner" fill="#1A1A1A" x="9" y="0" width="91" height="380"></rect>
                <g id="button-bgs" transform="translate(17.000000, 9.000000)">
                    <rect id="Rectangle" fill="#FFFFFF" x="0" y="3.55271368e-14" width="76" height="40" rx="5"></rect>
                    <rect id="Rectangle" fill="#FFFFFF" x="0" y="46" width="76" height="40" rx="5"></rect>
                    <rect id="Rectangle" fill="#FFFFFF" x="0" y="92" width="76" height="40" rx="5"></rect>
                    <rect id="Rectangle" fill="#FFFFFF" x="0" y="138" width="76" height="40" rx="5"></rect>
                    <rect id="Rectangle" fill="#808080" x="0" y="184" width="76" height="40" rx="5"></rect>
                    <rect id="Rectangle" fill="#808080" x="0" y="230" width="76" height="40" rx="5"></rect>
                    <rect id="Rectangle" fill="#DDDDDD" x="0" y="276" width="76" height="40" rx="5"></rect>
                    <rect id="Rectangle" fill="#DDDDDD" x="0" y="322" width="76" height="40" rx="5"></rect>
                </g>
                <g id="arrows" transform="translate(43.000000, 12.000000)" fill="#CECECE">
                    <polygon id="Triangle" points="16.5 0 33 33 0 33"></polygon>
                    <polygon id="Triangle-Copy-2" transform="translate(16.500000, 110.500000) rotate(-90.000000) translate(-16.500000, -110.500000) " points="16.5 94 33 127 0 127"></polygon>
                    <polygon id="Triangle-Copy-3" transform="translate(16.500000, 154.500000) rotate(-270.000000) translate(-16.500000, -154.500000) " points="16.5 138 33 171 0 171"></polygon>
                    <polygon id="Triangle-Copy" transform="translate(16.500000, 63.500000) scale(1, -1) translate(-16.500000, -63.500000) " points="16.5 47 33 80 0 80"></polygon>
                </g>
                <g id="text" transform="translate(49.000000, 10.000000)" fill-rule="nonzero">
                    <path d="M19.3333333,7 L19.3333333,2 L20.3333333,2 L20.3333333,7 L19.3333333,7 Z M20.3333333,8 L20.3333333,7 L22.3333333,7 L22.3333333,6 L23.3333333,6 L23.3333333,2 L25.3333333,2 L25.3333333,7 L24.3333333,7 L24.3333333,8 L20.3333333,8 Z M30,5 L30,3 L28,3 L28,5 L30,5 Z M26,8 L26,2 L31,2 L31,3 L32,3 L32,5 L31,5 L31,6 L28,6 L28,8 L26,8 Z" id="UP" fill="#FF0000"></path>
                    <path d="M14.6666667,53 L14.6666667,49 L12.6666667,49 L12.6666667,53 L14.6666667,53 Z M11.6666667,54 L11.6666667,48 L16.6666667,48 L16.6666667,49 L17.6666667,49 L17.6666667,53 L16.6666667,53 L16.6666667,54 L11.6666667,54 Z M22.3333333,53 L22.3333333,49 L20.3333333,49 L20.3333333,53 L22.3333333,53 Z M19.3333333,54 L19.3333333,53 L18.3333333,53 L18.3333333,49 L19.3333333,49 L19.3333333,48 L23.3333333,48 L23.3333333,49 L24.3333333,49 L24.3333333,53 L23.3333333,53 L23.3333333,54 L19.3333333,54 Z M25,54 L25,48 L26,48 L26,51 L27,51 L27,50 L28,50 L28,51 L29,51 L29,48 L31,48 L31,54 L29,54 L29,53 L28,53 L28,52 L27,52 L27,53 L26,53 L26,54 L25,54 Z M31.6666667,54 L31.6666667,48 L32.6666667,48 L32.6666667,49 L33.6666667,49 L33.6666667,50 L34.6666667,50 L34.6666667,51 L35.6666667,51 L35.6666667,48 L37.6666667,48 L37.6666667,54 L35.6666667,54 L35.6666667,53 L34.6666667,53 L34.6666667,52 L33.6666667,52 L33.6666667,51 L32.6666667,51 L32.6666667,54 L31.6666667,54 Z" id="DOWN" fill="#FF0000"></path>
                    <path d="M12.6666667,100 L12.6666667,94 L14.6666667,94 L14.6666667,99 L18.6666667,99 L18.6666667,100 L12.6666667,100 Z M19.3333333,100 L19.3333333,94 L25.3333333,94 L25.3333333,95 L21.3333333,95 L21.3333333,96 L24.3333333,96 L24.3333333,97 L21.3333333,97 L21.3333333,99 L25.3333333,99 L25.3333333,100 L19.3333333,100 Z M26,100 L26,94 L32,94 L32,95 L28,95 L28,97 L31,97 L31,98 L28,98 L28,100 L26,100 Z M34.6666667,100 L34.6666667,95 L32.6666667,95 L32.6666667,94 L38.6666667,94 L38.6666667,95 L36.6666667,95 L36.6666667,100 L34.6666667,100 Z" id="LEFT" fill="#FF0000"></path>
                    <path d="M11.3333333,146 L11.3333333,145 L13.3333333,145 L13.3333333,146 L11.3333333,146 Z M11.3333333,143 L11.3333333,141 L9.33333333,141 L9.33333333,143 L11.3333333,143 Z M7.33333333,146 L7.33333333,140 L12.3333333,140 L12.3333333,141 L13.3333333,141 L13.3333333,143 L12.3333333,143 L12.3333333,144 L11.3333333,144 L11.3333333,145 L10.3333333,145 L10.3333333,144 L9.33333333,144 L9.33333333,146 L7.33333333,146 Z M15,146 L15,145 L16,145 L16,141 L15,141 L15,140 L19,140 L19,141 L18,141 L18,145 L19,145 L19,146 L15,146 Z M21.6666667,146 L21.6666667,145 L20.6666667,145 L20.6666667,141 L21.6666667,141 L21.6666667,140 L25.6666667,140 L25.6666667,141 L26.6666667,141 L26.6666667,142 L24.6666667,142 L24.6666667,141 L22.6666667,141 L22.6666667,145 L24.6666667,145 L24.6666667,144 L23.6666667,144 L23.6666667,143 L26.6666667,143 L26.6666667,146 L21.6666667,146 Z M27.3333333,146 L27.3333333,140 L28.3333333,140 L28.3333333,142 L31.3333333,142 L31.3333333,140 L33.3333333,140 L33.3333333,146 L31.3333333,146 L31.3333333,143 L28.3333333,143 L28.3333333,146 L27.3333333,146 Z M36,146 L36,141 L34,141 L34,140 L40,140 L40,141 L38,141 L38,146 L36,146 Z" id="RIGHT" fill="#FF0000"></path>
                    <path d="M3,191 L3,190 L4,190 L4,191 L3,191 Z M4,192 L4,191 L6,191 L6,189 L4,189 L4,188 L3,188 L3,187 L4,187 L4,186 L8,186 L8,187 L5,187 L5,188 L8,188 L8,189 L9,189 L9,191 L8,191 L8,192 L4,192 Z M9.66666667,192 L9.66666667,186 L15.6666667,186 L15.6666667,187 L11.6666667,187 L11.6666667,188 L14.6666667,188 L14.6666667,189 L11.6666667,189 L11.6666667,191 L15.6666667,191 L15.6666667,192 L9.66666667,192 Z M16.3333333,192 L16.3333333,186 L18.3333333,186 L18.3333333,191 L22.3333333,191 L22.3333333,192 L16.3333333,192 Z M23,192 L23,186 L29,186 L29,187 L25,187 L25,188 L28,188 L28,189 L25,189 L25,191 L29,191 L29,192 L23,192 Z M30.6666667,192 L30.6666667,191 L29.6666667,191 L29.6666667,187 L30.6666667,187 L30.6666667,186 L34.6666667,186 L34.6666667,187 L35.6666667,187 L35.6666667,188 L33.6666667,188 L33.6666667,187 L31.6666667,187 L31.6666667,191 L33.6666667,191 L33.6666667,190 L35.6666667,190 L35.6666667,191 L34.6666667,191 L34.6666667,192 L30.6666667,192 Z M38.3333333,192 L38.3333333,187 L36.3333333,187 L36.3333333,186 L42.3333333,186 L42.3333333,187 L40.3333333,187 L40.3333333,192 L38.3333333,192 Z" id="SELECT" fill="#1A1A1A"></path>
                    <path d="M7.83333333,237 L7.83333333,236 L8.83333333,236 L8.83333333,237 L7.83333333,237 Z M8.83333333,238 L8.83333333,237 L10.8333333,237 L10.8333333,235 L8.83333333,235 L8.83333333,234 L7.83333333,234 L7.83333333,233 L8.83333333,233 L8.83333333,232 L12.8333333,232 L12.8333333,233 L9.83333333,233 L9.83333333,234 L12.8333333,234 L12.8333333,235 L13.8333333,235 L13.8333333,237 L12.8333333,237 L12.8333333,238 L8.83333333,238 Z M16.5,238 L16.5,233 L14.5,233 L14.5,232 L20.5,232 L20.5,233 L18.5,233 L18.5,238 L16.5,238 Z M21.1666667,238 L21.1666667,233 L22.1666667,233 L22.1666667,235 L24.1666667,235 L24.1666667,233 L22.1666667,233 L22.1666667,232 L26.1666667,232 L26.1666667,233 L27.1666667,233 L27.1666667,238 L24.1666667,238 L24.1666667,236 L22.1666667,236 L22.1666667,238 L21.1666667,238 Z M31.8333333,238 L31.8333333,237 L33.8333333,237 L33.8333333,238 L31.8333333,238 Z M31.8333333,235 L31.8333333,233 L29.8333333,233 L29.8333333,235 L31.8333333,235 Z M27.8333333,238 L27.8333333,232 L32.8333333,232 L32.8333333,233 L33.8333333,233 L33.8333333,235 L32.8333333,235 L32.8333333,236 L31.8333333,236 L31.8333333,237 L30.8333333,237 L30.8333333,236 L29.8333333,236 L29.8333333,238 L27.8333333,238 Z M36.5,238 L36.5,233 L34.5,233 L34.5,232 L40.5,232 L40.5,233 L38.5,233 L38.5,238 L36.5,238 Z" id="START" fill="#1A1A1A"></path>
                    <path d="M15.8,311 L15.8,307 L11.8,307 L11.8,311 L15.8,311 Z M15.8,305 L15.8,303 L11.8,303 L11.8,305 L15.8,305 Z M7.8,313 L7.8,301 L17.8,301 L17.8,303 L19.8,303 L19.8,305 L17.8,305 L17.8,307 L19.8,307 L19.8,311 L17.8,311 L17.8,313 L7.8,313 Z" id="B" fill="#FF0000"></path>
                    <polygon id="A" fill="#FF0000" points="7.8 359 7.8 349 9.8 349 9.8 353 13.8 353 13.8 349 9.8 349 9.8 347 17.8 347 17.8 349 19.8 349 19.8 359 13.8 359 13.8 355 9.8 355 9.8 359"></polygon>
                </g>
            </g>
        </g>
    </g>
</svg>