<?xml version="1.0" encoding="UTF-8"?>
<svg width="570px" height="380px" viewBox="0 0 570 380" version="1.1" xmlns="http://www.w3.org/2000/svg" xmlns:xlink="http://www.w3.org/1999/xlink">
    <!-- Generator: Sketch 58 (84663) - https://sketch.com -->
    <title>RackNES</title>
    <desc>Created with Sketch.</desc>
    <g id="RackNES" stroke="none" stroke-width="1" fill="none" fill-rule="evenodd">
        <g id="bg">
            <rect id="Background" stroke="#DCDCDC" fill="#DCDCDC" fill-rule="nonzero" x="0" y="0" width="570" height="380" rx="2"></rect>
            <g id="KautenjaDSP/bottom/black" transform="translate(254.000000, 364.000000)" fill="#000000">
                <g id="Group-3">
                    <path d="M-2.13162821e-14,0.17 L-2.13162821e-14,7.31 L1.57,7.31 L1.57,5.01 L2.47,4.1 L4.62,7.31 L6.59,7.31 L3.53,2.99 L6.32,0.17 L4.36,0.17 L1.57,3.13 L1.57,0.17 L-2.13162821e-14,0.17 Z M7.01,3.73 C7.0300001,3.396665 7.1133326,3.1200011 7.26,2.9 C7.4066674,2.6799989 7.5933322,2.503334 7.82,2.37 C8.0466678,2.236666 8.30166525,2.14166695 8.585,2.085 C8.86833475,2.02833305 9.1533319,2 9.44,2 C9.7000013,2 9.963332,2.01833315 10.23,2.055 C10.496668,2.09166685 10.7399989,2.1633328 10.96,2.27 C11.1800011,2.3766672 11.3599993,2.52499905 11.5,2.715 C11.6400007,2.90500095 11.71,3.1566651 11.71,3.47 L11.71,6.16 C11.71,6.3933345 11.7233332,6.6166656 11.75,6.83 C11.7766668,7.0433344 11.823333,7.2033328 11.89,7.31 L10.45,7.31 C10.4233332,7.2299996 10.4016667,7.14833375 10.385,7.065 C10.3683332,6.98166625 10.3566667,6.8966671 10.35,6.81 C10.1233322,7.0433345 9.8566682,7.2066662 9.55,7.3 C9.2433318,7.3933338 8.9300016,7.44 8.61,7.44 C8.3633321,7.44 8.1333344,7.4100003 7.92,7.35 C7.7066656,7.2899997 7.5200008,7.1966673 7.36,7.07 C7.1999992,6.9433327 7.07500045,6.7833343 6.985,6.59 C6.89499955,6.3966657 6.85,6.166668 6.85,5.9 C6.85,5.6066652 6.90166615,5.36500095 7.005,5.175 C7.10833385,4.98499905 7.24166585,4.8333339 7.405,4.72 C7.56833415,4.6066661 7.75499895,4.52166695 7.965,4.465 C8.17500105,4.40833305 8.3866656,4.3633335 8.6,4.33 L8.91750001,4.28499998 L8.91750001,4.28499998 L9.23,4.25 C9.4366677,4.2299999 9.6199992,4.2000002 9.78,4.16 C9.9400008,4.1199998 10.0666662,4.06166705 10.16,3.985 C10.2533338,3.90833295 10.2966667,3.7966674 10.29,3.65 C10.29,3.4966659 10.2650002,3.37500045 10.215,3.285 C10.1649997,3.19499955 10.0983337,3.12500025 10.015,3.075 C9.93166625,3.02499975 9.83500055,2.99166675 9.725,2.975 C9.61499945,2.95833325 9.4966673,2.95 9.37,2.95 C9.0899986,2.95 8.8700008,3.0099994 8.71,3.13 C8.5499992,3.2500006 8.4566668,3.4499986 8.43,3.73 L7.01,3.73 Z M10.29,4.78 C10.2299997,4.8333336 10.1550004,4.87499985 10.065,4.905 C9.97499955,4.93500015 9.87833385,4.9599999 9.775,4.98 L9.61625002,5.00750001 L9.61625002,5.00750001 L9.45,5.03 C9.3366661,5.0433334 9.2233339,5.0599999 9.11,5.08 C9.0033328,5.1000001 8.89833385,5.1266665 8.795,5.16 C8.69166615,5.1933335 8.60166705,5.23833305 8.525,5.295 C8.44833295,5.35166695 8.3866669,5.4233329 8.34,5.51 C8.2933331,5.5966671 8.27,5.706666 8.27,5.84 C8.27,5.9666673 8.2933331,6.0733329 8.34,6.16 C8.3866669,6.2466671 8.4499996,6.31499975 8.53,6.365 C8.6100004,6.41500025 8.7033328,6.4499999 8.81,6.47 C8.9166672,6.4900001 9.0266661,6.5 9.14,6.5 C9.4200014,6.5 9.6366659,6.4533338 9.79,6.36 C9.9433341,6.2666662 10.0566663,6.15500065 10.13,6.025 C10.2033337,5.89499935 10.2483332,5.763334 10.265,5.63 L10.2872222,5.39888892 C10.2890741,5.3662964 10.29,5.3366668 10.29,5.31 L10.29,4.78 Z M17.66,7.31 L17.66,2.14 L16.24,2.14 L16.24,4.85 C16.24,5.3766693 16.1533342,5.75499885 15.98,5.985 C15.8066658,6.21500115 15.5266686,6.33 15.14,6.33 C14.7999983,6.33 14.563334,6.22500105 14.43,6.015 C14.296666,5.80499895 14.23,5.4866688 14.23,5.06 L14.23,2.14 L12.81,2.14 L12.81,5.32 C12.81,5.64 12.838333,5.93166535 12.895,6.195 C12.9516669,6.45833465 13.0499993,6.68166575 13.19,6.865 C13.3300007,7.04833425 13.5216654,7.1899995 13.765,7.29 C14.0083345,7.3900005 14.3199981,7.44 14.7,7.44 C15.0000015,7.44 15.2933319,7.373334 15.58,7.24 C15.8666681,7.106666 16.0999991,6.8900015 16.28,6.59 L16.31,6.59 L16.31,7.31 L17.66,7.31 Z M20.54,2.14 L20.54,0.59 L19.12,0.59 L19.12,2.14 L18.26,2.14 L18.26,3.09 L19.12,3.09 L19.12,6.14 C19.12,6.4000013 19.1633329,6.6099992 19.25,6.77 C19.3366671,6.9300008 19.4549992,7.0533329 19.605,7.14 C19.7550007,7.2266671 19.9283323,7.28499985 20.125,7.315 C20.3216676,7.34500015 20.5299989,7.36 20.75,7.36 C20.8900007,7.36 21.0333326,7.3566667 21.18,7.35 C21.3266674,7.3433333 21.4599994,7.3300001 21.58,7.31 L21.58,6.21 C21.513333,6.2233334 21.4433337,6.2333333 21.37,6.24 C21.2966663,6.2466667 21.2200004,6.25 21.14,6.25 C20.8999988,6.25 20.7400004,6.2100004 20.66,6.13 C20.5799996,6.0499996 20.54,5.8900012 20.54,5.65 L20.54,3.09 L21.58,3.09 L21.58,2.14 L20.54,2.14 Z M25.74,4.17 L23.43,4.17 C23.4366667,4.07 23.4583331,3.9566673 23.495,3.83 C23.5316668,3.7033327 23.5949995,3.5833339 23.685,3.47 C23.7750004,3.3566661 23.8949992,3.26166705 24.045,3.185 C24.1950007,3.10833295 24.3833322,3.07 24.61,3.07 C24.9566684,3.07 25.2149991,3.1633324 25.385,3.35 C25.5550008,3.5366676 25.673333,3.8099982 25.74,4.17 Z M23.43,5.07 L27.16,5.07 C27.1866668,4.669998 27.1533338,4.2866685 27.06,3.92 C26.9666662,3.5533315 26.815001,3.2266681 26.605,2.94 C26.3949989,2.6533319 26.1266683,2.42500085 25.8,2.255 C25.4733317,2.08499915 25.0900022,2 24.65,2 C24.2566647,2 23.8983349,2.0699993 23.575,2.21 C23.251665,2.3500007 22.9733345,2.54166545 22.74,2.785 C22.5066655,3.02833455 22.3266673,3.316665 22.2,3.65 C22.0733327,3.983335 22.01,4.3433314 22.01,4.73 C22.01,5.130002 22.071666,5.496665 22.195,5.83 C22.3183339,6.163335 22.4933322,6.4499988 22.72,6.69 C22.9466678,6.9300012 23.2233317,7.11499935 23.55,7.245 C23.8766683,7.37500065 24.2433313,7.44 24.65,7.44 C25.2366696,7.44 25.7366646,7.306668 26.15,7.04 C26.5633354,6.773332 26.869999,6.3300031 27.07,5.71 L25.82,5.71 C25.7733331,5.8700008 25.6466677,6.02166595 25.44,6.165 C25.2333323,6.30833405 24.9866681,6.38 24.7,6.38 C24.299998,6.38 23.9933344,6.2766677 23.78,6.07 C23.5666656,5.8633323 23.4500001,5.5300023 23.43,5.07 Z M28,2.14 L28,7.31 L29.42,7.31 L29.42,4.6 C29.42,4.0733307 29.5066658,3.69500115 29.68,3.465 C29.8533342,3.23499885 30.1333314,3.12 30.52,3.12 C30.8600017,3.12 31.096666,3.22499895 31.23,3.435 C31.363334,3.64500105 31.43,3.9633312 31.43,4.39 L31.43,7.31 L32.85,7.31 L32.85,4.13 C32.85,3.8099984 32.8216669,3.51833465 32.765,3.255 C32.708333,2.99166535 32.6100007,2.76833425 32.47,2.585 C32.3299993,2.40166575 32.1383345,2.25833385 31.895,2.155 C31.6516654,2.05166615 31.3400019,2 30.96,2 C30.6599985,2 30.3666681,2.06833265 30.08,2.205 C29.7933319,2.34166735 29.5600009,2.5599985 29.38,2.86 L29.35,2.86 L29.35,2.14 L28,2.14 Z M35.48,1.34 L35.48,0.17 L34.06,0.17 L34.06,1.34 L35.48,1.34 Z M33.21,7.91 L33.21,9.08 C33.343334,9.1066668 33.4933325,9.12 33.66,9.12 C34.0200018,9.12 34.3166655,9.08833365 34.55,9.025 C34.7833345,8.96166635 34.9683326,8.86500065 35.105,8.735 C35.2416673,8.60499935 35.338333,8.4433343 35.395,8.25 C35.4516669,8.0566657 35.48,7.826668 35.48,7.56 L35.48,2.14 L34.06,2.14 L34.06,7.49 C34.06,7.6833343 34.0050005,7.80833305 33.895,7.865 C33.7849994,7.92166695 33.6566674,7.95 33.51,7.95 C33.3833327,7.95 33.2833337,7.9366668 33.21,7.91 Z M36.65,3.73 C36.6700001,3.396665 36.7533326,3.1200011 36.9,2.9 C37.0466674,2.6799989 37.2333322,2.503334 37.46,2.37 C37.6866678,2.236666 37.9416652,2.14166695 38.225,2.085 C38.5083347,2.02833305 38.7933319,2 39.08,2 C39.3400013,2 39.603332,2.01833315 39.87,2.055 C40.136668,2.09166685 40.3799989,2.1633328 40.6,2.27 C40.8200011,2.3766672 40.9999993,2.52499905 41.14,2.715 C41.2800007,2.90500095 41.35,3.1566651 41.35,3.47 L41.35,6.16 C41.35,6.3933345 41.3633332,6.6166656 41.39,6.83 C41.4166668,7.0433344 41.463333,7.2033328 41.53,7.31 L40.09,7.31 C40.0633332,7.2299996 40.0416667,7.14833375 40.025,7.065 C40.0083332,6.98166625 39.9966667,6.8966671 39.99,6.81 C39.7633322,7.0433345 39.4966682,7.2066662 39.19,7.3 C38.8833318,7.3933338 38.5700016,7.44 38.25,7.44 C38.0033321,7.44 37.7733344,7.4100003 37.56,7.35 C37.3466656,7.2899997 37.1600008,7.1966673 37,7.07 C36.8399992,6.9433327 36.7150004,6.7833343 36.625,6.59 C36.5349995,6.3966657 36.49,6.166668 36.49,5.9 C36.49,5.6066652 36.5416661,5.36500095 36.645,5.175 C36.7483338,4.98499905 36.8816658,4.8333339 37.045,4.72 C37.2083341,4.6066661 37.3949989,4.52166695 37.605,4.465 C37.815001,4.40833305 38.0266656,4.3633335 38.24,4.33 C38.4533344,4.2966665 38.6633323,4.2700001 38.87,4.25 C39.0766677,4.2299999 39.2599992,4.2000002 39.42,4.16 C39.5800008,4.1199998 39.7066662,4.06166705 39.8,3.985 C39.8933338,3.90833295 39.9366667,3.7966674 39.93,3.65 C39.93,3.4966659 39.9050002,3.37500045 39.855,3.285 C39.8049997,3.19499955 39.7383337,3.12500025 39.655,3.075 C39.5716662,3.02499975 39.4750005,2.99166675 39.365,2.975 C39.2549994,2.95833325 39.1366673,2.95 39.01,2.95 C38.7299986,2.95 38.5100008,3.0099994 38.35,3.13 C38.1899992,3.2500006 38.0966668,3.4499986 38.07,3.73 L36.65,3.73 Z M39.93,4.78 C39.8699997,4.8333336 39.7950004,4.87499985 39.705,4.905 C39.6149995,4.93500015 39.5183338,4.9599999 39.415,4.98 L39.25625,5.00750001 L39.25625,5.00750001 L39.09,5.03 C38.9766661,5.0433334 38.8633339,5.0599999 38.75,5.08 C38.6433328,5.1000001 38.5383338,5.1266665 38.435,5.16 C38.3316661,5.1933335 38.241667,5.23833305 38.165,5.295 C38.0883329,5.35166695 38.0266669,5.4233329 37.98,5.51 C37.9333331,5.5966671 37.91,5.706666 37.91,5.84 C37.91,5.9666673 37.9333331,6.0733329 37.98,6.16 C38.0266669,6.2466671 38.0899996,6.31499975 38.17,6.365 C38.2500004,6.41500025 38.3433328,6.4499999 38.45,6.47 C38.5566672,6.4900001 38.6666661,6.5 38.78,6.5 C39.0600014,6.5 39.2766659,6.4533338 39.43,6.36 C39.5833341,6.2666662 39.6966663,6.15500065 39.77,6.025 C39.8433337,5.89499935 39.8883332,5.763334 39.905,5.63 L39.9272222,5.39888892 C39.9290741,5.3662964 39.93,5.3366668 39.93,5.31 L39.93,4.78 Z M44.17,5.99 L44.17,1.49 L45.29,1.49 C45.6766686,1.49 46.0016653,1.54499945 46.265,1.655 C46.5283346,1.76500055 46.7399992,1.9233323 46.9,2.13 C47.0600008,2.3366677 47.1749996,2.58499855 47.245,2.875 C47.3150003,3.16500145 47.35,3.49 47.35,3.85 C47.35,4.2433353 47.3000005,4.5766653 47.2,4.85 C47.0999995,5.1233347 46.9666675,5.34499915 46.8,5.515 C46.6333325,5.68500085 46.4433344,5.8066663 46.23,5.88 C46.0166656,5.9533337 45.7966678,5.99 45.57,5.99 L44.17,5.99 Z M42.6,0.17 L42.6,7.31 L45.68,7.31 C46.2266694,7.31 46.7016646,7.21833425 47.105,7.035 C47.5083353,6.85166575 47.8449986,6.6000016 48.115,6.28 C48.3850013,5.9599984 48.586666,5.5800022 48.72,5.14 C48.853334,4.6999978 48.92,4.2200026 48.92,3.7 C48.92,3.1066637 48.8383341,2.5900022 48.675,2.15 C48.5116658,1.7099978 48.2850014,1.3433348 47.995,1.05 C47.7049985,0.7566652 47.3616686,0.5366674 46.965,0.39 C46.5683313,0.2433326 46.1400023,0.17 45.68,0.17 L42.6,0.17 Z M51.08,4.94 L49.56,4.94 C49.5533333,5.3800022 49.6333325,5.7599984 49.8,6.08 C49.9666675,6.4000016 50.1916652,6.6633323 50.475,6.87 C50.7583347,7.0766677 51.0849981,7.22833285 51.455,7.325 C51.8250018,7.42166715 52.2066647,7.47 52.6,7.47 C53.0866691,7.47 53.5149981,7.4133339 53.885,7.3 C54.2550018,7.1866661 54.5649987,7.02833435 54.815,6.825 C55.0650012,6.62166565 55.2533327,6.3800014 55.38,6.1 C55.5066673,5.8199986 55.57,5.5166683 55.57,5.19 C55.57,4.789998 55.4850008,4.46166795 55.315,4.205 C55.1449991,3.94833205 54.9433345,3.7433341 54.71,3.59 C54.4766655,3.4366659 54.2416678,3.32500035 54.005,3.255 L53.7457997,3.18139989 C53.6285999,3.14979994 53.5300004,3.12600008 53.45,3.11 L52.365,2.83 L52.365,2.83 C52.088332,2.7566663 51.8716674,2.6833337 51.715,2.61 C51.5583325,2.5366663 51.4533336,2.4566671 51.4,2.37 C51.3466664,2.2833329 51.32,2.1700007 51.32,2.03 C51.32,1.8766659 51.353333,1.7500005 51.42,1.65 C51.486667,1.5499995 51.5716662,1.466667 51.675,1.4 C51.7783338,1.333333 51.8933327,1.2866668 52.02,1.26 C52.1466673,1.2333332 52.2733327,1.22 52.4,1.22 C52.5933343,1.22 52.7716658,1.2366665 52.935,1.27 C53.0983341,1.3033335 53.2433327,1.3599996 53.37,1.44 C53.4966673,1.5200004 53.5983329,1.6299993 53.675,1.77 C53.751667,1.9100007 53.7966666,2.0866656 53.81,2.3 L55.33,2.3 C55.33,1.8866646 55.2516674,1.53500145 55.095,1.245 C54.9383325,0.95499855 54.726668,0.7166676 54.46,0.53 C54.193332,0.3433324 53.888335,0.20833375 53.545,0.125 C53.2016649,0.04166625 52.8433352,0 52.47,0 C52.1499984,0 51.8300016,0.0433329 51.51,0.13 C51.1899984,0.2166671 50.9033346,0.3499991 50.65,0.53 C50.3966654,0.7100009 50.1916674,0.93499865 50.035,1.205 C49.8783325,1.47500135 49.8,1.7933315 49.8,2.16 C49.8,2.4866683 49.861666,2.76499885 49.985,2.995 C50.1083339,3.22500115 50.269999,3.4166659 50.47,3.57 C50.670001,3.7233341 50.8966654,3.84833285 51.15,3.945 C51.3188897,4.00944477 51.4907407,4.06722229 51.6655552,4.11833329 L51.93,4.19 C52.1900013,4.2633337 52.4466654,4.3299997 52.7,4.39 C52.9533346,4.4500003 53.179999,4.5199996 53.38,4.6 C53.580001,4.6800004 53.741666,4.7799994 53.865,4.9 C53.9883339,5.0200006 54.05,5.1766657 54.05,5.37 C54.05,5.5500009 54.0033338,5.69833275 53.91,5.815 C53.8166662,5.93166725 53.7000007,6.023333 53.56,6.09 C53.4199993,6.156667 53.2700008,6.20166655 53.11,6.225 C52.9499992,6.24833345 52.8000007,6.26 52.66,6.26 C52.4533323,6.26 52.2533343,6.23500025 52.06,6.185 C51.8666657,6.13499975 51.698334,6.05833385 51.555,5.955 C51.4116659,5.85166615 51.2966671,5.7166675 51.21,5.55 C51.1233329,5.3833325 51.08,5.1800012 51.08,4.94 Z" id="KautenjaDSP" fill-rule="nonzero"></path>
                    <path d="M59.72,0.17 C60.1666689,0.17 60.5466651,0.23499935 60.86,0.365 C61.1733349,0.49500065 61.4283323,0.6666656 61.625,0.88 C61.8216676,1.0933344 61.9649995,1.3366653 62.055,1.61 C62.1450004,1.8833347 62.19,2.1666652 62.19,2.46 C62.19,2.7466681 62.1450004,3.02833195 62.055,3.305 C61.9649995,3.58166805 61.8216676,3.8266656 61.625,4.04 C61.4283323,4.2533344 61.1733349,4.42499935 60.86,4.555 C60.5466651,4.68500065 60.1666689,4.75 59.72,4.75 L58.07,4.75 L58.07,7.31 L56.5,7.31 L56.5,0.17 L59.72,0.17 Z M59.29,1.39 L58.07,1.39 L58.07,3.53 L59.29,3.53 C59.4700009,3.53 59.6433325,3.5166668 59.81,3.49 C59.9766675,3.4633332 60.1233327,3.41166705 60.25,3.335 C60.3766673,3.25833295 60.478333,3.1500007 60.555,3.01 C60.631667,2.8699993 60.67,2.6866678 60.67,2.46 C60.67,2.2333322 60.631667,2.0500007 60.555,1.91 C60.478333,1.7699993 60.3766673,1.66166705 60.25,1.585 C60.1233327,1.50833295 59.9766675,1.4566668 59.81,1.43 C59.6433325,1.4033332 59.4700009,1.39 59.29,1.39 L59.29,1.39 Z" id="Combined-Shape" fill-rule="nonzero"></path>
                </g>
            </g>
            <path d="M248.671875,7.5546875 L255.703125,7.5546875 L255.703125,5.796875 L248.671875,5.796875 L248.671875,7.5546875 Z M248.671875,9.8984375 L248.671875,14 L246.328125,14 L246.328125,3.453125 L254.53125,3.453125 C256.875012,3.453125 258.046875,4.5234268 258.046875,6.6640625 C258.046875,7.67969258 257.878908,8.42577887 257.542969,8.90234375 C257.878908,9.45703402 258.046875,10.179683 258.046875,11.0703125 L258.046875,14 L255.703125,14 L255.703125,11.0703125 C255.703125,10.2890586 255.312504,9.8984375 254.53125,9.8984375 L248.671875,9.8984375 Z M265.46875,10.484375 L265.46875,9.3125 C265.46875,8.79166406 265.208336,8.53125 264.6875,8.53125 L261.5625,8.53125 C261.041664,8.53125 260.78125,8.79166406 260.78125,9.3125 L260.78125,10.484375 L265.46875,10.484375 Z M260.78125,12.046875 L260.78125,14 L259.21875,14 L259.21875,9.3125 C259.21875,7.74999219 259.999992,6.96875 261.5625,6.96875 L264.6875,6.96875 C266.250008,6.96875 267.03125,7.74999219 267.03125,9.3125 L267.03125,14 L265.46875,14 L265.46875,12.046875 L260.78125,12.046875 Z M275.625,14 L270.15625,14 C268.593742,14 267.8125,13.2187578 267.8125,11.65625 L267.8125,9.3125 C267.8125,7.74999219 268.593742,6.96875 270.15625,6.96875 L275.625,6.96875 L275.625,8.53125 L270.15625,8.53125 C269.635414,8.53125 269.375,8.79166406 269.375,9.3125 L269.375,11.65625 C269.375,12.1770859 269.635414,12.4375 270.15625,12.4375 L275.625,12.4375 L275.625,14 Z M277.96875,11.265625 L277.96875,14 L276.40625,14 L276.40625,6.96875 L277.96875,6.96875 L277.96875,9.703125 L281.875,9.703125 C282.395836,9.703125 282.65625,9.44271094 282.65625,8.921875 L282.65625,6.96875 L284.21875,6.96875 L284.21875,8.921875 C284.21875,9.58333664 284.078126,10.1041648 283.796875,10.484375 C284.078126,10.8645852 284.21875,11.3854134 284.21875,12.046875 L284.21875,14 L282.65625,14 L282.65625,12.046875 C282.65625,11.5260391 282.395836,11.265625 281.875,11.265625 L277.96875,11.265625 Z M285,14 L285,3.453125 L293.203125,3.453125 C295.546887,3.453125 296.71875,4.62498828 296.71875,6.96875 L296.71875,14 L294.375,14 L294.375,6.96875 C294.375,6.18749609 293.984379,5.796875 293.203125,5.796875 L287.34375,5.796875 L287.34375,14 L285,14 Z M309.609375,14 L301.40625,14 C299.062488,14 297.890625,12.8281367 297.890625,10.484375 L297.890625,3.453125 L309.609375,3.453125 L309.609375,5.796875 L300.234375,5.796875 L300.234375,7.5546875 L309.609375,7.5546875 L309.609375,9.8984375 L300.234375,9.8984375 L300.234375,10.484375 C300.234375,11.2656289 300.624996,11.65625 301.40625,11.65625 L309.609375,11.65625 L309.609375,14 Z M310.78125,14 L310.78125,11.65625 L320.15625,11.65625 L320.15625,9.8984375 L314.296875,9.8984375 C311.953113,9.8984375 310.78125,8.83985434 310.78125,6.72265625 C310.78125,4.54295785 311.953113,3.453125 314.296875,3.453125 L322.5,3.453125 L322.5,5.796875 L313.125,5.796875 L313.125,7.5546875 L318.984375,7.5546875 C321.328137,7.5546875 322.5,8.62889551 322.5,10.7773438 C322.5,12.925792 321.328137,14 318.984375,14 L310.78125,14 Z" id="RackNES" fill="#FF0000" fill-rule="nonzero"></path>
            <rect id="Screen" fill="#000000" x="157" y="18" width="256" height="240"></rect>
        </g>
        <g id="player2" transform="translate(514.000000, 190.000000) scale(-1, 1) translate(-514.000000, -190.000000) translate(458.000000, 0.000000)">
            <g id="bg">
                <rect id="inner" fill="#1A1A1A" x="9" y="0" width="91" height="380"></rect>
                <g id="button-bgs" transform="translate(17.000000, 9.000000)">
                    <rect id="Rectangle" fill="#FFFFFF" x="0" y="3.55271368e-14" width="76" height="40" rx="5"></rect>
                    <rect id="Rectangle" fill="#FFFFFF" x="0" y="46" width="76" height="40" rx="5"></rect>
                    <rect id="Rectangle" fill="#FFFFFF" x="0" y="92" width="76" height="40" rx="5"></rect>
                    <rect id="Rectangle" fill="#FFFFFF" x="0" y="138" width="76" height="40" rx="5"></rect>
                    <rect id="Rectangle" fill="#808080" x="0" y="184" width="76" height="40" rx="5"></rect>
                    <rect id="Rectangle" fill="#808080" x="0" y="230" width="76" height="40" rx="5"></rect>
                    <rect id="Rectangle" fill="#DDDDDD" x="0" y="276" width="76" height="40" rx="5"></rect>
                    <rect id="Rectangle" fill="#DDDDDD" x="0" y="322" width="76" height="40" rx="5"></rect>
                </g>
                <g id="arrows" transform="translate(41.000000, 13.000000)" fill="#CECECE">
                    <polygon id="Triangle" points="16.5 0 33 33 0 33"></polygon>
                    <polygon id="Triangle-Copy-2" transform="translate(16.500000, 110.500000) rotate(-90.000000) translate(-16.500000, -110.500000) " points="16.5 94 33 127 0 127"></polygon>
                    <polygon id="Triangle-Copy-3" transform="translate(16.500000, 154.500000) rotate(-270.000000) translate(-16.500000, -154.500000) " points="16.5 138 33 171 0 171"></polygon>
                    <polygon id="Triangle-Copy" transform="translate(16.500000, 63.500000) scale(1, -1) translate(-16.500000, -63.500000) " points="16.5 47 33 80 0 80"></polygon>
                </g>
                <g id="text" transform="translate(45.000000, 10.000000)" fill-rule="nonzero">
                    <path d="M23.3333333,7 L23.3333333,2 L24.3333333,2 L24.3333333,7 L23.3333333,7 Z M24.3333333,8 L24.3333333,7 L26.3333333,7 L26.3333333,6 L27.3333333,6 L27.3333333,2 L29.3333333,2 L29.3333333,7 L28.3333333,7 L28.3333333,8 L24.3333333,8 Z M34,5 L34,3 L32,3 L32,5 L34,5 Z M30,8 L30,2 L35,2 L35,3 L36,3 L36,5 L35,5 L35,6 L32,6 L32,8 L30,8 Z" id="UP" fill="#FF0000" transform="translate(29.666667, 5.000000) scale(-1, 1) translate(-29.666667, -5.000000) "></path>
                    <path d="M18.6666667,53 L18.6666667,49 L16.6666667,49 L16.6666667,53 L18.6666667,53 Z M15.6666667,54 L15.6666667,48 L20.6666667,48 L20.6666667,49 L21.6666667,49 L21.6666667,53 L20.6666667,53 L20.6666667,54 L15.6666667,54 Z M26.3333333,53 L26.3333333,49 L24.3333333,49 L24.3333333,53 L26.3333333,53 Z M23.3333333,54 L23.3333333,53 L22.3333333,53 L22.3333333,49 L23.3333333,49 L23.3333333,48 L27.3333333,48 L27.3333333,49 L28.3333333,49 L28.3333333,53 L27.3333333,53 L27.3333333,54 L23.3333333,54 Z M29,54 L29,48 L30,48 L30,51 L31,51 L31,50 L32,50 L32,51 L33,51 L33,48 L35,48 L35,54 L33,54 L33,53 L32,53 L32,52 L31,52 L31,53 L30,53 L30,54 L29,54 Z M35.6666667,54 L35.6666667,48 L36.6666667,48 L36.6666667,49 L37.6666667,49 L37.6666667,50 L38.6666667,50 L38.6666667,51 L39.6666667,51 L39.6666667,48 L41.6666667,48 L41.6666667,54 L39.6666667,54 L39.6666667,53 L38.6666667,53 L38.6666667,52 L37.6666667,52 L37.6666667,51 L36.6666667,51 L36.6666667,54 L35.6666667,54 Z" id="DOWN" fill="#FF0000" transform="translate(28.666667, 51.000000) scale(-1, 1) translate(-28.666667, -51.000000) "></path>
                    <path d="M16.6666667,100 L16.6666667,94 L18.6666667,94 L18.6666667,99 L22.6666667,99 L22.6666667,100 L16.6666667,100 Z M23.3333333,100 L23.3333333,94 L29.3333333,94 L29.3333333,95 L25.3333333,95 L25.3333333,96 L28.3333333,96 L28.3333333,97 L25.3333333,97 L25.3333333,99 L29.3333333,99 L29.3333333,100 L23.3333333,100 Z M30,100 L30,94 L36,94 L36,95 L32,95 L32,97 L35,97 L35,98 L32,98 L32,100 L30,100 Z M38.6666667,100 L38.6666667,95 L36.6666667,95 L36.6666667,94 L42.6666667,94 L42.6666667,95 L40.6666667,95 L40.6666667,100 L38.6666667,100 Z" id="LEFT" fill="#FF0000" transform="translate(29.666667, 97.000000) scale(-1, 1) translate(-29.666667, -97.000000) "></path>
                    <path d="M15.3333333,146 L15.3333333,145 L17.3333333,145 L17.3333333,146 L15.3333333,146 Z M15.3333333,143 L15.3333333,141 L13.3333333,141 L13.3333333,143 L15.3333333,143 Z M11.3333333,146 L11.3333333,140 L16.3333333,140 L16.3333333,141 L17.3333333,141 L17.3333333,143 L16.3333333,143 L16.3333333,144 L15.3333333,144 L15.3333333,145 L14.3333333,145 L14.3333333,144 L13.3333333,144 L13.3333333,146 L11.3333333,146 Z M19,146 L19,145 L20,145 L20,141 L19,141 L19,140 L23,140 L23,141 L22,141 L22,145 L23,145 L23,146 L19,146 Z M25.6666667,146 L25.6666667,145 L24.6666667,145 L24.6666667,141 L25.6666667,141 L25.6666667,140 L29.6666667,140 L29.6666667,141 L30.6666667,141 L30.6666667,142 L28.6666667,142 L28.6666667,141 L26.6666667,141 L26.6666667,145 L28.6666667,145 L28.6666667,144 L27.6666667,144 L27.6666667,143 L30.6666667,143 L30.6666667,146 L25.6666667,146 Z M31.3333333,146 L31.3333333,140 L32.3333333,140 L32.3333333,142 L35.3333333,142 L35.3333333,140 L37.3333333,140 L37.3333333,146 L35.3333333,146 L35.3333333,143 L32.3333333,143 L32.3333333,146 L31.3333333,146 Z M40,146 L40,141 L38,141 L38,140 L44,140 L44,141 L42,141 L42,146 L40,146 Z" id="RIGHT" fill="#FF0000" transform="translate(27.666667, 143.000000) scale(-1, 1) translate(-27.666667, -143.000000) "></path>
                    <path d="M7,191 L7,190 L8,190 L8,191 L7,191 Z M8,192 L8,191 L10,191 L10,189 L8,189 L8,188 L7,188 L7,187 L8,187 L8,186 L12,186 L12,187 L9,187 L9,188 L12,188 L12,189 L13,189 L13,191 L12,191 L12,192 L8,192 Z M13.6666667,192 L13.6666667,186 L19.6666667,186 L19.6666667,187 L15.6666667,187 L15.6666667,188 L18.6666667,188 L18.6666667,189 L15.6666667,189 L15.6666667,191 L19.6666667,191 L19.6666667,192 L13.6666667,192 Z M20.3333333,192 L20.3333333,186 L22.3333333,186 L22.3333333,191 L26.3333333,191 L26.3333333,192 L20.3333333,192 Z M27,192 L27,186 L33,186 L33,187 L29,187 L29,188 L32,188 L32,189 L29,189 L29,191 L33,191 L33,192 L27,192 Z M34.6666667,192 L34.6666667,191 L33.6666667,191 L33.6666667,187 L34.6666667,187 L34.6666667,186 L38.6666667,186 L38.6666667,187 L39.6666667,187 L39.6666667,188 L37.6666667,188 L37.6666667,187 L35.6666667,187 L35.6666667,191 L37.6666667,191 L37.6666667,190 L39.6666667,190 L39.6666667,191 L38.6666667,191 L38.6666667,192 L34.6666667,192 Z M42.3333333,192 L42.3333333,187 L40.3333333,187 L40.3333333,186 L46.3333333,186 L46.3333333,187 L44.3333333,187 L44.3333333,192 L42.3333333,192 Z" id="SELECT" fill="#1A1A1A" transform="translate(26.666667, 189.000000) scale(-1, 1) translate(-26.666667, -189.000000) "></path>
                    <path d="M11.8333333,237 L11.8333333,236 L12.8333333,236 L12.8333333,237 L11.8333333,237 Z M12.8333333,238 L12.8333333,237 L14.8333333,237 L14.8333333,235 L12.8333333,235 L12.8333333,234 L11.8333333,234 L11.8333333,233 L12.8333333,233 L12.8333333,232 L16.8333333,232 L16.8333333,233 L13.8333333,233 L13.8333333,234 L16.8333333,234 L16.8333333,235 L17.8333333,235 L17.8333333,237 L16.8333333,237 L16.8333333,238 L12.8333333,238 Z M20.5,238 L20.5,233 L18.5,233 L18.5,232 L24.5,232 L24.5,233 L22.5,233 L22.5,238 L20.5,238 Z M25.1666667,238 L25.1666667,233 L26.1666667,233 L26.1666667,235 L28.1666667,235 L28.1666667,233 L26.1666667,233 L26.1666667,232 L30.1666667,232 L30.1666667,233 L31.1666667,233 L31.1666667,238 L28.1666667,238 L28.1666667,236 L26.1666667,236 L26.1666667,238 L25.1666667,238 Z M35.8333333,238 L35.8333333,237 L37.8333333,237 L37.8333333,238 L35.8333333,238 Z M35.8333333,235 L35.8333333,233 L33.8333333,233 L33.8333333,235 L35.8333333,235 Z M31.8333333,238 L31.8333333,232 L36.8333333,232 L36.8333333,233 L37.8333333,233 L37.8333333,235 L36.8333333,235 L36.8333333,236 L35.8333333,236 L35.8333333,237 L34.8333333,237 L34.8333333,236 L33.8333333,236 L33.8333333,238 L31.8333333,238 Z M40.5,238 L40.5,233 L38.5,233 L38.5,232 L44.5,232 L44.5,233 L42.5,233 L42.5,238 L40.5,238 Z" id="START" fill="#1A1A1A" transform="translate(28.166667, 235.000000) scale(-1, 1) translate(-28.166667, -235.000000) "></path>
                    <path d="M16.8,311 L16.8,307 L12.8,307 L12.8,311 L16.8,311 Z M16.8,305 L16.8,303 L12.8,303 L12.8,305 L16.8,305 Z M8.8,313 L8.8,301 L18.8,301 L18.8,303 L20.8,303 L20.8,305 L18.8,305 L18.8,307 L20.8,307 L20.8,311 L18.8,311 L18.8,313 L8.8,313 Z" id="B" fill="#FF0000" transform="translate(14.800000, 307.000000) scale(-1, 1) translate(-14.800000, -307.000000) "></path>
                    <polygon id="A" fill="#FF0000" transform="translate(14.800000, 353.000000) scale(-1, 1) translate(-14.800000, -353.000000) " points="8.8 359 8.8 349 10.8 349 10.8 353 14.8 353 14.8 349 10.8 349 10.8 347 18.8 347 18.8 349 20.8 349 20.8 359 14.8 359 14.8 355 10.8 355 10.8 359"></polygon>
                </g>
            </g>
        </g>
        <g id="console-control" transform="translate(416.000000, 35.000000)">
            <g id="bg">
                <g id="Save">
                    <rect id="Rectangle" fill="#808080" x="0" y="0" width="51" height="40" rx="5"></rect>
                    <path d="M2,9 L2,8 L3,8 L3,9 L2,9 Z M3,10 L3,9 L5,9 L5,7 L3,7 L3,6 L2,6 L2,5 L3,5 L3,4 L7,4 L7,5 L4,5 L4,6 L7,6 L7,7 L8,7 L8,9 L7,9 L7,10 L3,10 Z M9,10 L9,5 L10,5 L10,7 L12,7 L12,5 L10,5 L10,4 L14,4 L14,5 L15,5 L15,10 L12,10 L12,8 L10,8 L10,10 L9,10 Z M17,9 L17,8 L18,8 L18,9 L17,9 Z M16,8 L16,4 L17,4 L17,8 L16,8 Z M18,10 L18,9 L19,9 L19,8 L20,8 L20,4 L22,4 L22,8 L21,8 L21,9 L20,9 L20,10 L18,10 Z M23,10 L23,4 L29,4 L29,5 L25,5 L25,6 L28,6 L28,7 L25,7 L25,9 L29,9 L29,10 L23,10 Z" id="SAVE" fill="#000000" fill-rule="nonzero"></path>
                </g>
                <g id="Load" transform="translate(0.000000, 55.000000)">
                    <rect id="Rectangle" fill="#808080" x="0" y="0" width="51" height="40" rx="5"></rect>
                    <path d="M2,10 L2,4 L4,4 L4,9 L8,9 L8,10 L2,10 Z M13,9 L13,5 L11,5 L11,9 L13,9 Z M10,10 L10,9 L9,9 L9,5 L10,5 L10,4 L14,4 L14,5 L15,5 L15,9 L14,9 L14,10 L10,10 Z M16,10 L16,5 L17,5 L17,7 L19,7 L19,5 L17,5 L17,4 L21,4 L21,5 L22,5 L22,10 L19,10 L19,8 L17,8 L17,10 L16,10 Z M26,9 L26,5 L24,5 L24,9 L26,9 Z M23,10 L23,4 L28,4 L28,5 L29,5 L29,9 L28,9 L28,10 L23,10 Z" id="LOAD" fill="#000000" fill-rule="nonzero"></path>
                </g>
                <g id="Hang" transform="translate(0.000000, 110.000000)">
                    <rect id="Rectangle" fill="#808080" x="0" y="0" width="51" height="40" rx="5"></rect>
                    <path d="M2,10 L2,4 L3,4 L3,6 L6,6 L6,4 L8,4 L8,10 L6,10 L6,7 L3,7 L3,10 L2,10 Z M9,10 L9,5 L10,5 L10,7 L12,7 L12,5 L10,5 L10,4 L14,4 L14,5 L15,5 L15,10 L12,10 L12,8 L10,8 L10,10 L9,10 Z M16,10 L16,4 L17,4 L17,5 L18,5 L18,6 L19,6 L19,7 L20,7 L20,4 L22,4 L22,10 L20,10 L20,9 L19,9 L19,8 L18,8 L18,7 L17,7 L17,10 L16,10 Z M24,10 L24,9 L23,9 L23,5 L24,5 L24,4 L28,4 L28,5 L29,5 L29,6 L27,6 L27,5 L25,5 L25,9 L27,9 L27,8 L26,8 L26,7 L29,7 L29,10 L24,10 Z" id="HANG" fill="#000000" fill-rule="nonzero"></path>
                </g>
                <g id="Reset" transform="translate(0.000000, 165.000000)">
                    <rect id="Rectangle" fill="#808080" x="0" y="0" width="51" height="40" rx="5"></rect>
                    <path d="M6,10 L6,9 L8,9 L8,10 L6,10 Z M6,7 L6,5 L4,5 L4,7 L6,7 Z M2,10 L2,4 L7,4 L7,5 L8,5 L8,7 L7,7 L7,8 L6,8 L6,9 L5,9 L5,8 L4,8 L4,10 L2,10 Z M9,10 L9,4 L15,4 L15,5 L11,5 L11,6 L14,6 L14,7 L11,7 L11,9 L15,9 L15,10 L9,10 Z M16,9 L16,8 L17,8 L17,9 L16,9 Z M17,10 L17,9 L19,9 L19,7 L17,7 L17,6 L16,6 L16,5 L17,5 L17,4 L21,4 L21,5 L18,5 L18,6 L21,6 L21,7 L22,7 L22,9 L21,9 L21,10 L17,10 Z M23,10 L23,4 L29,4 L29,5 L25,5 L25,6 L28,6 L28,7 L25,7 L25,9 L29,9 L29,10 L23,10 Z M32,10 L32,5 L30,5 L30,4 L36,4 L36,5 L34,5 L34,10 L32,10 Z" id="RESET" fill="#000000" fill-rule="nonzero"></path>
                </g>
            </g>
        </g>
        <g id="mixer" transform="translate(159.000000, 266.000000)">
            <g id="bg">
                <path d="M16.5,25.5 L234.5,25.5" id="normal" stroke="#3E3E3E" stroke-width="3" stroke-linecap="round" stroke-linejoin="round" stroke-dasharray="0,4"></path>
                <g id="mix" transform="translate(220.000000, 0.000000)">
                    <rect id="Rectangle" fill="#1A1A1A" x="0" y="0" width="32" height="40" rx="5"></rect>
                    <path d="M16,73 L16,40" id="Line-5" stroke="#1A1A1A" stroke-width="2" stroke-linecap="square"></path>
                    <path d="M3.5,10 L3.5,2.5 L4.75,2.5 L4.75,3.75 L6,3.75 L6,5 L7.25,5 L7.25,3.75 L8.5,3.75 L8.5,2.5 L11,2.5 L11,10 L8.5,10 L8.5,6.25 L7.25,6.25 L7.25,7.5 L6,7.5 L6,6.25 L4.75,6.25 L4.75,10 L3.5,10 Z M13.75,10 L13.75,8.75 L15,8.75 L15,3.75 L13.75,3.75 L13.75,2.5 L18.75,2.5 L18.75,3.75 L17.5,3.75 L17.5,8.75 L18.75,8.75 L18.75,10 L13.75,10 Z M27.75,10 L27.75,8.75 L29,8.75 L29,10 L27.75,10 Z M26.5,8.75 L26.5,7.5 L27.75,7.5 L27.75,8.75 L26.5,8.75 Z M22.75,5 L22.75,3.75 L24,3.75 L24,5 L22.75,5 Z M21.5,3.75 L21.5,2.5 L22.75,2.5 L22.75,3.75 L21.5,3.75 Z M21.5,10 L21.5,7.5 L22.75,7.5 L22.75,6.25 L24,6.25 L24,5 L25.25,5 L25.25,3.75 L26.5,3.75 L26.5,2.5 L29,2.5 L29,3.75 L27.75,3.75 L27.75,5 L26.5,5 L26.5,7.5 L24,7.5 L24,8.75 L22.75,8.75 L22.75,10 L21.5,10 Z" id="MIX" fill="#DCDCDC" fill-rule="nonzero"></path>
                </g>
                <g id="DMC" transform="translate(176.000000, 0.000000)">
                    <rect id="Rectangle" fill="#1A1A1A" x="0" y="0" width="32" height="40" rx="5"></rect>
                    <path d="M16,73 L16,40" id="Line-5" stroke="#1A1A1A" stroke-width="2" stroke-linecap="square"></path>
                    <path d="M7.25,8.75 L7.25,3.75 L4.75,3.75 L4.75,8.75 L7.25,8.75 Z M3.5,10 L3.5,2.5 L9.75,2.5 L9.75,3.75 L11,3.75 L11,8.75 L9.75,8.75 L9.75,10 L3.5,10 Z M12.5,10 L12.5,2.5 L13.75,2.5 L13.75,3.75 L15,3.75 L15,5 L16.25,5 L16.25,3.75 L17.5,3.75 L17.5,2.5 L20,2.5 L20,10 L17.5,10 L17.5,6.25 L16.25,6.25 L16.25,7.5 L15,7.5 L15,6.25 L13.75,6.25 L13.75,10 L12.5,10 Z M22.75,10 L22.75,8.75 L21.5,8.75 L21.5,3.75 L22.75,3.75 L22.75,2.5 L27.75,2.5 L27.75,3.75 L29,3.75 L29,5 L26.5,5 L26.5,3.75 L24,3.75 L24,8.75 L26.5,8.75 L26.5,7.5 L29,7.5 L29,8.75 L27.75,8.75 L27.75,10 L22.75,10 Z" fill="#DCDCDC" fill-rule="nonzero"></path>
                </g>
                <g id="noise" transform="translate(132.000000, 0.000000)">
                    <rect id="Rectangle" fill="#1A1A1A" x="0" y="0" width="32" height="40" rx="5"></rect>
                    <path d="M16,73 L16,40" id="Line-5" stroke="#1A1A1A" stroke-width="2" stroke-linecap="square"></path>
                    <path d="M3.5,10 L3.5,2.5 L4.75,2.5 L4.75,3.75 L6,3.75 L6,5 L7.25,5 L7.25,6.25 L8.5,6.25 L8.5,2.5 L11,2.5 L11,10 L8.5,10 L8.5,8.75 L7.25,8.75 L7.25,7.5 L6,7.5 L6,6.25 L4.75,6.25 L4.75,10 L3.5,10 Z M17.5,8.75 L17.5,3.75 L15,3.75 L15,8.75 L17.5,8.75 Z M13.75,10 L13.75,8.75 L12.5,8.75 L12.5,3.75 L13.75,3.75 L13.75,2.5 L18.75,2.5 L18.75,3.75 L20,3.75 L20,8.75 L18.75,8.75 L18.75,10 L13.75,10 Z M22.75,10 L22.75,8.75 L24,8.75 L24,3.75 L22.75,3.75 L22.75,2.5 L27.75,2.5 L27.75,3.75 L26.5,3.75 L26.5,8.75 L27.75,8.75 L27.75,10 L22.75,10 Z" id="NOI" fill="#DCDCDC" fill-rule="nonzero"></path>
                </g>
                <g id="triangle" transform="translate(88.000000, 0.000000)">
                    <rect id="Rectangle" fill="#1A1A1A" x="0" y="0" width="32" height="40" rx="5"></rect>
                    <path d="M16,73 L16,40" id="Line-5" stroke="#1A1A1A" stroke-width="2" stroke-linecap="square"></path>
                    <path d="M6,10 L6,3.75 L3.5,3.75 L3.5,2.5 L11,2.5 L11,3.75 L8.5,3.75 L8.5,10 L6,10 Z M17.5,10 L17.5,8.75 L20,8.75 L20,10 L17.5,10 Z M17.5,6.25 L17.5,3.75 L15,3.75 L15,6.25 L17.5,6.25 Z M12.5,10 L12.5,2.5 L18.75,2.5 L18.75,3.75 L20,3.75 L20,6.25 L18.75,6.25 L18.75,7.5 L17.5,7.5 L17.5,8.75 L16.25,8.75 L16.25,7.5 L15,7.5 L15,10 L12.5,10 Z M22.75,10 L22.75,8.75 L24,8.75 L24,3.75 L22.75,3.75 L22.75,2.5 L27.75,2.5 L27.75,3.75 L26.5,3.75 L26.5,8.75 L27.75,8.75 L27.75,10 L22.75,10 Z" id="TRI" fill="#DCDCDC" fill-rule="nonzero"></path>
                </g>
                <g id="square-2" transform="translate(44.000000, 0.000000)">
                    <rect id="Rectangle" fill="#1A1A1A" x="0" y="0" width="32" height="40" rx="5"></rect>
                    <path d="M16,73 L16,40" id="Line-5" stroke="#1A1A1A" stroke-width="2" stroke-linecap="square"></path>
                    <path d="M3.5,8.75 L3.5,7.5 L4.75,7.5 L4.75,8.75 L3.5,8.75 Z M4.75,10 L4.75,8.75 L7.25,8.75 L7.25,6.25 L4.75,6.25 L4.75,5 L3.5,5 L3.5,3.75 L4.75,3.75 L4.75,2.5 L9.75,2.5 L9.75,3.75 L6,3.75 L6,5 L9.75,5 L9.75,6.25 L11,6.25 L11,8.75 L9.75,8.75 L9.75,10 L4.75,10 Z M18.75,10 L18.75,8.75 L20,8.75 L20,10 L18.75,10 Z M17.5,8.75 L17.5,7.5 L18.75,7.5 L18.75,8.75 L17.5,8.75 Z M16.25,7.5 L16.25,6.25 L17.5,6.25 L17.5,7.5 L16.25,7.5 Z M18.75,7.5 L18.75,3.75 L20,3.75 L20,7.5 L18.75,7.5 Z M13.75,10 L13.75,8.75 L12.5,8.75 L12.5,3.75 L13.75,3.75 L13.75,2.5 L18.75,2.5 L18.75,3.75 L15,3.75 L15,8.75 L17.5,8.75 L17.5,10 L13.75,10 Z M21.5,5 L21.5,3.75 L22.75,3.75 L22.75,5 L21.5,5 Z M21.5,10 L21.5,7.5 L22.75,7.5 L22.75,6.25 L25.25,6.25 L25.25,3.75 L22.75,3.75 L22.75,2.5 L27.75,2.5 L27.75,3.75 L29,3.75 L29,6.25 L27.75,6.25 L27.75,7.5 L25.25,7.5 L25.25,8.75 L29,8.75 L29,10 L21.5,10 Z" id="SQ2" fill="#DCDCDC" fill-rule="nonzero"></path>
                </g>
                <g id="square-1">
                    <rect id="Rectangle" fill="#1A1A1A" x="0" y="0" width="32" height="40" rx="5"></rect>
                    <path d="M16,73 L16,40" id="Line-5" stroke="#1A1A1A" stroke-width="2" stroke-linecap="square"></path>
                    <path d="M3.5,8.75 L3.5,7.5 L4.75,7.5 L4.75,8.75 L3.5,8.75 Z M4.75,10 L4.75,8.75 L7.25,8.75 L7.25,6.25 L4.75,6.25 L4.75,5 L3.5,5 L3.5,3.75 L4.75,3.75 L4.75,2.5 L9.75,2.5 L9.75,3.75 L6,3.75 L6,5 L9.75,5 L9.75,6.25 L11,6.25 L11,8.75 L9.75,8.75 L9.75,10 L4.75,10 Z M18.75,10 L18.75,8.75 L20,8.75 L20,10 L18.75,10 Z M17.5,8.75 L17.5,7.5 L18.75,7.5 L18.75,8.75 L17.5,8.75 Z M16.25,7.5 L16.25,6.25 L17.5,6.25 L17.5,7.5 L16.25,7.5 Z M18.75,7.5 L18.75,3.75 L20,3.75 L20,7.5 L18.75,7.5 Z M13.75,10 L13.75,8.75 L12.5,8.75 L12.5,3.75 L13.75,3.75 L13.75,2.5 L18.75,2.5 L18.75,3.75 L15,3.75 L15,8.75 L17.5,8.75 L17.5,10 L13.75,10 Z M22.75,10 L22.75,8.75 L24,8.75 L24,5 L22.75,5 L22.75,3.75 L24,3.75 L24,2.5 L26.5,2.5 L26.5,8.75 L27.75,8.75 L27.75,10 L22.75,10 Z" id="SQ1" fill="#DCDCDC" fill-rule="nonzero"></path>
                </g>
            </g>
        </g>
        <g id="clock" transform="translate(112.000000, 35.000000)">
            <g id="bg">
                <path d="M17,189 L17,40" id="normal" stroke="#1A1A1A" stroke-width="2" stroke-linecap="square"></path>
                <g id="clock-mod" transform="translate(0.000000, 175.000000)" fill="#1A1A1A" fill-rule="nonzero">
                    <path d="M4.5,40 L4.5,32.5 L5.75,32.5 L5.75,33.75 L7,33.75 L7,35 L8.25,35 L8.25,33.75 L9.5,33.75 L9.5,32.5 L12,32.5 L12,40 L9.5,40 L9.5,36.25 L8.25,36.25 L8.25,37.5 L7,37.5 L7,36.25 L5.75,36.25 L5.75,40 L4.5,40 Z M17.8333333,38.75 L17.8333333,33.75 L15.3333333,33.75 L15.3333333,38.75 L17.8333333,38.75 Z M14.0833333,40 L14.0833333,38.75 L12.8333333,38.75 L12.8333333,33.75 L14.0833333,33.75 L14.0833333,32.5 L19.0833333,32.5 L19.0833333,33.75 L20.3333333,33.75 L20.3333333,38.75 L19.0833333,38.75 L19.0833333,40 L14.0833333,40 Z M24.9166667,38.75 L24.9166667,33.75 L22.4166667,33.75 L22.4166667,38.75 L24.9166667,38.75 Z M21.1666667,40 L21.1666667,32.5 L27.4166667,32.5 L27.4166667,33.75 L28.6666667,33.75 L28.6666667,38.75 L27.4166667,38.75 L27.4166667,40 L21.1666667,40 Z" id="MOD"></path>
                </g>
                <g id="clock-out">
                    <rect id="Rectangle" fill="#1A1A1A" x="0.5" y="0" width="32" height="40" rx="5"></rect>
                    <path d="M4.25,10 L4.25,8.75 L3,8.75 L3,3.75 L4.25,3.75 L4.25,2.5 L9.25,2.5 L9.25,3.75 L10.5,3.75 L10.5,5 L8,5 L8,3.75 L5.5,3.75 L5.5,8.75 L8,8.75 L8,7.5 L10.5,7.5 L10.5,8.75 L9.25,8.75 L9.25,10 L4.25,10 Z M12,10 L12,2.5 L14.5,2.5 L14.5,8.75 L19.5,8.75 L19.5,10 L12,10 Z M21,10 L21,2.5 L23.5,2.5 L23.5,5 L24.75,5 L24.75,3.75 L26,3.75 L26,2.5 L28.5,2.5 L28.5,3.75 L27.25,3.75 L27.25,5 L26,5 L26,7.5 L27.25,7.5 L27.25,8.75 L28.5,8.75 L28.5,10 L26,10 L26,8.75 L24.75,8.75 L24.75,7.5 L23.5,7.5 L23.5,10 L21,10 Z" id="CLK" fill="#DCDCDC" fill-rule="nonzero"></path>
                </g>
            </g>
        </g>
        <g id="player1">
            <g id="bg">
                <rect id="inner" fill="#1A1A1A" x="9" y="0" width="91" height="380"></rect>
                <g id="button-bgs" transform="translate(17.000000, 9.000000)">
                    <rect id="Rectangle" fill="#FFFFFF" x="0" y="3.55271368e-14" width="76" height="40" rx="5"></rect>
                    <rect id="Rectangle" fill="#FFFFFF" x="0" y="46" width="76" height="40" rx="5"></rect>
                    <rect id="Rectangle" fill="#FFFFFF" x="0" y="92" width="76" height="40" rx="5"></rect>
                    <rect id="Rectangle" fill="#FFFFFF" x="0" y="138" width="76" height="40" rx="5"></rect>
                    <rect id="Rectangle" fill="#808080" x="0" y="184" width="76" height="40" rx="5"></rect>
                    <rect id="Rectangle" fill="#808080" x="0" y="230" width="76" height="40" rx="5"></rect>
                    <rect id="Rectangle" fill="#DDDDDD" x="0" y="276" width="76" height="40" rx="5"></rect>
                    <rect id="Rectangle" fill="#DDDDDD" x="0" y="322" width="76" height="40" rx="5"></rect>
                </g>
                <g id="arrows" transform="translate(43.000000, 12.000000)" fill="#CECECE">
                    <polygon id="Triangle" points="16.5 0 33 33 0 33"></polygon>
                    <polygon id="Triangle-Copy-2" transform="translate(16.500000, 110.500000) rotate(-90.000000) translate(-16.500000, -110.500000) " points="16.5 94 33 127 0 127"></polygon>
                    <polygon id="Triangle-Copy-3" transform="translate(16.500000, 154.500000) rotate(-270.000000) translate(-16.500000, -154.500000) " points="16.5 138 33 171 0 171"></polygon>
                    <polygon id="Triangle-Copy" transform="translate(16.500000, 63.500000) scale(1, -1) translate(-16.500000, -63.500000) " points="16.5 47 33 80 0 80"></polygon>
                </g>
                <g id="text" transform="translate(49.000000, 10.000000)" fill-rule="nonzero">
                    <path d="M19.3333333,7 L19.3333333,2 L20.3333333,2 L20.3333333,7 L19.3333333,7 Z M20.3333333,8 L20.3333333,7 L22.3333333,7 L22.3333333,6 L23.3333333,6 L23.3333333,2 L25.3333333,2 L25.3333333,7 L24.3333333,7 L24.3333333,8 L20.3333333,8 Z M30,5 L30,3 L28,3 L28,5 L30,5 Z M26,8 L26,2 L31,2 L31,3 L32,3 L32,5 L31,5 L31,6 L28,6 L28,8 L26,8 Z" id="UP" fill="#FF0000"></path>
                    <path d="M14.6666667,53 L14.6666667,49 L12.6666667,49 L12.6666667,53 L14.6666667,53 Z M11.6666667,54 L11.6666667,48 L16.6666667,48 L16.6666667,49 L17.6666667,49 L17.6666667,53 L16.6666667,53 L16.6666667,54 L11.6666667,54 Z M22.3333333,53 L22.3333333,49 L20.3333333,49 L20.3333333,53 L22.3333333,53 Z M19.3333333,54 L19.3333333,53 L18.3333333,53 L18.3333333,49 L19.3333333,49 L19.3333333,48 L23.3333333,48 L23.3333333,49 L24.3333333,49 L24.3333333,53 L23.3333333,53 L23.3333333,54 L19.3333333,54 Z M25,54 L25,48 L26,48 L26,51 L27,51 L27,50 L28,50 L28,51 L29,51 L29,48 L31,48 L31,54 L29,54 L29,53 L28,53 L28,52 L27,52 L27,53 L26,53 L26,54 L25,54 Z M31.6666667,54 L31.6666667,48 L32.6666667,48 L32.6666667,49 L33.6666667,49 L33.6666667,50 L34.6666667,50 L34.6666667,51 L35.6666667,51 L35.6666667,48 L37.6666667,48 L37.6666667,54 L35.6666667,54 L35.6666667,53 L34.6666667,53 L34.6666667,52 L33.6666667,52 L33.6666667,51 L32.6666667,51 L32.6666667,54 L31.6666667,54 Z" id="DOWN" fill="#FF0000"></path>
                    <path d="M12.6666667,100 L12.6666667,94 L14.6666667,94 L14.6666667,99 L18.6666667,99 L18.6666667,100 L12.6666667,100 Z M19.3333333,100 L19.3333333,94 L25.3333333,94 L25.3333333,95 L21.3333333,95 L21.3333333,96 L24.3333333,96 L24.3333333,97 L21.3333333,97 L21.3333333,99 L25.3333333,99 L25.3333333,100 L19.3333333,100 Z M26,100 L26,94 L32,94 L32,95 L28,95 L28,97 L31,97 L31,98 L28,98 L28,100 L26,100 Z M34.6666667,100 L34.6666667,95 L32.6666667,95 L32.6666667,94 L38.6666667,94 L38.6666667,95 L36.6666667,95 L36.6666667,100 L34.6666667,100 Z" id="LEFT" fill="#FF0000"></path>
                    <path d="M11.3333333,146 L11.3333333,145 L13.3333333,145 L13.3333333,146 L11.3333333,146 Z M11.3333333,143 L11.3333333,141 L9.33333333,141 L9.33333333,143 L11.3333333,143 Z M7.33333333,146 L7.33333333,140 L12.3333333,140 L12.3333333,141 L13.3333333,141 L13.3333333,143 L12.3333333,143 L12.3333333,144 L11.3333333,144 L11.3333333,145 L10.3333333,145 L10.3333333,144 L9.33333333,144 L9.33333333,146 L7.33333333,146 Z M15,146 L15,145 L16,145 L16,141 L15,141 L15,140 L19,140 L19,141 L18,141 L18,145 L19,145 L19,146 L15,146 Z M21.6666667,146 L21.6666667,145 L20.6666667,145 L20.6666667,141 L21.6666667,141 L21.6666667,140 L25.6666667,140 L25.6666667,141 L26.6666667,141 L26.6666667,142 L24.6666667,142 L24.6666667,141 L22.6666667,141 L22.6666667,145 L24.6666667,145 L24.6666667,144 L23.6666667,144 L23.6666667,143 L26.6666667,143 L26.6666667,146 L21.6666667,146 Z M27.3333333,146 L27.3333333,140 L28.3333333,140 L28.3333333,142 L31.3333333,142 L31.3333333,140 L33.3333333,140 L33.3333333,146 L31.3333333,146 L31.3333333,143 L28.3333333,143 L28.3333333,146 L27.3333333,146 Z M36,146 L36,141 L34,141 L34,140 L40,140 L40,141 L38,141 L38,146 L36,146 Z" id="RIGHT" fill="#FF0000"></path>
                    <path d="M3,191 L3,190 L4,190 L4,191 L3,191 Z M4,192 L4,191 L6,191 L6,189 L4,189 L4,188 L3,188 L3,187 L4,187 L4,186 L8,186 L8,187 L5,187 L5,188 L8,188 L8,189 L9,189 L9,191 L8,191 L8,192 L4,192 Z M9.66666667,192 L9.66666667,186 L15.6666667,186 L15.6666667,187 L11.6666667,187 L11.6666667,188 L14.6666667,188 L14.6666667,189 L11.6666667,189 L11.6666667,191 L15.6666667,191 L15.6666667,192 L9.66666667,192 Z M16.3333333,192 L16.3333333,186 L18.3333333,186 L18.3333333,191 L22.3333333,191 L22.3333333,192 L16.3333333,192 Z M23,192 L23,186 L29,186 L29,187 L25,187 L25,188 L28,188 L28,189 L25,189 L25,191 L29,191 L29,192 L23,192 Z M30.6666667,192 L30.6666667,191 L29.6666667,191 L29.6666667,187 L30.6666667,187 L30.6666667,186 L34.6666667,186 L34.6666667,187 L35.6666667,187 L35.6666667,188 L33.6666667,188 L33.6666667,187 L31.6666667,187 L31.6666667,191 L33.6666667,191 L33.6666667,190 L35.6666667,190 L35.6666667,191 L34.6666667,191 L34.6666667,192 L30.6666667,192 Z M38.3333333,192 L38.3333333,187 L36.3333333,187 L36.3333333,186 L42.3333333,186 L42.3333333,187 L40.3333333,187 L40.3333333,192 L38.3333333,192 Z" id="SELECT" fill="#1A1A1A"></path>
                    <path d="M7.83333333,237 L7.83333333,236 L8.83333333,236 L8.83333333,237 L7.83333333,237 Z M8.83333333,238 L8.83333333,237 L10.8333333,237 L10.8333333,235 L8.83333333,235 L8.83333333,234 L7.83333333,234 L7.83333333,233 L8.83333333,233 L8.83333333,232 L12.8333333,232 L12.8333333,233 L9.83333333,233 L9.83333333,234 L12.8333333,234 L12.8333333,235 L13.8333333,235 L13.8333333,237 L12.8333333,237 L12.8333333,238 L8.83333333,238 Z M16.5,238 L16.5,233 L14.5,233 L14.5,232 L20.5,232 L20.5,233 L18.5,233 L18.5,238 L16.5,238 Z M21.1666667,238 L21.1666667,233 L22.1666667,233 L22.1666667,235 L24.1666667,235 L24.1666667,233 L22.1666667,233 L22.1666667,232 L26.1666667,232 L26.1666667,233 L27.1666667,233 L27.1666667,238 L24.1666667,238 L24.1666667,236 L22.1666667,236 L22.1666667,238 L21.1666667,238 Z M31.8333333,238 L31.8333333,237 L33.8333333,237 L33.8333333,238 L31.8333333,238 Z M31.8333333,235 L31.8333333,233 L29.8333333,233 L29.8333333,235 L31.8333333,235 Z M27.8333333,238 L27.8333333,232 L32.8333333,232 L32.8333333,233 L33.8333333,233 L33.8333333,235 L32.8333333,235 L32.8333333,236 L31.8333333,236 L31.8333333,237 L30.8333333,237 L30.8333333,236 L29.8333333,236 L29.8333333,238 L27.8333333,238 Z M36.5,238 L36.5,233 L34.5,233 L34.5,232 L40.5,232 L40.5,233 L38.5,233 L38.5,238 L36.5,238 Z" id="START" fill="#1A1A1A"></path>
                    <path d="M15.8,311 L15.8,307 L11.8,307 L11.8,311 L15.8,311 Z M15.8,305 L15.8,303 L11.8,303 L11.8,305 L15.8,305 Z M7.8,313 L7.8,301 L17.8,301 L17.8,303 L19.8,303 L19.8,305 L17.8,305 L17.8,307 L19.8,307 L19.8,311 L17.8,311 L17.8,313 L7.8,313 Z" id="B" fill="#FF0000"></path>
                    <polygon id="A" fill="#FF0000" points="7.8 359 7.8 349 9.8 349 9.8 353 13.8 353 13.8 349 9.8 349 9.8 347 17.8 347 17.8 349 19.8 349 19.8 359 13.8 359 13.8 355 9.8 355 9.8 359"></polygon>
                </g>
            </g>
        </g>
    </g>
</svg>