<?xml version="1.0" encoding="UTF-8"?>
<svg width="570px" height="380px" viewBox="0 0 570 380" version="1.1" xmlns="http://www.w3.org/2000/svg" xmlns:xlink="http://www.w3.org/1999/xlink">
    <!-- Generator: Sketch 61.2 (89653) - https://sketch.com -->
    <title>RackNES-Dark</title>
    <desc>Created with Sketch.</desc>
    <g id="RackNES-Dark" stroke="none" stroke-width="1" fill="none" fill-rule="evenodd">
        <g id="bg">
            <rect id="Background" fill="#333333" fill-rule="nonzero" x="0" y="0" width="570" height="380"></rect>
            <g id="branding" transform="translate(100.000000, 0.000000)" fill-rule="nonzero">
                <g id="Logo/Panel/DarkMode" transform="translate(153.000000, 364.000000)" fill="#FFFFFF">
                    <g id="Logo/Print/DarkMode">
                        <path d="M2.01990525,2.5075431 L3.49310173,2.5075431 L3.49310173,5.45096983 L6.2595994,2.5075431 L8.19468916,2.5075431 L5.25802028,5.45096983 L8.34541223,9.65517241 L6.42004654,9.65517241 L4.20782081,6.53232759 L3.49310173,7.26454741 L3.49310173,9.65517241 L2.01990525,9.65517241 L2.01990525,2.5075431 Z M11.9968002,7.08512931 C11.9092831,7.14008648 11.8209571,7.18453647 11.7318193,7.2184806 C11.6426816,7.25242474 11.5203216,7.28394382 11.3647357,7.31303879 L11.0535655,7.37122845 C10.761842,7.42295284 10.5527766,7.48599101 10.426363,7.56034483 C10.2124324,7.68642304 10.1054688,7.88200298 10.1054688,8.14709052 C10.1054688,8.38308308 10.1711056,8.55360939 10.3023812,8.65867457 C10.4336567,8.76373975 10.5932919,8.81627155 10.7812916,8.81627155 C11.0794978,8.81627155 11.3542,8.72898794 11.6054064,8.5544181 C11.8566128,8.37984827 11.9870761,8.06142473 11.9968002,7.59913793 L11.9968002,7.08512931 Z M11.1556682,6.44019397 C11.4117354,6.40786622 11.5948715,6.36745714 11.7050781,6.31896552 C11.9028019,6.23491337 12.0016622,6.10398796 12.0016622,5.92618534 C12.0016622,5.70958943 11.9263015,5.56007584 11.7755776,5.47764009 C11.6248538,5.39520433 11.4036334,5.35398707 11.1119099,5.35398707 C10.7845313,5.35398707 10.5527766,5.43480523 10.416639,5.59644397 C10.3193978,5.71605663 10.2545713,5.87769295 10.2221576,6.08135776 L8.88509807,6.08135776 C8.91427043,5.61907096 9.04392338,5.23922562 9.27406084,4.94181034 C9.64033594,4.47629078 10.2691528,4.24353448 11.1605303,4.24353448 C11.7407359,4.24353448 12.2561065,4.35829627 12.7066572,4.58782328 C13.157208,4.81735029 13.3824801,5.25053561 13.3824801,5.88739224 L13.3824801,8.31196121 C13.3824801,8.4800655 13.3857214,8.68372725 13.3922041,8.92295259 C13.4019282,9.10398797 13.4294795,9.22683157 13.4748587,9.29148707 C13.5202379,9.35614256 13.5883057,9.40948255 13.6790642,9.45150862 L13.6790642,9.65517241 L12.1718334,9.65517241 C12.1296956,9.54849085 12.1005237,9.44827633 12.0843168,9.35452586 C12.06811,9.26077539 12.0551447,9.15409543 12.0454205,9.03448276 C11.8541796,9.24138034 11.6337695,9.41756393 11.3841838,9.56303879 C11.0859776,9.73437586 10.7488799,9.8200431 10.3728807,9.8200431 C9.89315751,9.8200431 9.49690565,9.68346042 9.1841132,9.41029095 C8.87132074,9.13712148 8.71492686,8.75000251 8.71492686,8.24892241 C8.71492686,7.59913468 8.96612947,7.12877301 9.46854222,6.83782328 C9.74405889,6.67941731 10.1492244,6.56627189 10.6840509,6.49838362 L11.1556682,6.44019397 Z M15.9933926,4.36961207 L15.9933926,7.55549569 C15.9933926,7.85614374 16.0290472,8.08243459 16.1003574,8.234375 C16.2267709,8.50269531 16.4747322,8.63685345 16.8442487,8.63685345 C17.3174891,8.63685345 17.6416215,8.4461226 17.8166556,8.06465517 C17.907414,7.85775759 17.9527926,7.58459221 17.9527926,7.24515086 L17.9527926,4.36961207 L19.3579205,4.36961207 L19.3579205,9.65517241 L18.011137,9.65517241 L18.011137,8.90840517 L17.9942171,8.93168099 C17.9769731,8.95657315 17.9501996,8.99730575 17.9138963,9.05387931 C17.8620343,9.13469868 17.8004492,9.20581866 17.729139,9.26724138 C17.511967,9.46120787 17.3020913,9.59374964 17.0995055,9.66487069 C16.8969197,9.73599173 16.6594927,9.77155172 16.3872174,9.77155172 C15.6028053,9.77155172 15.0744694,9.49030454 14.8021941,8.92780172 C14.6498496,8.61745534 14.5736785,8.16002457 14.5736785,7.55549569 L14.5736785,4.36961207 L15.9933926,4.36961207 Z M20.1504322,5.40247845 L20.1504322,4.41810345 L20.8894614,4.41810345 L20.8894614,2.94396552 L22.2605552,2.94396552 L22.2605552,4.41810345 L23.1211353,4.41810345 L23.1211353,5.40247845 L22.2605552,5.40247845 L22.2605552,8.1955819 C22.2605552,8.41217781 22.2881064,8.54714413 22.3432098,8.60048491 C22.3983131,8.6538257 22.566862,8.68049569 22.8488614,8.68049569 C22.8909992,8.68049569 22.9355674,8.67968751 22.9825673,8.67807112 C23.0295672,8.67645473 23.0757561,8.67403019 23.1211353,8.67079741 L23.1211353,9.70366379 L22.4647606,9.72790948 C21.8100034,9.75053891 21.3627007,9.63739349 21.1228391,9.38846983 C20.9672532,9.23006386 20.8894614,8.98599303 20.8894614,8.65625 L20.8894614,5.40247845 L20.1504322,5.40247845 Z M26.1015625,5.36853448 C25.7806666,5.36853448 25.531895,5.468749 25.3552402,5.66918103 C25.1785854,5.86961307 25.06757,6.14116208 25.0221908,6.48383621 L27.1760721,6.48383621 C27.1533825,6.11853266 27.0423672,5.84132638 26.8430228,5.65220905 C26.6436784,5.46309173 26.3965274,5.36853448 26.1015625,5.36853448 Z M26.1015625,4.22898707 C26.5423892,4.22898707 26.9394514,4.31142159 27.292761,4.4762931 C27.6460706,4.64116462 27.9377897,4.90139908 28.1679272,5.25700431 C28.375375,5.57058346 28.50989,5.93426517 28.5714761,6.34806034 C28.6071312,6.59051845 28.6217171,6.93965289 28.6152344,7.39547414 L24.9881566,7.39547414 C25.0076048,7.9256492 25.174533,8.29741273 25.4889461,8.51077586 C25.6801871,8.64331963 25.9103211,8.70959052 26.1793551,8.70959052 C26.4645958,8.70959052 26.6963505,8.62877236 26.874626,8.46713362 C26.9718672,8.3798487 27.0577623,8.25862147 27.1323138,8.10344828 L28.5471659,8.10344828 C28.5115108,8.41702743 28.3478239,8.73545097 28.0561004,9.05872845 C27.6023082,9.57273964 26.9670087,9.82974138 26.1501828,9.82974138 C25.4759773,9.82974138 24.8811944,9.61314872 24.3658162,9.1799569 C23.8504379,8.74676508 23.5927527,8.04203074 23.5927527,7.06573276 C23.5927527,6.15085749 23.8253177,5.44935589 24.2904546,4.9612069 C24.7555916,4.4730579 25.3592882,4.22898707 26.1015625,4.22898707 Z M32.4854139,4.24353448 C33.0332059,4.24353448 33.4813189,4.38658262 33.8297665,4.67268319 C34.178214,4.95878376 34.3524352,5.43318634 34.3524352,6.09590517 L34.3524352,9.65517241 L32.9327211,9.65517241 L32.9327211,6.44019397 C32.9327211,6.16217533 32.8954459,5.9488154 32.8208943,5.80010776 C32.6847566,5.52855468 32.4254507,5.39278017 32.0429688,5.39278017 C31.5729697,5.39278017 31.250458,5.59159284 31.0754239,5.98922414 C30.9846654,6.1993545 30.9392869,6.46767078 30.9392869,6.79418103 L30.9392869,9.65517241 L29.5584691,9.65517241 L29.5584691,4.37931034 L30.8955286,4.37931034 L30.8955286,5.15032328 C31.0738041,4.87877019 31.2423529,4.68319025 31.4011802,4.56357759 C31.686421,4.35021445 32.0478286,4.24353448 32.4854139,4.24353448 Z M37.0800366,3.73922414 L35.6943567,3.73922414 L35.6943567,2.46390086 L37.0800366,2.46390086 L37.0800366,3.73922414 Z M35.028258,11.7742457 L35.028258,10.6686422 L35.1803485,10.6800453 L35.1803485,10.6800453 L35.1935672,10.6807651 C35.2259809,10.6823815 35.2551528,10.6831897 35.2810838,10.6831897 C35.4172214,10.6831897 35.5201335,10.6500542 35.589823,10.5837823 C35.6595125,10.5175104 35.6943567,10.3890096 35.6943567,10.1982759 L35.6943567,4.39385776 L37.0800366,4.39385776 L37.0800366,10.2225216 C37.0800366,10.7559294 36.9746935,11.150322 36.7640043,11.4057112 C36.5601115,11.6528621 36.166498,11.780422 35.5831525,11.7883945 L35.5241855,11.7887931 C35.5001067,11.7887931 35.4694132,11.7882653 35.4321046,11.7872097 L35.1288725,11.7770166 C35.0969882,11.776093 35.06345,11.7751693 35.028258,11.7742457 Z M41.3197307,7.08512931 C41.2322137,7.14008648 41.1438876,7.18453647 41.0547498,7.2184806 C40.9656121,7.25242474 40.8432521,7.28394382 40.6876662,7.31303879 L40.376496,7.37122845 C40.0847725,7.42295284 39.8757071,7.48599101 39.7492936,7.56034483 C39.535363,7.68642304 39.4283993,7.88200298 39.4283993,8.14709052 C39.4283993,8.38308308 39.4940361,8.55360939 39.6253117,8.65867457 C39.7565873,8.76373975 39.9162225,8.81627155 40.1042221,8.81627155 C40.4024284,8.81627155 40.6771306,8.72898794 40.9283369,8.5544181 C41.1795433,8.37984827 41.3100066,8.06142473 41.3197307,7.59913793 L41.3197307,7.08512931 Z M40.4785987,6.44019397 C40.7346659,6.40786622 40.917802,6.36745714 41.0280086,6.31896552 C41.2257324,6.23491337 41.3245928,6.10398796 41.3245928,5.92618534 C41.3245928,5.70958943 41.249232,5.56007584 41.0985081,5.47764009 C40.9477843,5.39520433 40.726564,5.35398707 40.4348404,5.35398707 C40.1074618,5.35398707 39.8757071,5.43480523 39.7395695,5.59644397 C39.6423283,5.71605663 39.5775018,5.87769295 39.5450881,6.08135776 L38.2080286,6.08135776 C38.2372009,5.61907096 38.3668539,5.23922562 38.5969914,4.94181034 C38.9632665,4.47629078 39.5920833,4.24353448 40.4834608,4.24353448 C41.0636665,4.24353448 41.579037,4.35829627 42.0295878,4.58782328 C42.4801386,4.81735029 42.7054106,5.25053561 42.7054106,5.88739224 L42.7054106,8.31196121 C42.7054106,8.4800655 42.7086519,8.68372725 42.7151346,8.92295259 C42.7248588,9.10398797 42.75241,9.22683157 42.7977892,9.29148707 C42.8431684,9.35614256 42.9112362,9.40948255 43.0019947,9.45150862 L43.0019947,9.65517241 L41.494764,9.65517241 C41.4526261,9.54849085 41.4234542,9.44827633 41.4072473,9.35452586 C41.3910405,9.26077539 41.3780752,9.15409543 41.3683511,9.03448276 C41.1771101,9.24138034 40.9567001,9.41756393 40.7071144,9.56303879 C40.4089081,9.73437586 40.0718104,9.8200431 39.6958112,9.8200431 C39.216088,9.8200431 38.8198362,9.68346042 38.5070437,9.41029095 C38.1942513,9.13712148 38.0378574,8.75000251 38.0378574,8.24892241 C38.0378574,7.59913468 38.28906,7.12877301 38.7914727,6.83782328 C39.0669894,6.67941731 39.4721549,6.56627189 40.0069814,6.49838362 L40.4785987,6.44019397 Z M45.5010805,3.74892241 L45.5010805,8.4137931 L46.8818983,8.4137931 C47.5885175,8.4137931 48.0811987,8.06627503 48.3599568,7.37122845 C48.5123013,6.98976102 48.5884724,6.53556298 48.5884724,6.00862069 C48.5884724,5.28124636 48.4742157,4.7227929 48.245699,4.33324353 C48.0171822,3.94369417 47.5625865,3.74892241 46.8818983,3.74892241 L45.5010805,3.74892241 Z M47.1347241,2.5075431 C47.5787921,2.51400865 47.948303,2.56573227 48.243268,2.66271552 C48.7456807,2.82758703 49.1524669,3.12984694 49.4636386,3.56950431 C49.7132243,3.92510954 49.8833938,4.30980397 49.9741523,4.72359914 C50.0649107,5.13739431 50.1102892,5.53178692 50.1102892,5.90678879 C50.1102892,6.85722458 49.9190511,7.66217343 49.5365691,8.32165948 C49.0179495,9.21067255 48.2173425,9.65517241 47.1347241,9.65517241 L44.0473321,9.65517241 L44.0473321,2.5075431 L47.1347241,2.5075431 Z M52.322515,7.44881466 C52.3678942,7.77532491 52.4570306,8.01939574 52.5899269,8.18103448 C52.8330298,8.47521699 53.2495399,8.62230603 53.8394697,8.62230603 C54.1927794,8.62230603 54.4796365,8.58351332 54.7000499,8.50592672 C55.1181869,8.35721908 55.3272523,8.08082099 55.3272523,7.67672414 C55.3272523,7.44073158 55.22353,7.25808254 55.0160821,7.12877155 C54.8190067,7.00899725 54.5151608,6.90235356 54.104536,6.80883762 L53.2803358,6.62446121 C52.5348201,6.45635692 52.0194496,6.27370788 51.7342088,6.07650862 C51.2512443,5.74676559 51.0097656,5.23114575 51.0097656,4.52963362 C51.0097656,3.88954421 51.243141,3.35776074 51.7098986,2.93426724 C52.1766563,2.51077374 52.8621963,2.29903017 53.7665392,2.29903017 C54.521779,2.29903017 55.1659922,2.49865102 55.699198,2.89789871 C56.2324038,3.29714639 56.511968,3.87661258 56.5378989,4.63631466 L55.0987367,4.63631466 C55.0728057,4.20635561 54.8848089,3.90086297 54.5347407,3.71982759 C54.3013619,3.60021492 54.0112634,3.54040948 53.6644365,3.54040948 C53.2787132,3.54040948 52.9707874,3.61799491 52.7406499,3.7731681 C52.5105125,3.92834129 52.3954455,4.14493395 52.3954455,4.42295259 C52.3954455,4.66673319 52.4988129,4.85159989 52.7055507,4.97755764 L52.7357879,4.99515086 C52.8758152,5.07584092 53.1681879,5.16993658 53.6129142,5.27744046 L54.9042553,5.58674569 C55.4455645,5.71605668 55.8539714,5.88900754 56.129488,6.10560345 C56.5573492,6.44181203 56.7712766,6.92833733 56.7712766,7.56519397 C56.7712766,8.21821447 56.5208843,8.76050431 56.0200923,9.19207974 C55.5193002,9.62365518 54.8118812,9.83943966 53.8978142,9.83943966 C52.9642989,9.83943966 52.230139,9.6268879 51.6953125,9.20177802 C51.160486,8.77666813 50.8930768,8.19235286 50.8930768,7.44881466 L52.322515,7.44881466 Z M61.9153092,4.78178879 C61.9153092,4.41001969 61.8172591,4.14493614 61.6211561,3.98653017 C61.425053,3.82812421 61.1503508,3.74892241 60.7970412,3.74892241 L59.4016373,3.74892241 L59.4016373,5.85344828 L60.7970412,5.85344828 C61.1503508,5.85344828 61.425053,5.76778103 61.6211561,5.59644397 C61.8172591,5.4251069 61.9153092,5.15355789 61.9153092,4.78178879 Z M63.3982297,4.77209052 C63.3982297,5.61584474 63.1843023,6.21228274 62.7564412,6.56142241 C62.32858,6.91056209 61.7175904,7.08512931 60.9234541,7.08512931 L59.4016373,7.08512931 L59.4016373,9.65517241 L57.9138547,9.65517241 L57.9138547,2.5075431 L61.0352809,2.5075431 C61.7548656,2.5075431 62.32858,2.6918085 62.7564412,3.06034483 C63.1843023,3.42888115 63.3982297,3.99945734 63.3982297,4.77209052 Z" id="KautenjaDSP"></path>
                    </g>
                </g>
                <path d="M148.671875,7.5546875 L155.703125,7.5546875 L155.703125,5.796875 L148.671875,5.796875 L148.671875,7.5546875 Z M148.671875,9.8984375 L148.671875,14 L146.328125,14 L146.328125,3.453125 L154.53125,3.453125 C156.875012,3.453125 158.046875,4.5234268 158.046875,6.6640625 C158.046875,7.67969258 157.878908,8.42577887 157.542969,8.90234375 C157.878908,9.45703402 158.046875,10.179683 158.046875,11.0703125 L158.046875,14 L155.703125,14 L155.703125,11.0703125 C155.703125,10.2890586 155.312504,9.8984375 154.53125,9.8984375 L148.671875,9.8984375 Z M165.46875,10.484375 L165.46875,9.3125 C165.46875,8.79166406 165.208336,8.53125 164.6875,8.53125 L161.5625,8.53125 C161.041664,8.53125 160.78125,8.79166406 160.78125,9.3125 L160.78125,10.484375 L165.46875,10.484375 Z M160.78125,12.046875 L160.78125,14 L159.21875,14 L159.21875,9.3125 C159.21875,7.74999219 159.999992,6.96875 161.5625,6.96875 L164.6875,6.96875 C166.250008,6.96875 167.03125,7.74999219 167.03125,9.3125 L167.03125,14 L165.46875,14 L165.46875,12.046875 L160.78125,12.046875 Z M175.625,14 L170.15625,14 C168.593742,14 167.8125,13.2187578 167.8125,11.65625 L167.8125,9.3125 C167.8125,7.74999219 168.593742,6.96875 170.15625,6.96875 L175.625,6.96875 L175.625,8.53125 L170.15625,8.53125 C169.635414,8.53125 169.375,8.79166406 169.375,9.3125 L169.375,11.65625 C169.375,12.1770859 169.635414,12.4375 170.15625,12.4375 L175.625,12.4375 L175.625,14 Z M177.96875,11.265625 L177.96875,14 L176.40625,14 L176.40625,6.96875 L177.96875,6.96875 L177.96875,9.703125 L181.875,9.703125 C182.395836,9.703125 182.65625,9.44271094 182.65625,8.921875 L182.65625,6.96875 L184.21875,6.96875 L184.21875,8.921875 C184.21875,9.58333664 184.078126,10.1041648 183.796875,10.484375 C184.078126,10.8645852 184.21875,11.3854134 184.21875,12.046875 L184.21875,14 L182.65625,14 L182.65625,12.046875 C182.65625,11.5260391 182.395836,11.265625 181.875,11.265625 L177.96875,11.265625 Z M185,14 L185,3.453125 L193.203125,3.453125 C195.546887,3.453125 196.71875,4.62498828 196.71875,6.96875 L196.71875,14 L194.375,14 L194.375,6.96875 C194.375,6.18749609 193.984379,5.796875 193.203125,5.796875 L187.34375,5.796875 L187.34375,14 L185,14 Z M209.609375,14 L201.40625,14 C199.062488,14 197.890625,12.8281367 197.890625,10.484375 L197.890625,3.453125 L209.609375,3.453125 L209.609375,5.796875 L200.234375,5.796875 L200.234375,7.5546875 L209.609375,7.5546875 L209.609375,9.8984375 L200.234375,9.8984375 L200.234375,10.484375 C200.234375,11.2656289 200.624996,11.65625 201.40625,11.65625 L209.609375,11.65625 L209.609375,14 Z M210.78125,14 L210.78125,11.65625 L220.15625,11.65625 L220.15625,9.8984375 L214.296875,9.8984375 C211.953113,9.8984375 210.78125,8.83985434 210.78125,6.72265625 C210.78125,4.54295785 211.953113,3.453125 214.296875,3.453125 L222.5,3.453125 L222.5,5.796875 L213.125,5.796875 L213.125,7.5546875 L218.984375,7.5546875 C221.328137,7.5546875 222.5,8.62889551 222.5,10.7773438 C222.5,12.925792 221.328137,14 218.984375,14 L210.78125,14 Z" id="RackNES" fill="#FF0000"></path>
            </g>
            <g id="screen/blank" transform="translate(157.000000, 18.000000)" fill="#000000">
                <rect id="Screen" x="0" y="0" width="256" height="240"></rect>
            </g>
        </g>
        <g id="player2" transform="translate(514.000000, 190.000000) scale(-1, 1) translate(-514.000000, -190.000000) translate(458.000000, 0.000000)">
            <g id="bg">
                <rect id="inner" fill="#1A1A1A" x="9" y="0" width="91" height="380"></rect>
                <g id="button-bgs" transform="translate(17.000000, 9.000000)">
                    <rect id="Rectangle" fill="#333333" x="0" y="3.55271368e-14" width="76" height="40" rx="5"></rect>
                    <rect id="Rectangle" fill="#333333" x="0" y="46" width="76" height="40" rx="5"></rect>
                    <rect id="Rectangle" fill="#333333" x="0" y="92" width="76" height="40" rx="5"></rect>
                    <rect id="Rectangle" fill="#333333" x="0" y="138" width="76" height="40" rx="5"></rect>
                    <rect id="Rectangle" fill="#5A5A5A" x="0" y="184" width="76" height="40" rx="5"></rect>
                    <rect id="Rectangle" fill="#5A5A5A" x="0" y="230" width="76" height="40" rx="5"></rect>
                    <rect id="Rectangle" fill="#333333" x="0" y="276" width="76" height="40" rx="5"></rect>
                    <rect id="Rectangle" fill="#333333" x="0" y="322" width="76" height="40" rx="5"></rect>
                </g>
                <g id="arrows" transform="translate(41.000000, 13.000000)" fill="#1A1A1A">
                    <polygon id="Triangle" points="16.5 0 33 33 0 33"></polygon>
                    <polygon id="Triangle-Copy-2" transform="translate(16.500000, 110.500000) rotate(-90.000000) translate(-16.500000, -110.500000) " points="16.5 94 33 127 0 127"></polygon>
                    <polygon id="Triangle-Copy-3" transform="translate(16.500000, 154.500000) rotate(-270.000000) translate(-16.500000, -154.500000) " points="16.5 138 33 171 0 171"></polygon>
                    <polygon id="Triangle-Copy" transform="translate(16.500000, 63.500000) scale(1, -1) translate(-16.500000, -63.500000) " points="16.5 47 33 80 0 80"></polygon>
                </g>
                <g id="text" transform="translate(45.000000, 10.000000)" fill-rule="nonzero">
                    <path d="M23.3333333,7 L23.3333333,2 L24.3333333,2 L24.3333333,7 L23.3333333,7 Z M24.3333333,8 L24.3333333,7 L26.3333333,7 L26.3333333,6 L27.3333333,6 L27.3333333,2 L29.3333333,2 L29.3333333,7 L28.3333333,7 L28.3333333,8 L24.3333333,8 Z M34,5 L34,3 L32,3 L32,5 L34,5 Z M30,8 L30,2 L35,2 L35,3 L36,3 L36,5 L35,5 L35,6 L32,6 L32,8 L30,8 Z" id="UP" fill="#FF0000" transform="translate(29.666667, 5.000000) scale(-1, 1) translate(-29.666667, -5.000000) "></path>
                    <path d="M18.6666667,53 L18.6666667,49 L16.6666667,49 L16.6666667,53 L18.6666667,53 Z M15.6666667,54 L15.6666667,48 L20.6666667,48 L20.6666667,49 L21.6666667,49 L21.6666667,53 L20.6666667,53 L20.6666667,54 L15.6666667,54 Z M26.3333333,53 L26.3333333,49 L24.3333333,49 L24.3333333,53 L26.3333333,53 Z M23.3333333,54 L23.3333333,53 L22.3333333,53 L22.3333333,49 L23.3333333,49 L23.3333333,48 L27.3333333,48 L27.3333333,49 L28.3333333,49 L28.3333333,53 L27.3333333,53 L27.3333333,54 L23.3333333,54 Z M29,54 L29,48 L30,48 L30,51 L31,51 L31,50 L32,50 L32,51 L33,51 L33,48 L35,48 L35,54 L33,54 L33,53 L32,53 L32,52 L31,52 L31,53 L30,53 L30,54 L29,54 Z M35.6666667,54 L35.6666667,48 L36.6666667,48 L36.6666667,49 L37.6666667,49 L37.6666667,50 L38.6666667,50 L38.6666667,51 L39.6666667,51 L39.6666667,48 L41.6666667,48 L41.6666667,54 L39.6666667,54 L39.6666667,53 L38.6666667,53 L38.6666667,52 L37.6666667,52 L37.6666667,51 L36.6666667,51 L36.6666667,54 L35.6666667,54 Z" id="DOWN" fill="#FF0000" transform="translate(28.666667, 51.000000) scale(-1, 1) translate(-28.666667, -51.000000) "></path>
                    <path d="M16.6666667,100 L16.6666667,94 L18.6666667,94 L18.6666667,99 L22.6666667,99 L22.6666667,100 L16.6666667,100 Z M23.3333333,100 L23.3333333,94 L29.3333333,94 L29.3333333,95 L25.3333333,95 L25.3333333,96 L28.3333333,96 L28.3333333,97 L25.3333333,97 L25.3333333,99 L29.3333333,99 L29.3333333,100 L23.3333333,100 Z M30,100 L30,94 L36,94 L36,95 L32,95 L32,97 L35,97 L35,98 L32,98 L32,100 L30,100 Z M38.6666667,100 L38.6666667,95 L36.6666667,95 L36.6666667,94 L42.6666667,94 L42.6666667,95 L40.6666667,95 L40.6666667,100 L38.6666667,100 Z" id="LEFT" fill="#FF0000" transform="translate(29.666667, 97.000000) scale(-1, 1) translate(-29.666667, -97.000000) "></path>
                    <path d="M15.3333333,146 L15.3333333,145 L17.3333333,145 L17.3333333,146 L15.3333333,146 Z M15.3333333,143 L15.3333333,141 L13.3333333,141 L13.3333333,143 L15.3333333,143 Z M11.3333333,146 L11.3333333,140 L16.3333333,140 L16.3333333,141 L17.3333333,141 L17.3333333,143 L16.3333333,143 L16.3333333,144 L15.3333333,144 L15.3333333,145 L14.3333333,145 L14.3333333,144 L13.3333333,144 L13.3333333,146 L11.3333333,146 Z M19,146 L19,145 L20,145 L20,141 L19,141 L19,140 L23,140 L23,141 L22,141 L22,145 L23,145 L23,146 L19,146 Z M25.6666667,146 L25.6666667,145 L24.6666667,145 L24.6666667,141 L25.6666667,141 L25.6666667,140 L29.6666667,140 L29.6666667,141 L30.6666667,141 L30.6666667,142 L28.6666667,142 L28.6666667,141 L26.6666667,141 L26.6666667,145 L28.6666667,145 L28.6666667,144 L27.6666667,144 L27.6666667,143 L30.6666667,143 L30.6666667,146 L25.6666667,146 Z M31.3333333,146 L31.3333333,140 L32.3333333,140 L32.3333333,142 L35.3333333,142 L35.3333333,140 L37.3333333,140 L37.3333333,146 L35.3333333,146 L35.3333333,143 L32.3333333,143 L32.3333333,146 L31.3333333,146 Z M40,146 L40,141 L38,141 L38,140 L44,140 L44,141 L42,141 L42,146 L40,146 Z" id="RIGHT" fill="#FF0000" transform="translate(27.666667, 143.000000) scale(-1, 1) translate(-27.666667, -143.000000) "></path>
                    <path d="M7,191 L7,190 L8,190 L8,191 L7,191 Z M8,192 L8,191 L10,191 L10,189 L8,189 L8,188 L7,188 L7,187 L8,187 L8,186 L12,186 L12,187 L9,187 L9,188 L12,188 L12,189 L13,189 L13,191 L12,191 L12,192 L8,192 Z M13.6666667,192 L13.6666667,186 L19.6666667,186 L19.6666667,187 L15.6666667,187 L15.6666667,188 L18.6666667,188 L18.6666667,189 L15.6666667,189 L15.6666667,191 L19.6666667,191 L19.6666667,192 L13.6666667,192 Z M20.3333333,192 L20.3333333,186 L22.3333333,186 L22.3333333,191 L26.3333333,191 L26.3333333,192 L20.3333333,192 Z M27,192 L27,186 L33,186 L33,187 L29,187 L29,188 L32,188 L32,189 L29,189 L29,191 L33,191 L33,192 L27,192 Z M34.6666667,192 L34.6666667,191 L33.6666667,191 L33.6666667,187 L34.6666667,187 L34.6666667,186 L38.6666667,186 L38.6666667,187 L39.6666667,187 L39.6666667,188 L37.6666667,188 L37.6666667,187 L35.6666667,187 L35.6666667,191 L37.6666667,191 L37.6666667,190 L39.6666667,190 L39.6666667,191 L38.6666667,191 L38.6666667,192 L34.6666667,192 Z M42.3333333,192 L42.3333333,187 L40.3333333,187 L40.3333333,186 L46.3333333,186 L46.3333333,187 L44.3333333,187 L44.3333333,192 L42.3333333,192 Z" id="SELECT" fill="#1A1A1A" transform="translate(26.666667, 189.000000) scale(-1, 1) translate(-26.666667, -189.000000) "></path>
                    <path d="M11.8333333,237 L11.8333333,236 L12.8333333,236 L12.8333333,237 L11.8333333,237 Z M12.8333333,238 L12.8333333,237 L14.8333333,237 L14.8333333,235 L12.8333333,235 L12.8333333,234 L11.8333333,234 L11.8333333,233 L12.8333333,233 L12.8333333,232 L16.8333333,232 L16.8333333,233 L13.8333333,233 L13.8333333,234 L16.8333333,234 L16.8333333,235 L17.8333333,235 L17.8333333,237 L16.8333333,237 L16.8333333,238 L12.8333333,238 Z M20.5,238 L20.5,233 L18.5,233 L18.5,232 L24.5,232 L24.5,233 L22.5,233 L22.5,238 L20.5,238 Z M25.1666667,238 L25.1666667,233 L26.1666667,233 L26.1666667,235 L28.1666667,235 L28.1666667,233 L26.1666667,233 L26.1666667,232 L30.1666667,232 L30.1666667,233 L31.1666667,233 L31.1666667,238 L28.1666667,238 L28.1666667,236 L26.1666667,236 L26.1666667,238 L25.1666667,238 Z M35.8333333,238 L35.8333333,237 L37.8333333,237 L37.8333333,238 L35.8333333,238 Z M35.8333333,235 L35.8333333,233 L33.8333333,233 L33.8333333,235 L35.8333333,235 Z M31.8333333,238 L31.8333333,232 L36.8333333,232 L36.8333333,233 L37.8333333,233 L37.8333333,235 L36.8333333,235 L36.8333333,236 L35.8333333,236 L35.8333333,237 L34.8333333,237 L34.8333333,236 L33.8333333,236 L33.8333333,238 L31.8333333,238 Z M40.5,238 L40.5,233 L38.5,233 L38.5,232 L44.5,232 L44.5,233 L42.5,233 L42.5,238 L40.5,238 Z" id="START" fill="#1A1A1A" transform="translate(28.166667, 235.000000) scale(-1, 1) translate(-28.166667, -235.000000) "></path>
                    <path d="M16.8,311 L16.8,307 L12.8,307 L12.8,311 L16.8,311 Z M16.8,305 L16.8,303 L12.8,303 L12.8,305 L16.8,305 Z M8.8,313 L8.8,301 L18.8,301 L18.8,303 L20.8,303 L20.8,305 L18.8,305 L18.8,307 L20.8,307 L20.8,311 L18.8,311 L18.8,313 L8.8,313 Z" id="B" fill="#FF0000" transform="translate(14.800000, 307.000000) scale(-1, 1) translate(-14.800000, -307.000000) "></path>
                    <polygon id="A" fill="#FF0000" transform="translate(14.800000, 353.000000) scale(-1, 1) translate(-14.800000, -353.000000) " points="8.8 359 8.8 349 10.8 349 10.8 353 14.8 353 14.8 349 10.8 349 10.8 347 18.8 347 18.8 349 20.8 349 20.8 359 14.8 359 14.8 355 10.8 355 10.8 359"></polygon>
                </g>
            </g>
        </g>
        <g id="console-control" transform="translate(416.000000, 35.000000)">
            <g id="bg">
                <g id="Save">
                    <rect id="Rectangle" fill="#808080" x="0" y="0" width="51" height="40" rx="5"></rect>
                    <path d="M2,9 L2,8 L3,8 L3,9 L2,9 Z M3,10 L3,9 L5,9 L5,7 L3,7 L3,6 L2,6 L2,5 L3,5 L3,4 L7,4 L7,5 L4,5 L4,6 L7,6 L7,7 L8,7 L8,9 L7,9 L7,10 L3,10 Z M9,10 L9,5 L10,5 L10,7 L12,7 L12,5 L10,5 L10,4 L14,4 L14,5 L15,5 L15,10 L12,10 L12,8 L10,8 L10,10 L9,10 Z M17,9 L17,8 L18,8 L18,9 L17,9 Z M16,8 L16,4 L17,4 L17,8 L16,8 Z M18,10 L18,9 L19,9 L19,8 L20,8 L20,4 L22,4 L22,8 L21,8 L21,9 L20,9 L20,10 L18,10 Z M23,10 L23,4 L29,4 L29,5 L25,5 L25,6 L28,6 L28,7 L25,7 L25,9 L29,9 L29,10 L23,10 Z" id="SAVE" fill="#000000" fill-rule="nonzero"></path>
                </g>
                <g id="Load" transform="translate(0.000000, 55.000000)">
                    <rect id="Rectangle" fill="#808080" x="0" y="0" width="51" height="40" rx="5"></rect>
                    <path d="M2,10 L2,4 L4,4 L4,9 L8,9 L8,10 L2,10 Z M13,9 L13,5 L11,5 L11,9 L13,9 Z M10,10 L10,9 L9,9 L9,5 L10,5 L10,4 L14,4 L14,5 L15,5 L15,9 L14,9 L14,10 L10,10 Z M16,10 L16,5 L17,5 L17,7 L19,7 L19,5 L17,5 L17,4 L21,4 L21,5 L22,5 L22,10 L19,10 L19,8 L17,8 L17,10 L16,10 Z M26,9 L26,5 L24,5 L24,9 L26,9 Z M23,10 L23,4 L28,4 L28,5 L29,5 L29,9 L28,9 L28,10 L23,10 Z" id="LOAD" fill="#000000" fill-rule="nonzero"></path>
                </g>
                <g id="Hang" transform="translate(0.000000, 110.000000)">
                    <rect id="Rectangle" fill="#808080" x="0" y="0" width="51" height="40" rx="5"></rect>
                    <path d="M2,10 L2,4 L3,4 L3,6 L6,6 L6,4 L8,4 L8,10 L6,10 L6,7 L3,7 L3,10 L2,10 Z M9,10 L9,5 L10,5 L10,7 L12,7 L12,5 L10,5 L10,4 L14,4 L14,5 L15,5 L15,10 L12,10 L12,8 L10,8 L10,10 L9,10 Z M16,10 L16,4 L17,4 L17,5 L18,5 L18,6 L19,6 L19,7 L20,7 L20,4 L22,4 L22,10 L20,10 L20,9 L19,9 L19,8 L18,8 L18,7 L17,7 L17,10 L16,10 Z M24,10 L24,9 L23,9 L23,5 L24,5 L24,4 L28,4 L28,5 L29,5 L29,6 L27,6 L27,5 L25,5 L25,9 L27,9 L27,8 L26,8 L26,7 L29,7 L29,10 L24,10 Z" id="HANG" fill="#000000" fill-rule="nonzero"></path>
                </g>
                <g id="Reset" transform="translate(0.000000, 165.000000)">
                    <rect id="Rectangle" fill="#808080" x="0" y="0" width="51" height="40" rx="5"></rect>
                    <path d="M6,10 L6,9 L8,9 L8,10 L6,10 Z M6,7 L6,5 L4,5 L4,7 L6,7 Z M2,10 L2,4 L7,4 L7,5 L8,5 L8,7 L7,7 L7,8 L6,8 L6,9 L5,9 L5,8 L4,8 L4,10 L2,10 Z M9,10 L9,4 L15,4 L15,5 L11,5 L11,6 L14,6 L14,7 L11,7 L11,9 L15,9 L15,10 L9,10 Z M16,9 L16,8 L17,8 L17,9 L16,9 Z M17,10 L17,9 L19,9 L19,7 L17,7 L17,6 L16,6 L16,5 L17,5 L17,4 L21,4 L21,5 L18,5 L18,6 L21,6 L21,7 L22,7 L22,9 L21,9 L21,10 L17,10 Z M23,10 L23,4 L29,4 L29,5 L25,5 L25,6 L28,6 L28,7 L25,7 L25,9 L29,9 L29,10 L23,10 Z M32,10 L32,5 L30,5 L30,4 L36,4 L36,5 L34,5 L34,10 L32,10 Z" id="RESET" fill="#000000" fill-rule="nonzero"></path>
                </g>
            </g>
        </g>
        <g id="mixer" transform="translate(159.000000, 266.000000)">
            <g id="bg">
                <g id="mix" transform="translate(220.000000, 0.000000)">
                    <rect id="Rectangle" fill="#1A1A1A" x="0" y="0" width="32" height="40" rx="5"></rect>
                    <line x1="16" y1="73" x2="16" y2="40" id="Line-5" stroke="#1A1A1A" stroke-width="2" stroke-linecap="square"></line>
                    <path d="M3.5,10 L3.5,2.5 L4.75,2.5 L4.75,3.75 L6,3.75 L6,5 L7.25,5 L7.25,3.75 L8.5,3.75 L8.5,2.5 L11,2.5 L11,10 L8.5,10 L8.5,6.25 L7.25,6.25 L7.25,7.5 L6,7.5 L6,6.25 L4.75,6.25 L4.75,10 L3.5,10 Z M13.75,10 L13.75,8.75 L15,8.75 L15,3.75 L13.75,3.75 L13.75,2.5 L18.75,2.5 L18.75,3.75 L17.5,3.75 L17.5,8.75 L18.75,8.75 L18.75,10 L13.75,10 Z M27.75,10 L27.75,8.75 L29,8.75 L29,10 L27.75,10 Z M26.5,8.75 L26.5,7.5 L27.75,7.5 L27.75,8.75 L26.5,8.75 Z M22.75,5 L22.75,3.75 L24,3.75 L24,5 L22.75,5 Z M21.5,3.75 L21.5,2.5 L22.75,2.5 L22.75,3.75 L21.5,3.75 Z M21.5,10 L21.5,7.5 L22.75,7.5 L22.75,6.25 L24,6.25 L24,5 L25.25,5 L25.25,3.75 L26.5,3.75 L26.5,2.5 L29,2.5 L29,3.75 L27.75,3.75 L27.75,5 L26.5,5 L26.5,7.5 L24,7.5 L24,8.75 L22.75,8.75 L22.75,10 L21.5,10 Z" id="MIX" fill="#DCDCDC" fill-rule="nonzero"></path>
                </g>
                <g id="DMC" transform="translate(176.000000, 0.000000)">
                    <rect id="Rectangle" fill="#1A1A1A" x="0" y="0" width="32" height="40" rx="5"></rect>
                    <line x1="16" y1="73" x2="16" y2="40" id="Line-5" stroke="#1A1A1A" stroke-width="2" stroke-linecap="square"></line>
                    <path d="M7.25,8.75 L7.25,3.75 L4.75,3.75 L4.75,8.75 L7.25,8.75 Z M3.5,10 L3.5,2.5 L9.75,2.5 L9.75,3.75 L11,3.75 L11,8.75 L9.75,8.75 L9.75,10 L3.5,10 Z M12.5,10 L12.5,2.5 L13.75,2.5 L13.75,3.75 L15,3.75 L15,5 L16.25,5 L16.25,3.75 L17.5,3.75 L17.5,2.5 L20,2.5 L20,10 L17.5,10 L17.5,6.25 L16.25,6.25 L16.25,7.5 L15,7.5 L15,6.25 L13.75,6.25 L13.75,10 L12.5,10 Z M22.75,10 L22.75,8.75 L21.5,8.75 L21.5,3.75 L22.75,3.75 L22.75,2.5 L27.75,2.5 L27.75,3.75 L29,3.75 L29,5 L26.5,5 L26.5,3.75 L24,3.75 L24,8.75 L26.5,8.75 L26.5,7.5 L29,7.5 L29,8.75 L27.75,8.75 L27.75,10 L22.75,10 Z" fill="#DCDCDC" fill-rule="nonzero"></path>
                </g>
                <g id="noise" transform="translate(132.000000, 0.000000)">
                    <rect id="Rectangle" fill="#1A1A1A" x="0" y="0" width="32" height="40" rx="5"></rect>
                    <line x1="16" y1="73" x2="16" y2="40" id="Line-5" stroke="#1A1A1A" stroke-width="2" stroke-linecap="square"></line>
                    <path d="M3.5,10 L3.5,2.5 L4.75,2.5 L4.75,3.75 L6,3.75 L6,5 L7.25,5 L7.25,6.25 L8.5,6.25 L8.5,2.5 L11,2.5 L11,10 L8.5,10 L8.5,8.75 L7.25,8.75 L7.25,7.5 L6,7.5 L6,6.25 L4.75,6.25 L4.75,10 L3.5,10 Z M17.5,8.75 L17.5,3.75 L15,3.75 L15,8.75 L17.5,8.75 Z M13.75,10 L13.75,8.75 L12.5,8.75 L12.5,3.75 L13.75,3.75 L13.75,2.5 L18.75,2.5 L18.75,3.75 L20,3.75 L20,8.75 L18.75,8.75 L18.75,10 L13.75,10 Z M22.75,10 L22.75,8.75 L24,8.75 L24,3.75 L22.75,3.75 L22.75,2.5 L27.75,2.5 L27.75,3.75 L26.5,3.75 L26.5,8.75 L27.75,8.75 L27.75,10 L22.75,10 Z" id="NOI" fill="#DCDCDC" fill-rule="nonzero"></path>
                </g>
                <g id="triangle" transform="translate(88.000000, 0.000000)">
                    <rect id="Rectangle" fill="#1A1A1A" x="0" y="0" width="32" height="40" rx="5"></rect>
                    <line x1="16" y1="73" x2="16" y2="40" id="Line-5" stroke="#1A1A1A" stroke-width="2" stroke-linecap="square"></line>
                    <path d="M6,10 L6,3.75 L3.5,3.75 L3.5,2.5 L11,2.5 L11,3.75 L8.5,3.75 L8.5,10 L6,10 Z M17.5,10 L17.5,8.75 L20,8.75 L20,10 L17.5,10 Z M17.5,6.25 L17.5,3.75 L15,3.75 L15,6.25 L17.5,6.25 Z M12.5,10 L12.5,2.5 L18.75,2.5 L18.75,3.75 L20,3.75 L20,6.25 L18.75,6.25 L18.75,7.5 L17.5,7.5 L17.5,8.75 L16.25,8.75 L16.25,7.5 L15,7.5 L15,10 L12.5,10 Z M22.75,10 L22.75,8.75 L24,8.75 L24,3.75 L22.75,3.75 L22.75,2.5 L27.75,2.5 L27.75,3.75 L26.5,3.75 L26.5,8.75 L27.75,8.75 L27.75,10 L22.75,10 Z" id="TRI" fill="#DCDCDC" fill-rule="nonzero"></path>
                </g>
                <g id="square-2" transform="translate(44.000000, 0.000000)">
                    <rect id="Rectangle" fill="#1A1A1A" x="0" y="0" width="32" height="40" rx="5"></rect>
                    <line x1="16" y1="73" x2="16" y2="40" id="Line-5" stroke="#1A1A1A" stroke-width="2" stroke-linecap="square"></line>
                    <path d="M3.5,8.75 L3.5,7.5 L4.75,7.5 L4.75,8.75 L3.5,8.75 Z M4.75,10 L4.75,8.75 L7.25,8.75 L7.25,6.25 L4.75,6.25 L4.75,5 L3.5,5 L3.5,3.75 L4.75,3.75 L4.75,2.5 L9.75,2.5 L9.75,3.75 L6,3.75 L6,5 L9.75,5 L9.75,6.25 L11,6.25 L11,8.75 L9.75,8.75 L9.75,10 L4.75,10 Z M18.75,10 L18.75,8.75 L20,8.75 L20,10 L18.75,10 Z M17.5,8.75 L17.5,7.5 L18.75,7.5 L18.75,8.75 L17.5,8.75 Z M16.25,7.5 L16.25,6.25 L17.5,6.25 L17.5,7.5 L16.25,7.5 Z M18.75,7.5 L18.75,3.75 L20,3.75 L20,7.5 L18.75,7.5 Z M13.75,10 L13.75,8.75 L12.5,8.75 L12.5,3.75 L13.75,3.75 L13.75,2.5 L18.75,2.5 L18.75,3.75 L15,3.75 L15,8.75 L17.5,8.75 L17.5,10 L13.75,10 Z M21.5,5 L21.5,3.75 L22.75,3.75 L22.75,5 L21.5,5 Z M21.5,10 L21.5,7.5 L22.75,7.5 L22.75,6.25 L25.25,6.25 L25.25,3.75 L22.75,3.75 L22.75,2.5 L27.75,2.5 L27.75,3.75 L29,3.75 L29,6.25 L27.75,6.25 L27.75,7.5 L25.25,7.5 L25.25,8.75 L29,8.75 L29,10 L21.5,10 Z" id="SQ2" fill="#DCDCDC" fill-rule="nonzero"></path>
                </g>
                <g id="square-1">
                    <rect id="Rectangle" fill="#1A1A1A" x="0" y="0" width="32" height="40" rx="5"></rect>
                    <line x1="16" y1="73" x2="16" y2="40" id="Line-5" stroke="#1A1A1A" stroke-width="2" stroke-linecap="square"></line>
                    <path d="M3.5,8.75 L3.5,7.5 L4.75,7.5 L4.75,8.75 L3.5,8.75 Z M4.75,10 L4.75,8.75 L7.25,8.75 L7.25,6.25 L4.75,6.25 L4.75,5 L3.5,5 L3.5,3.75 L4.75,3.75 L4.75,2.5 L9.75,2.5 L9.75,3.75 L6,3.75 L6,5 L9.75,5 L9.75,6.25 L11,6.25 L11,8.75 L9.75,8.75 L9.75,10 L4.75,10 Z M18.75,10 L18.75,8.75 L20,8.75 L20,10 L18.75,10 Z M17.5,8.75 L17.5,7.5 L18.75,7.5 L18.75,8.75 L17.5,8.75 Z M16.25,7.5 L16.25,6.25 L17.5,6.25 L17.5,7.5 L16.25,7.5 Z M18.75,7.5 L18.75,3.75 L20,3.75 L20,7.5 L18.75,7.5 Z M13.75,10 L13.75,8.75 L12.5,8.75 L12.5,3.75 L13.75,3.75 L13.75,2.5 L18.75,2.5 L18.75,3.75 L15,3.75 L15,8.75 L17.5,8.75 L17.5,10 L13.75,10 Z M22.75,10 L22.75,8.75 L24,8.75 L24,5 L22.75,5 L22.75,3.75 L24,3.75 L24,2.5 L26.5,2.5 L26.5,8.75 L27.75,8.75 L27.75,10 L22.75,10 Z" id="SQ1" fill="#DCDCDC" fill-rule="nonzero"></path>
                </g>
            </g>
        </g>
        <g id="clock" transform="translate(112.000000, 35.000000)">
            <g id="bg">
                <line x1="17" y1="189" x2="17" y2="40" id="normal" stroke="#1A1A1A" stroke-width="2" stroke-linecap="square"></line>
                <g id="clock-mod" transform="translate(0.000000, 175.000000)" fill="#DCDCDC" fill-rule="nonzero">
                    <path d="M4.5,40 L4.5,32.5 L5.75,32.5 L5.75,33.75 L7,33.75 L7,35 L8.25,35 L8.25,33.75 L9.5,33.75 L9.5,32.5 L12,32.5 L12,40 L9.5,40 L9.5,36.25 L8.25,36.25 L8.25,37.5 L7,37.5 L7,36.25 L5.75,36.25 L5.75,40 L4.5,40 Z M17.8333333,38.75 L17.8333333,33.75 L15.3333333,33.75 L15.3333333,38.75 L17.8333333,38.75 Z M14.0833333,40 L14.0833333,38.75 L12.8333333,38.75 L12.8333333,33.75 L14.0833333,33.75 L14.0833333,32.5 L19.0833333,32.5 L19.0833333,33.75 L20.3333333,33.75 L20.3333333,38.75 L19.0833333,38.75 L19.0833333,40 L14.0833333,40 Z M24.9166667,38.75 L24.9166667,33.75 L22.4166667,33.75 L22.4166667,38.75 L24.9166667,38.75 Z M21.1666667,40 L21.1666667,32.5 L27.4166667,32.5 L27.4166667,33.75 L28.6666667,33.75 L28.6666667,38.75 L27.4166667,38.75 L27.4166667,40 L21.1666667,40 Z" id="MOD"></path>
                </g>
                <g id="clock-out">
                    <rect id="Rectangle" fill="#1A1A1A" x="0.5" y="0" width="32" height="40" rx="5"></rect>
                    <path d="M4.25,10 L4.25,8.75 L3,8.75 L3,3.75 L4.25,3.75 L4.25,2.5 L9.25,2.5 L9.25,3.75 L10.5,3.75 L10.5,5 L8,5 L8,3.75 L5.5,3.75 L5.5,8.75 L8,8.75 L8,7.5 L10.5,7.5 L10.5,8.75 L9.25,8.75 L9.25,10 L4.25,10 Z M12,10 L12,2.5 L14.5,2.5 L14.5,8.75 L19.5,8.75 L19.5,10 L12,10 Z M21,10 L21,2.5 L23.5,2.5 L23.5,5 L24.75,5 L24.75,3.75 L26,3.75 L26,2.5 L28.5,2.5 L28.5,3.75 L27.25,3.75 L27.25,5 L26,5 L26,7.5 L27.25,7.5 L27.25,8.75 L28.5,8.75 L28.5,10 L26,10 L26,8.75 L24.75,8.75 L24.75,7.5 L23.5,7.5 L23.5,10 L21,10 Z" id="CLK" fill="#DCDCDC" fill-rule="nonzero"></path>
                </g>
            </g>
        </g>
        <g id="player1">
            <g id="bg">
                <rect id="inner" fill="#1A1A1A" x="9" y="0" width="91" height="380"></rect>
                <g id="button-bgs" transform="translate(17.000000, 9.000000)">
                    <rect id="Rectangle" fill="#333333" x="0" y="3.55271368e-14" width="76" height="40" rx="5"></rect>
                    <rect id="Rectangle" fill="#333333" x="0" y="46" width="76" height="40" rx="5"></rect>
                    <rect id="Rectangle" fill="#333333" x="0" y="92" width="76" height="40" rx="5"></rect>
                    <rect id="Rectangle" fill="#333333" x="0" y="138" width="76" height="40" rx="5"></rect>
                    <rect id="Rectangle" fill="#5A5A5A" x="0" y="184" width="76" height="40" rx="5"></rect>
                    <rect id="Rectangle" fill="#5A5A5A" x="0" y="230" width="76" height="40" rx="5"></rect>
                    <rect id="Rectangle" fill="#333333" x="0" y="276" width="76" height="40" rx="5"></rect>
                    <rect id="Rectangle" fill="#333333" x="0" y="322" width="76" height="40" rx="5"></rect>
                </g>
                <g id="arrows" transform="translate(43.000000, 12.000000)" fill="#1A1A1A">
                    <polygon id="Triangle" points="16.5 0 33 33 0 33"></polygon>
                    <polygon id="Triangle-Copy-2" transform="translate(16.500000, 110.500000) rotate(-90.000000) translate(-16.500000, -110.500000) " points="16.5 94 33 127 0 127"></polygon>
                    <polygon id="Triangle-Copy-3" transform="translate(16.500000, 154.500000) rotate(-270.000000) translate(-16.500000, -154.500000) " points="16.5 138 33 171 0 171"></polygon>
                    <polygon id="Triangle-Copy" transform="translate(16.500000, 63.500000) scale(1, -1) translate(-16.500000, -63.500000) " points="16.5 47 33 80 0 80"></polygon>
                </g>
                <g id="text" transform="translate(49.000000, 10.000000)" fill-rule="nonzero">
                    <path d="M19.3333333,7 L19.3333333,2 L20.3333333,2 L20.3333333,7 L19.3333333,7 Z M20.3333333,8 L20.3333333,7 L22.3333333,7 L22.3333333,6 L23.3333333,6 L23.3333333,2 L25.3333333,2 L25.3333333,7 L24.3333333,7 L24.3333333,8 L20.3333333,8 Z M30,5 L30,3 L28,3 L28,5 L30,5 Z M26,8 L26,2 L31,2 L31,3 L32,3 L32,5 L31,5 L31,6 L28,6 L28,8 L26,8 Z" id="UP" fill="#FF0000"></path>
                    <path d="M14.6666667,53 L14.6666667,49 L12.6666667,49 L12.6666667,53 L14.6666667,53 Z M11.6666667,54 L11.6666667,48 L16.6666667,48 L16.6666667,49 L17.6666667,49 L17.6666667,53 L16.6666667,53 L16.6666667,54 L11.6666667,54 Z M22.3333333,53 L22.3333333,49 L20.3333333,49 L20.3333333,53 L22.3333333,53 Z M19.3333333,54 L19.3333333,53 L18.3333333,53 L18.3333333,49 L19.3333333,49 L19.3333333,48 L23.3333333,48 L23.3333333,49 L24.3333333,49 L24.3333333,53 L23.3333333,53 L23.3333333,54 L19.3333333,54 Z M25,54 L25,48 L26,48 L26,51 L27,51 L27,50 L28,50 L28,51 L29,51 L29,48 L31,48 L31,54 L29,54 L29,53 L28,53 L28,52 L27,52 L27,53 L26,53 L26,54 L25,54 Z M31.6666667,54 L31.6666667,48 L32.6666667,48 L32.6666667,49 L33.6666667,49 L33.6666667,50 L34.6666667,50 L34.6666667,51 L35.6666667,51 L35.6666667,48 L37.6666667,48 L37.6666667,54 L35.6666667,54 L35.6666667,53 L34.6666667,53 L34.6666667,52 L33.6666667,52 L33.6666667,51 L32.6666667,51 L32.6666667,54 L31.6666667,54 Z" id="DOWN" fill="#FF0000"></path>
                    <path d="M12.6666667,100 L12.6666667,94 L14.6666667,94 L14.6666667,99 L18.6666667,99 L18.6666667,100 L12.6666667,100 Z M19.3333333,100 L19.3333333,94 L25.3333333,94 L25.3333333,95 L21.3333333,95 L21.3333333,96 L24.3333333,96 L24.3333333,97 L21.3333333,97 L21.3333333,99 L25.3333333,99 L25.3333333,100 L19.3333333,100 Z M26,100 L26,94 L32,94 L32,95 L28,95 L28,97 L31,97 L31,98 L28,98 L28,100 L26,100 Z M34.6666667,100 L34.6666667,95 L32.6666667,95 L32.6666667,94 L38.6666667,94 L38.6666667,95 L36.6666667,95 L36.6666667,100 L34.6666667,100 Z" id="LEFT" fill="#FF0000"></path>
                    <path d="M11.3333333,146 L11.3333333,145 L13.3333333,145 L13.3333333,146 L11.3333333,146 Z M11.3333333,143 L11.3333333,141 L9.33333333,141 L9.33333333,143 L11.3333333,143 Z M7.33333333,146 L7.33333333,140 L12.3333333,140 L12.3333333,141 L13.3333333,141 L13.3333333,143 L12.3333333,143 L12.3333333,144 L11.3333333,144 L11.3333333,145 L10.3333333,145 L10.3333333,144 L9.33333333,144 L9.33333333,146 L7.33333333,146 Z M15,146 L15,145 L16,145 L16,141 L15,141 L15,140 L19,140 L19,141 L18,141 L18,145 L19,145 L19,146 L15,146 Z M21.6666667,146 L21.6666667,145 L20.6666667,145 L20.6666667,141 L21.6666667,141 L21.6666667,140 L25.6666667,140 L25.6666667,141 L26.6666667,141 L26.6666667,142 L24.6666667,142 L24.6666667,141 L22.6666667,141 L22.6666667,145 L24.6666667,145 L24.6666667,144 L23.6666667,144 L23.6666667,143 L26.6666667,143 L26.6666667,146 L21.6666667,146 Z M27.3333333,146 L27.3333333,140 L28.3333333,140 L28.3333333,142 L31.3333333,142 L31.3333333,140 L33.3333333,140 L33.3333333,146 L31.3333333,146 L31.3333333,143 L28.3333333,143 L28.3333333,146 L27.3333333,146 Z M36,146 L36,141 L34,141 L34,140 L40,140 L40,141 L38,141 L38,146 L36,146 Z" id="RIGHT" fill="#FF0000"></path>
                    <path d="M3,191 L3,190 L4,190 L4,191 L3,191 Z M4,192 L4,191 L6,191 L6,189 L4,189 L4,188 L3,188 L3,187 L4,187 L4,186 L8,186 L8,187 L5,187 L5,188 L8,188 L8,189 L9,189 L9,191 L8,191 L8,192 L4,192 Z M9.66666667,192 L9.66666667,186 L15.6666667,186 L15.6666667,187 L11.6666667,187 L11.6666667,188 L14.6666667,188 L14.6666667,189 L11.6666667,189 L11.6666667,191 L15.6666667,191 L15.6666667,192 L9.66666667,192 Z M16.3333333,192 L16.3333333,186 L18.3333333,186 L18.3333333,191 L22.3333333,191 L22.3333333,192 L16.3333333,192 Z M23,192 L23,186 L29,186 L29,187 L25,187 L25,188 L28,188 L28,189 L25,189 L25,191 L29,191 L29,192 L23,192 Z M30.6666667,192 L30.6666667,191 L29.6666667,191 L29.6666667,187 L30.6666667,187 L30.6666667,186 L34.6666667,186 L34.6666667,187 L35.6666667,187 L35.6666667,188 L33.6666667,188 L33.6666667,187 L31.6666667,187 L31.6666667,191 L33.6666667,191 L33.6666667,190 L35.6666667,190 L35.6666667,191 L34.6666667,191 L34.6666667,192 L30.6666667,192 Z M38.3333333,192 L38.3333333,187 L36.3333333,187 L36.3333333,186 L42.3333333,186 L42.3333333,187 L40.3333333,187 L40.3333333,192 L38.3333333,192 Z" id="SELECT" fill="#1A1A1A"></path>
                    <path d="M7.83333333,237 L7.83333333,236 L8.83333333,236 L8.83333333,237 L7.83333333,237 Z M8.83333333,238 L8.83333333,237 L10.8333333,237 L10.8333333,235 L8.83333333,235 L8.83333333,234 L7.83333333,234 L7.83333333,233 L8.83333333,233 L8.83333333,232 L12.8333333,232 L12.8333333,233 L9.83333333,233 L9.83333333,234 L12.8333333,234 L12.8333333,235 L13.8333333,235 L13.8333333,237 L12.8333333,237 L12.8333333,238 L8.83333333,238 Z M16.5,238 L16.5,233 L14.5,233 L14.5,232 L20.5,232 L20.5,233 L18.5,233 L18.5,238 L16.5,238 Z M21.1666667,238 L21.1666667,233 L22.1666667,233 L22.1666667,235 L24.1666667,235 L24.1666667,233 L22.1666667,233 L22.1666667,232 L26.1666667,232 L26.1666667,233 L27.1666667,233 L27.1666667,238 L24.1666667,238 L24.1666667,236 L22.1666667,236 L22.1666667,238 L21.1666667,238 Z M31.8333333,238 L31.8333333,237 L33.8333333,237 L33.8333333,238 L31.8333333,238 Z M31.8333333,235 L31.8333333,233 L29.8333333,233 L29.8333333,235 L31.8333333,235 Z M27.8333333,238 L27.8333333,232 L32.8333333,232 L32.8333333,233 L33.8333333,233 L33.8333333,235 L32.8333333,235 L32.8333333,236 L31.8333333,236 L31.8333333,237 L30.8333333,237 L30.8333333,236 L29.8333333,236 L29.8333333,238 L27.8333333,238 Z M36.5,238 L36.5,233 L34.5,233 L34.5,232 L40.5,232 L40.5,233 L38.5,233 L38.5,238 L36.5,238 Z" id="START" fill="#1A1A1A"></path>
                    <path d="M15.8,311 L15.8,307 L11.8,307 L11.8,311 L15.8,311 Z M15.8,305 L15.8,303 L11.8,303 L11.8,305 L15.8,305 Z M7.8,313 L7.8,301 L17.8,301 L17.8,303 L19.8,303 L19.8,305 L17.8,305 L17.8,307 L19.8,307 L19.8,311 L17.8,311 L17.8,313 L7.8,313 Z" id="B" fill="#FF0000"></path>
                    <polygon id="A" fill="#FF0000" points="7.8 359 7.8 349 9.8 349 9.8 353 13.8 353 13.8 349 9.8 349 9.8 347 17.8 347 17.8 349 19.8 349 19.8 359 13.8 359 13.8 355 9.8 355 9.8 359"></polygon>
                </g>
            </g>
        </g>
    </g>
</svg>