<?xml version="1.0" encoding="UTF-8"?>
<svg width="480px" height="380px" viewBox="0 0 480 380" version="1.1" xmlns="http://www.w3.org/2000/svg" xmlns:xlink="http://www.w3.org/1999/xlink">
    <!-- Generator: Sketch 58 (84663) - https://sketch.com -->
    <title>RackNES</title>
    <desc>Created with Sketch.</desc>
    <g id="RackNES" stroke="none" stroke-width="1" fill="none" fill-rule="evenodd">
        <g id="bg">
            <rect id="Background" stroke="#DCDCDC" fill="#DCDCDC" fill-rule="nonzero" x="0" y="0" width="480" height="380"></rect>
            <g id="KautenjaDSP/bottom/black" transform="translate(209.000000, 368.000000)" fill="#000000">
                <g id="Group-3">
                    <path d="M-2.13162821e-14,0.17 L-2.13162821e-14,7.31 L1.57,7.31 L1.57,5.01 L2.47,4.1 L4.62,7.31 L6.59,7.31 L3.53,2.99 L6.32,0.17 L4.36,0.17 L1.57,3.13 L1.57,0.17 L-2.13162821e-14,0.17 Z M7.01,3.73 C7.0300001,3.396665 7.1133326,3.1200011 7.26,2.9 C7.4066674,2.6799989 7.5933322,2.503334 7.82,2.37 C8.0466678,2.236666 8.30166525,2.14166695 8.585,2.085 C8.86833475,2.02833305 9.1533319,2 9.44,2 C9.7000013,2 9.963332,2.01833315 10.23,2.055 C10.496668,2.09166685 10.7399989,2.1633328 10.96,2.27 C11.1800011,2.3766672 11.3599993,2.52499905 11.5,2.715 C11.6400007,2.90500095 11.71,3.1566651 11.71,3.47 L11.71,6.16 C11.71,6.3933345 11.7233332,6.6166656 11.75,6.83 C11.7766668,7.0433344 11.823333,7.2033328 11.89,7.31 L10.45,7.31 C10.4233332,7.2299996 10.4016667,7.14833375 10.385,7.065 C10.3683332,6.98166625 10.3566667,6.8966671 10.35,6.81 C10.1233322,7.0433345 9.8566682,7.2066662 9.55,7.3 C9.2433318,7.3933338 8.9300016,7.44 8.61,7.44 C8.3633321,7.44 8.1333344,7.4100003 7.92,7.35 C7.7066656,7.2899997 7.5200008,7.1966673 7.36,7.07 C7.1999992,6.9433327 7.07500045,6.7833343 6.985,6.59 C6.89499955,6.3966657 6.85,6.166668 6.85,5.9 C6.85,5.6066652 6.90166615,5.36500095 7.005,5.175 C7.10833385,4.98499905 7.24166585,4.8333339 7.405,4.72 C7.56833415,4.6066661 7.75499895,4.52166695 7.965,4.465 C8.17500105,4.40833305 8.3866656,4.3633335 8.6,4.33 L8.91750001,4.28499998 L8.91750001,4.28499998 L9.23,4.25 C9.4366677,4.2299999 9.6199992,4.2000002 9.78,4.16 C9.9400008,4.1199998 10.0666662,4.06166705 10.16,3.985 C10.2533338,3.90833295 10.2966667,3.7966674 10.29,3.65 C10.29,3.4966659 10.2650002,3.37500045 10.215,3.285 C10.1649997,3.19499955 10.0983337,3.12500025 10.015,3.075 C9.93166625,3.02499975 9.83500055,2.99166675 9.725,2.975 C9.61499945,2.95833325 9.4966673,2.95 9.37,2.95 C9.0899986,2.95 8.8700008,3.0099994 8.71,3.13 C8.5499992,3.2500006 8.4566668,3.4499986 8.43,3.73 L7.01,3.73 Z M10.29,4.78 C10.2299997,4.8333336 10.1550004,4.87499985 10.065,4.905 C9.97499955,4.93500015 9.87833385,4.9599999 9.775,4.98 L9.61625002,5.00750001 L9.61625002,5.00750001 L9.45,5.03 C9.3366661,5.0433334 9.2233339,5.0599999 9.11,5.08 C9.0033328,5.1000001 8.89833385,5.1266665 8.795,5.16 C8.69166615,5.1933335 8.60166705,5.23833305 8.525,5.295 C8.44833295,5.35166695 8.3866669,5.4233329 8.34,5.51 C8.2933331,5.5966671 8.27,5.706666 8.27,5.84 C8.27,5.9666673 8.2933331,6.0733329 8.34,6.16 C8.3866669,6.2466671 8.4499996,6.31499975 8.53,6.365 C8.6100004,6.41500025 8.7033328,6.4499999 8.81,6.47 C8.9166672,6.4900001 9.0266661,6.5 9.14,6.5 C9.4200014,6.5 9.6366659,6.4533338 9.79,6.36 C9.9433341,6.2666662 10.0566663,6.15500065 10.13,6.025 C10.2033337,5.89499935 10.2483332,5.763334 10.265,5.63 L10.2872222,5.39888892 C10.2890741,5.3662964 10.29,5.3366668 10.29,5.31 L10.29,4.78 Z M17.66,7.31 L17.66,2.14 L16.24,2.14 L16.24,4.85 C16.24,5.3766693 16.1533342,5.75499885 15.98,5.985 C15.8066658,6.21500115 15.5266686,6.33 15.14,6.33 C14.7999983,6.33 14.563334,6.22500105 14.43,6.015 C14.296666,5.80499895 14.23,5.4866688 14.23,5.06 L14.23,2.14 L12.81,2.14 L12.81,5.32 C12.81,5.64 12.838333,5.93166535 12.895,6.195 C12.9516669,6.45833465 13.0499993,6.68166575 13.19,6.865 C13.3300007,7.04833425 13.5216654,7.1899995 13.765,7.29 C14.0083345,7.3900005 14.3199981,7.44 14.7,7.44 C15.0000015,7.44 15.2933319,7.373334 15.58,7.24 C15.8666681,7.106666 16.0999991,6.8900015 16.28,6.59 L16.31,6.59 L16.31,7.31 L17.66,7.31 Z M20.54,2.14 L20.54,0.59 L19.12,0.59 L19.12,2.14 L18.26,2.14 L18.26,3.09 L19.12,3.09 L19.12,6.14 C19.12,6.4000013 19.1633329,6.6099992 19.25,6.77 C19.3366671,6.9300008 19.4549992,7.0533329 19.605,7.14 C19.7550007,7.2266671 19.9283323,7.28499985 20.125,7.315 C20.3216676,7.34500015 20.5299989,7.36 20.75,7.36 C20.8900007,7.36 21.0333326,7.3566667 21.18,7.35 C21.3266674,7.3433333 21.4599994,7.3300001 21.58,7.31 L21.58,6.21 C21.513333,6.2233334 21.4433337,6.2333333 21.37,6.24 C21.2966663,6.2466667 21.2200004,6.25 21.14,6.25 C20.8999988,6.25 20.7400004,6.2100004 20.66,6.13 C20.5799996,6.0499996 20.54,5.8900012 20.54,5.65 L20.54,3.09 L21.58,3.09 L21.58,2.14 L20.54,2.14 Z M25.74,4.17 L23.43,4.17 C23.4366667,4.07 23.4583331,3.9566673 23.495,3.83 C23.5316668,3.7033327 23.5949995,3.5833339 23.685,3.47 C23.7750004,3.3566661 23.8949992,3.26166705 24.045,3.185 C24.1950007,3.10833295 24.3833322,3.07 24.61,3.07 C24.9566684,3.07 25.2149991,3.1633324 25.385,3.35 C25.5550008,3.5366676 25.673333,3.8099982 25.74,4.17 Z M23.43,5.07 L27.16,5.07 C27.1866668,4.669998 27.1533338,4.2866685 27.06,3.92 C26.9666662,3.5533315 26.815001,3.2266681 26.605,2.94 C26.3949989,2.6533319 26.1266683,2.42500085 25.8,2.255 C25.4733317,2.08499915 25.0900022,2 24.65,2 C24.2566647,2 23.8983349,2.0699993 23.575,2.21 C23.251665,2.3500007 22.9733345,2.54166545 22.74,2.785 C22.5066655,3.02833455 22.3266673,3.316665 22.2,3.65 C22.0733327,3.983335 22.01,4.3433314 22.01,4.73 C22.01,5.130002 22.071666,5.496665 22.195,5.83 C22.3183339,6.163335 22.4933322,6.4499988 22.72,6.69 C22.9466678,6.9300012 23.2233317,7.11499935 23.55,7.245 C23.8766683,7.37500065 24.2433313,7.44 24.65,7.44 C25.2366696,7.44 25.7366646,7.306668 26.15,7.04 C26.5633354,6.773332 26.869999,6.3300031 27.07,5.71 L25.82,5.71 C25.7733331,5.8700008 25.6466677,6.02166595 25.44,6.165 C25.2333323,6.30833405 24.9866681,6.38 24.7,6.38 C24.299998,6.38 23.9933344,6.2766677 23.78,6.07 C23.5666656,5.8633323 23.4500001,5.5300023 23.43,5.07 Z M28,2.14 L28,7.31 L29.42,7.31 L29.42,4.6 C29.42,4.0733307 29.5066658,3.69500115 29.68,3.465 C29.8533342,3.23499885 30.1333314,3.12 30.52,3.12 C30.8600017,3.12 31.096666,3.22499895 31.23,3.435 C31.363334,3.64500105 31.43,3.9633312 31.43,4.39 L31.43,7.31 L32.85,7.31 L32.85,4.13 C32.85,3.8099984 32.8216669,3.51833465 32.765,3.255 C32.708333,2.99166535 32.6100007,2.76833425 32.47,2.585 C32.3299993,2.40166575 32.1383345,2.25833385 31.895,2.155 C31.6516654,2.05166615 31.3400019,2 30.96,2 C30.6599985,2 30.3666681,2.06833265 30.08,2.205 C29.7933319,2.34166735 29.5600009,2.5599985 29.38,2.86 L29.35,2.86 L29.35,2.14 L28,2.14 Z M35.48,1.34 L35.48,0.17 L34.06,0.17 L34.06,1.34 L35.48,1.34 Z M33.21,7.91 L33.21,9.08 C33.343334,9.1066668 33.4933325,9.12 33.66,9.12 C34.0200018,9.12 34.3166655,9.08833365 34.55,9.025 C34.7833345,8.96166635 34.9683326,8.86500065 35.105,8.735 C35.2416673,8.60499935 35.338333,8.4433343 35.395,8.25 C35.4516669,8.0566657 35.48,7.826668 35.48,7.56 L35.48,2.14 L34.06,2.14 L34.06,7.49 C34.06,7.6833343 34.0050005,7.80833305 33.895,7.865 C33.7849994,7.92166695 33.6566674,7.95 33.51,7.95 C33.3833327,7.95 33.2833337,7.9366668 33.21,7.91 Z M36.65,3.73 C36.6700001,3.396665 36.7533326,3.1200011 36.9,2.9 C37.0466674,2.6799989 37.2333322,2.503334 37.46,2.37 C37.6866678,2.236666 37.9416652,2.14166695 38.225,2.085 C38.5083347,2.02833305 38.7933319,2 39.08,2 C39.3400013,2 39.603332,2.01833315 39.87,2.055 C40.136668,2.09166685 40.3799989,2.1633328 40.6,2.27 C40.8200011,2.3766672 40.9999993,2.52499905 41.14,2.715 C41.2800007,2.90500095 41.35,3.1566651 41.35,3.47 L41.35,6.16 C41.35,6.3933345 41.3633332,6.6166656 41.39,6.83 C41.4166668,7.0433344 41.463333,7.2033328 41.53,7.31 L40.09,7.31 C40.0633332,7.2299996 40.0416667,7.14833375 40.025,7.065 C40.0083332,6.98166625 39.9966667,6.8966671 39.99,6.81 C39.7633322,7.0433345 39.4966682,7.2066662 39.19,7.3 C38.8833318,7.3933338 38.5700016,7.44 38.25,7.44 C38.0033321,7.44 37.7733344,7.4100003 37.56,7.35 C37.3466656,7.2899997 37.1600008,7.1966673 37,7.07 C36.8399992,6.9433327 36.7150004,6.7833343 36.625,6.59 C36.5349995,6.3966657 36.49,6.166668 36.49,5.9 C36.49,5.6066652 36.5416661,5.36500095 36.645,5.175 C36.7483338,4.98499905 36.8816658,4.8333339 37.045,4.72 C37.2083341,4.6066661 37.3949989,4.52166695 37.605,4.465 C37.815001,4.40833305 38.0266656,4.3633335 38.24,4.33 C38.4533344,4.2966665 38.6633323,4.2700001 38.87,4.25 C39.0766677,4.2299999 39.2599992,4.2000002 39.42,4.16 C39.5800008,4.1199998 39.7066662,4.06166705 39.8,3.985 C39.8933338,3.90833295 39.9366667,3.7966674 39.93,3.65 C39.93,3.4966659 39.9050002,3.37500045 39.855,3.285 C39.8049997,3.19499955 39.7383337,3.12500025 39.655,3.075 C39.5716662,3.02499975 39.4750005,2.99166675 39.365,2.975 C39.2549994,2.95833325 39.1366673,2.95 39.01,2.95 C38.7299986,2.95 38.5100008,3.0099994 38.35,3.13 C38.1899992,3.2500006 38.0966668,3.4499986 38.07,3.73 L36.65,3.73 Z M39.93,4.78 C39.8699997,4.8333336 39.7950004,4.87499985 39.705,4.905 C39.6149995,4.93500015 39.5183338,4.9599999 39.415,4.98 L39.25625,5.00750001 L39.25625,5.00750001 L39.09,5.03 C38.9766661,5.0433334 38.8633339,5.0599999 38.75,5.08 C38.6433328,5.1000001 38.5383338,5.1266665 38.435,5.16 C38.3316661,5.1933335 38.241667,5.23833305 38.165,5.295 C38.0883329,5.35166695 38.0266669,5.4233329 37.98,5.51 C37.9333331,5.5966671 37.91,5.706666 37.91,5.84 C37.91,5.9666673 37.9333331,6.0733329 37.98,6.16 C38.0266669,6.2466671 38.0899996,6.31499975 38.17,6.365 C38.2500004,6.41500025 38.3433328,6.4499999 38.45,6.47 C38.5566672,6.4900001 38.6666661,6.5 38.78,6.5 C39.0600014,6.5 39.2766659,6.4533338 39.43,6.36 C39.5833341,6.2666662 39.6966663,6.15500065 39.77,6.025 C39.8433337,5.89499935 39.8883332,5.763334 39.905,5.63 L39.9272222,5.39888892 C39.9290741,5.3662964 39.93,5.3366668 39.93,5.31 L39.93,4.78 Z M44.17,5.99 L44.17,1.49 L45.29,1.49 C45.6766686,1.49 46.0016653,1.54499945 46.265,1.655 C46.5283346,1.76500055 46.7399992,1.9233323 46.9,2.13 C47.0600008,2.3366677 47.1749996,2.58499855 47.245,2.875 C47.3150003,3.16500145 47.35,3.49 47.35,3.85 C47.35,4.2433353 47.3000005,4.5766653 47.2,4.85 C47.0999995,5.1233347 46.9666675,5.34499915 46.8,5.515 C46.6333325,5.68500085 46.4433344,5.8066663 46.23,5.88 C46.0166656,5.9533337 45.7966678,5.99 45.57,5.99 L44.17,5.99 Z M42.6,0.17 L42.6,7.31 L45.68,7.31 C46.2266694,7.31 46.7016646,7.21833425 47.105,7.035 C47.5083353,6.85166575 47.8449986,6.6000016 48.115,6.28 C48.3850013,5.9599984 48.586666,5.5800022 48.72,5.14 C48.853334,4.6999978 48.92,4.2200026 48.92,3.7 C48.92,3.1066637 48.8383341,2.5900022 48.675,2.15 C48.5116658,1.7099978 48.2850014,1.3433348 47.995,1.05 C47.7049985,0.7566652 47.3616686,0.5366674 46.965,0.39 C46.5683313,0.2433326 46.1400023,0.17 45.68,0.17 L42.6,0.17 Z M51.08,4.94 L49.56,4.94 C49.5533333,5.3800022 49.6333325,5.7599984 49.8,6.08 C49.9666675,6.4000016 50.1916652,6.6633323 50.475,6.87 C50.7583347,7.0766677 51.0849981,7.22833285 51.455,7.325 C51.8250018,7.42166715 52.2066647,7.47 52.6,7.47 C53.0866691,7.47 53.5149981,7.4133339 53.885,7.3 C54.2550018,7.1866661 54.5649987,7.02833435 54.815,6.825 C55.0650012,6.62166565 55.2533327,6.3800014 55.38,6.1 C55.5066673,5.8199986 55.57,5.5166683 55.57,5.19 C55.57,4.789998 55.4850008,4.46166795 55.315,4.205 C55.1449991,3.94833205 54.9433345,3.7433341 54.71,3.59 C54.4766655,3.4366659 54.2416678,3.32500035 54.005,3.255 L53.7457997,3.18139989 C53.6285999,3.14979994 53.5300004,3.12600008 53.45,3.11 L52.365,2.83 L52.365,2.83 C52.088332,2.7566663 51.8716674,2.6833337 51.715,2.61 C51.5583325,2.5366663 51.4533336,2.4566671 51.4,2.37 C51.3466664,2.2833329 51.32,2.1700007 51.32,2.03 C51.32,1.8766659 51.353333,1.7500005 51.42,1.65 C51.486667,1.5499995 51.5716662,1.466667 51.675,1.4 C51.7783338,1.333333 51.8933327,1.2866668 52.02,1.26 C52.1466673,1.2333332 52.2733327,1.22 52.4,1.22 C52.5933343,1.22 52.7716658,1.2366665 52.935,1.27 C53.0983341,1.3033335 53.2433327,1.3599996 53.37,1.44 C53.4966673,1.5200004 53.5983329,1.6299993 53.675,1.77 C53.751667,1.9100007 53.7966666,2.0866656 53.81,2.3 L55.33,2.3 C55.33,1.8866646 55.2516674,1.53500145 55.095,1.245 C54.9383325,0.95499855 54.726668,0.7166676 54.46,0.53 C54.193332,0.3433324 53.888335,0.20833375 53.545,0.125 C53.2016649,0.04166625 52.8433352,0 52.47,0 C52.1499984,0 51.8300016,0.0433329 51.51,0.13 C51.1899984,0.2166671 50.9033346,0.3499991 50.65,0.53 C50.3966654,0.7100009 50.1916674,0.93499865 50.035,1.205 C49.8783325,1.47500135 49.8,1.7933315 49.8,2.16 C49.8,2.4866683 49.861666,2.76499885 49.985,2.995 C50.1083339,3.22500115 50.269999,3.4166659 50.47,3.57 C50.670001,3.7233341 50.8966654,3.84833285 51.15,3.945 C51.3188897,4.00944477 51.4907407,4.06722229 51.6655552,4.11833329 L51.93,4.19 C52.1900013,4.2633337 52.4466654,4.3299997 52.7,4.39 C52.9533346,4.4500003 53.179999,4.5199996 53.38,4.6 C53.580001,4.6800004 53.741666,4.7799994 53.865,4.9 C53.9883339,5.0200006 54.05,5.1766657 54.05,5.37 C54.05,5.5500009 54.0033338,5.69833275 53.91,5.815 C53.8166662,5.93166725 53.7000007,6.023333 53.56,6.09 C53.4199993,6.156667 53.2700008,6.20166655 53.11,6.225 C52.9499992,6.24833345 52.8000007,6.26 52.66,6.26 C52.4533323,6.26 52.2533343,6.23500025 52.06,6.185 C51.8666657,6.13499975 51.698334,6.05833385 51.555,5.955 C51.4116659,5.85166615 51.2966671,5.7166675 51.21,5.55 C51.1233329,5.3833325 51.08,5.1800012 51.08,4.94 Z" id="KautenjaDSP" fill-rule="nonzero"></path>
                    <path d="M59.72,0.17 C60.1666689,0.17 60.5466651,0.23499935 60.86,0.365 C61.1733349,0.49500065 61.4283323,0.6666656 61.625,0.88 C61.8216676,1.0933344 61.9649995,1.3366653 62.055,1.61 C62.1450004,1.8833347 62.19,2.1666652 62.19,2.46 C62.19,2.7466681 62.1450004,3.02833195 62.055,3.305 C61.9649995,3.58166805 61.8216676,3.8266656 61.625,4.04 C61.4283323,4.2533344 61.1733349,4.42499935 60.86,4.555 C60.5466651,4.68500065 60.1666689,4.75 59.72,4.75 L58.07,4.75 L58.07,7.31 L56.5,7.31 L56.5,0.17 L59.72,0.17 Z M59.29,1.39 L58.07,1.39 L58.07,3.53 L59.29,3.53 C59.4700009,3.53 59.6433325,3.5166668 59.81,3.49 C59.9766675,3.4633332 60.1233327,3.41166705 60.25,3.335 C60.3766673,3.25833295 60.478333,3.1500007 60.555,3.01 C60.631667,2.8699993 60.67,2.6866678 60.67,2.46 C60.67,2.2333322 60.631667,2.0500007 60.555,1.91 C60.478333,1.7699993 60.3766673,1.66166705 60.25,1.585 C60.1233327,1.50833295 59.9766675,1.4566668 59.81,1.43 C59.6433325,1.4033332 59.4700009,1.39 59.29,1.39 L59.29,1.39 Z" id="Combined-Shape" fill-rule="nonzero"></path>
                </g>
            </g>
            <path d="M203.671875,7.5546875 L210.703125,7.5546875 L210.703125,5.796875 L203.671875,5.796875 L203.671875,7.5546875 Z M203.671875,9.8984375 L203.671875,14 L201.328125,14 L201.328125,3.453125 L209.53125,3.453125 C211.875012,3.453125 213.046875,4.5234268 213.046875,6.6640625 C213.046875,7.67969258 212.878908,8.42577887 212.542969,8.90234375 C212.878908,9.45703402 213.046875,10.179683 213.046875,11.0703125 L213.046875,14 L210.703125,14 L210.703125,11.0703125 C210.703125,10.2890586 210.312504,9.8984375 209.53125,9.8984375 L203.671875,9.8984375 Z M220.46875,10.484375 L220.46875,9.3125 C220.46875,8.79166406 220.208336,8.53125 219.6875,8.53125 L216.5625,8.53125 C216.041664,8.53125 215.78125,8.79166406 215.78125,9.3125 L215.78125,10.484375 L220.46875,10.484375 Z M215.78125,12.046875 L215.78125,14 L214.21875,14 L214.21875,9.3125 C214.21875,7.74999219 214.999992,6.96875 216.5625,6.96875 L219.6875,6.96875 C221.250008,6.96875 222.03125,7.74999219 222.03125,9.3125 L222.03125,14 L220.46875,14 L220.46875,12.046875 L215.78125,12.046875 Z M230.625,14 L225.15625,14 C223.593742,14 222.8125,13.2187578 222.8125,11.65625 L222.8125,9.3125 C222.8125,7.74999219 223.593742,6.96875 225.15625,6.96875 L230.625,6.96875 L230.625,8.53125 L225.15625,8.53125 C224.635414,8.53125 224.375,8.79166406 224.375,9.3125 L224.375,11.65625 C224.375,12.1770859 224.635414,12.4375 225.15625,12.4375 L230.625,12.4375 L230.625,14 Z M232.96875,11.265625 L232.96875,14 L231.40625,14 L231.40625,6.96875 L232.96875,6.96875 L232.96875,9.703125 L236.875,9.703125 C237.395836,9.703125 237.65625,9.44271094 237.65625,8.921875 L237.65625,6.96875 L239.21875,6.96875 L239.21875,8.921875 C239.21875,9.58333664 239.078126,10.1041648 238.796875,10.484375 C239.078126,10.8645852 239.21875,11.3854134 239.21875,12.046875 L239.21875,14 L237.65625,14 L237.65625,12.046875 C237.65625,11.5260391 237.395836,11.265625 236.875,11.265625 L232.96875,11.265625 Z M240,14 L240,3.453125 L248.203125,3.453125 C250.546887,3.453125 251.71875,4.62498828 251.71875,6.96875 L251.71875,14 L249.375,14 L249.375,6.96875 C249.375,6.18749609 248.984379,5.796875 248.203125,5.796875 L242.34375,5.796875 L242.34375,14 L240,14 Z M264.609375,14 L256.40625,14 C254.062488,14 252.890625,12.8281367 252.890625,10.484375 L252.890625,3.453125 L264.609375,3.453125 L264.609375,5.796875 L255.234375,5.796875 L255.234375,7.5546875 L264.609375,7.5546875 L264.609375,9.8984375 L255.234375,9.8984375 L255.234375,10.484375 C255.234375,11.2656289 255.624996,11.65625 256.40625,11.65625 L264.609375,11.65625 L264.609375,14 Z M265.78125,14 L265.78125,11.65625 L275.15625,11.65625 L275.15625,9.8984375 L269.296875,9.8984375 C266.953113,9.8984375 265.78125,8.83985434 265.78125,6.72265625 C265.78125,4.54295785 266.953113,3.453125 269.296875,3.453125 L277.5,3.453125 L277.5,5.796875 L268.125,5.796875 L268.125,7.5546875 L273.984375,7.5546875 C276.328137,7.5546875 277.5,8.62889551 277.5,10.7773438 C277.5,12.925792 276.328137,14 273.984375,14 L265.78125,14 Z" id="RackNES" fill="#FF0000" fill-rule="nonzero"></path>
            <rect id="Screen" fill="#000000" x="112" y="18" width="256" height="240"></rect>
        </g>
        <g id="player2" transform="translate(424.000000, 190.000000) scale(-1, 1) translate(-424.000000, -190.000000) translate(368.000000, 0.000000)">
            <g id="bg" fill="#1A1A1A">
                <rect id="inner" x="9" y="0" width="91" height="380"></rect>
            </g>
            <g id="buttons" transform="translate(17.000000, 9.000000)">
                <g id="Up">
                    <rect id="Rectangle" fill="#FFFFFF" x="0" y="7.10542736e-15" width="76" height="40" rx="5"></rect>
                    <path d="M51.5546875,3.7265625 L51.5546875,7.2421875 C51.5546875,8.41406836 52.1406191,9 53.3125,9 L55.65625,9 C56.8281309,9 57.4140625,8.41406836 57.4140625,7.2421875 L57.4140625,3.7265625 L56.2421875,3.7265625 L56.2421875,7.2421875 C56.2421875,7.63281445 56.046877,7.828125 55.65625,7.828125 L53.3125,7.828125 C52.921873,7.828125 52.7265625,7.63281445 52.7265625,7.2421875 L52.7265625,3.7265625 L51.5546875,3.7265625 Z M58,9 L58,3.7265625 L62.1015625,3.7265625 C63.2734434,3.7265625 63.859375,4.26561961 63.859375,5.34375 C63.859375,6.41406785 63.2734434,6.94921875 62.1015625,6.94921875 L59.171875,6.94921875 L59.171875,9 L58,9 Z M62.6875,5.77734375 L59.171875,5.77734375 L59.171875,4.8984375 L62.6875,4.8984375 L62.6875,5.77734375 Z" id="UP" fill="#FF0000" fill-rule="nonzero" transform="translate(57.707031, 6.363281) scale(-1, 1) translate(-57.707031, -6.363281) "></path>
                </g>
                <g id="Dn" transform="translate(0.000000, 46.000000)">
                    <rect id="Rectangle" fill="#FFFFFF" x="0" y="0" width="76" height="40" rx="5"></rect>
                    <path d="M43.8164062,9 L43.8164062,3.7265625 L47.9179688,3.7265625 C49.0898496,3.7265625 49.6757812,4.31249414 49.6757812,5.484375 L49.6757812,7.2421875 C49.6757812,8.41406836 49.0898496,9 47.9179688,9 L43.8164062,9 Z M47.9179688,7.828125 C48.3085957,7.828125 48.5039062,7.63281445 48.5039062,7.2421875 L48.5039062,5.484375 C48.5039062,5.09374805 48.3085957,4.8984375 47.9179688,4.8984375 L44.9882812,4.8984375 L44.9882812,7.828125 L47.9179688,7.828125 Z M52.0195312,9 C50.8476504,9 50.2617188,8.41406836 50.2617188,7.2421875 L50.2617188,5.484375 C50.2617188,4.31249414 50.8476504,3.7265625 52.0195312,3.7265625 L54.3632812,3.7265625 C55.5351621,3.7265625 56.1210938,4.31249414 56.1210938,5.484375 L56.1210938,7.2421875 C56.1210938,8.41406836 55.6328174,9 54.65625,9 L52.0195312,9 Z M51.4335938,7.2421875 C51.4335938,7.63281445 51.6289043,7.828125 52.0195312,7.828125 L54.3632812,7.828125 C54.7539082,7.828125 54.9492188,7.63281445 54.9492188,7.2421875 L54.9492188,5.484375 C54.9492188,5.09374805 54.7539082,4.8984375 54.3632812,4.8984375 L52.0195312,4.8984375 C51.6289043,4.8984375 51.4335938,5.09374805 51.4335938,5.484375 L51.4335938,7.2421875 Z M56.7070312,3.7265625 L56.7070312,7.2421875 C56.7070312,8.41406836 57.2929629,9 58.4648438,9 L63.1523438,9 L63.1523438,3.7265625 L61.9804688,3.7265625 L61.9804688,7.828125 L60.515625,7.828125 L60.515625,3.7265625 L59.34375,3.7265625 L59.34375,7.828125 L58.4648438,7.828125 C58.0742168,7.828125 57.8789062,7.63281445 57.8789062,7.2421875 L57.8789062,3.7265625 L56.7070312,3.7265625 Z M63.7382812,9 L63.7382812,3.7265625 L67.8398438,3.7265625 C69.0117246,3.7265625 69.5976562,4.31249414 69.5976562,5.484375 L69.5976562,9 L68.4257812,9 L68.4257812,5.484375 C68.4257812,5.09374805 68.2304707,4.8984375 67.8398438,4.8984375 L64.9101562,4.8984375 L64.9101562,9 L63.7382812,9 Z" id="DOWN" fill="#FF0000" fill-rule="nonzero" transform="translate(56.707031, 6.363281) scale(-1, 1) translate(-56.707031, -6.363281) "></path>
                </g>
                <g id="Lft" transform="translate(0.000000, 92.000000)">
                    <rect id="Rectangle" fill="#FFFFFF" x="0" y="-2.84217094e-14" width="76" height="40" rx="5"></rect>
                    <path d="M45.4023438,3.7265625 L45.4023438,7.2421875 C45.4023438,8.41406836 45.9882754,9 47.1601562,9 L51.2617188,9 L51.2617188,7.828125 L47.1601562,7.828125 C46.7695293,7.828125 46.5742188,7.63281445 46.5742188,7.2421875 L46.5742188,3.7265625 L45.4023438,3.7265625 Z M57.7070312,9 L53.6054688,9 C52.4335879,9 51.8476562,8.41406836 51.8476562,7.2421875 L51.8476562,3.7265625 L57.7070312,3.7265625 L57.7070312,4.8984375 L53.0195312,4.8984375 L53.0195312,5.77734375 L57.7070312,5.77734375 L57.7070312,6.94921875 L53.0195312,6.94921875 L53.0195312,7.2421875 C53.0195312,7.63281445 53.2148418,7.828125 53.6054688,7.828125 L57.7070312,7.828125 L57.7070312,9 Z M58.2929688,9 L58.2929688,3.7265625 L63.5664062,3.7265625 L63.5664062,4.8984375 L59.4648438,4.8984375 L59.4648438,5.77734375 L62.3945312,5.77734375 L62.3945312,6.94921875 L59.4648438,6.94921875 L59.4648438,9 L58.2929688,9 Z M64.1523438,3.7265625 L70.0117188,3.7265625 L70.0117188,4.8984375 L67.6679688,4.8984375 L67.6679688,9 L66.4960938,9 L66.4960938,4.8984375 L64.1523438,4.8984375 L64.1523438,3.7265625 Z" id="LEFT" fill="#FF0000" fill-rule="nonzero" transform="translate(57.707031, 6.363281) scale(-1, 1) translate(-57.707031, -6.363281) "></path>
                </g>
                <g id="Rgt" transform="translate(0.000000, 138.000000)">
                    <rect id="Rectangle" fill="#FFFFFF" x="0" y="0" width="76" height="40" rx="5"></rect>
                    <path d="M46.4023438,5.77734375 L49.9179688,5.77734375 L49.9179688,4.8984375 L46.4023438,4.8984375 L46.4023438,5.77734375 Z M46.4023438,6.94921875 L46.4023438,9 L45.2304688,9 L45.2304688,3.7265625 L49.3320312,3.7265625 C50.5039121,3.7265625 51.0898438,4.2617134 51.0898438,5.33203125 C51.0898438,5.83984629 51.0058602,6.21288943 50.8378906,6.45117188 C51.0058602,6.72851701 51.0898438,7.08984152 51.0898438,7.53515625 L51.0898438,9 L49.9179688,9 L49.9179688,7.53515625 C49.9179688,7.1445293 49.7226582,6.94921875 49.3320312,6.94921875 L46.4023438,6.94921875 Z M51.6757812,9 L51.6757812,3.7265625 L52.8476562,3.7265625 L52.8476562,9 L51.6757812,9 Z M59.2929688,5.77734375 L59.2929688,9 L55.1914062,9 C54.0195254,9 53.4335938,8.41406836 53.4335938,7.2421875 L53.4335938,5.484375 C53.4335938,4.31249414 54.0195254,3.7265625 55.1914062,3.7265625 L59.2929688,3.7265625 L59.2929688,4.8984375 L55.1914062,4.8984375 C54.8007793,4.8984375 54.6054688,5.09374805 54.6054688,5.484375 L54.6054688,7.2421875 C54.6054688,7.63281445 54.8007793,7.828125 55.1914062,7.828125 L58.1210938,7.828125 L58.1210938,6.94921875 L56.65625,6.94921875 L56.65625,5.77734375 L59.2929688,5.77734375 Z M59.2929688,5.77734375 L59.2929688,9 L55.1914062,9 C54.0195254,9 53.4335938,8.41406836 53.4335938,7.2421875 L53.4335938,5.484375 C53.4335938,4.31249414 54.0195254,3.7265625 55.1914062,3.7265625 L59.2929688,3.7265625 L59.2929688,4.8984375 L55.1914062,4.8984375 C54.8007793,4.8984375 54.6054688,5.09374805 54.6054688,5.484375 L54.6054688,7.2421875 C54.6054688,7.63281445 54.8007793,7.828125 55.1914062,7.828125 L58.1210938,7.828125 L58.1210938,6.94921875 L56.65625,6.94921875 L56.65625,5.77734375 L59.2929688,5.77734375 Z M59.8789062,9 L59.8789062,3.7265625 L61.0507812,3.7265625 L61.0507812,5.77734375 L64.5664062,5.77734375 L64.5664062,3.7265625 L65.7382812,3.7265625 L65.7382812,9 L64.5664062,9 L64.5664062,6.94921875 L61.0507812,6.94921875 L61.0507812,9 L59.8789062,9 Z M66.3242188,3.7265625 L72.1835938,3.7265625 L72.1835938,4.8984375 L69.8398438,4.8984375 L69.8398438,9 L68.6679688,9 L68.6679688,4.8984375 L66.3242188,4.8984375 L66.3242188,3.7265625 Z" id="RIGHT" fill="#FF0000" fill-rule="nonzero" transform="translate(58.707031, 6.363281) scale(-1, 1) translate(-58.707031, -6.363281) "></path>
                </g>
                <g id="Sel" transform="translate(0.000000, 184.000000)">
                    <rect id="Rectangle" fill="#808080" x="0" y="-2.84217094e-14" width="76" height="40" rx="5"></rect>
                    <path d="M35.6640625,9 L39.765625,9 C40.9375059,9 41.5234375,8.462896 41.5234375,7.38867188 C41.5234375,6.31444775 40.9375059,5.77734375 39.765625,5.77734375 L36.8359375,5.77734375 L36.8359375,4.8984375 L41.5234375,4.8984375 L41.5234375,3.7265625 L37.421875,3.7265625 C36.2499941,3.7265625 35.6640625,4.27147893 35.6640625,5.36132812 C35.6640625,6.41992717 36.2499941,6.94921875 37.421875,6.94921875 L40.3515625,6.94921875 L40.3515625,7.828125 L35.6640625,7.828125 L35.6640625,9 Z M47.96875,9 L43.8671875,9 C42.6953066,9 42.109375,8.41406836 42.109375,7.2421875 L42.109375,3.7265625 L47.96875,3.7265625 L47.96875,4.8984375 L43.28125,4.8984375 L43.28125,5.77734375 L47.96875,5.77734375 L47.96875,6.94921875 L43.28125,6.94921875 L43.28125,7.2421875 C43.28125,7.63281445 43.4765605,7.828125 43.8671875,7.828125 L47.96875,7.828125 L47.96875,9 Z M48.5546875,3.7265625 L48.5546875,7.2421875 C48.5546875,8.41406836 49.1406191,9 50.3125,9 L54.4140625,9 L54.4140625,7.828125 L50.3125,7.828125 C49.921873,7.828125 49.7265625,7.63281445 49.7265625,7.2421875 L49.7265625,3.7265625 L48.5546875,3.7265625 Z M60.859375,9 L56.7578125,9 C55.5859316,9 55,8.41406836 55,7.2421875 L55,3.7265625 L60.859375,3.7265625 L60.859375,4.8984375 L56.171875,4.8984375 L56.171875,5.77734375 L60.859375,5.77734375 L60.859375,6.94921875 L56.171875,6.94921875 L56.171875,7.2421875 C56.171875,7.63281445 56.3671855,7.828125 56.7578125,7.828125 L60.859375,7.828125 L60.859375,9 Z M67.3046875,9 L63.203125,9 C62.0312441,9 61.4453125,8.41406836 61.4453125,7.2421875 L61.4453125,5.484375 C61.4453125,4.31249414 62.0312441,3.7265625 63.203125,3.7265625 L67.3046875,3.7265625 L67.3046875,4.8984375 L63.203125,4.8984375 C62.812498,4.8984375 62.6171875,5.09374805 62.6171875,5.484375 L62.6171875,7.2421875 C62.6171875,7.63281445 62.812498,7.828125 63.203125,7.828125 L67.3046875,7.828125 L67.3046875,9 Z M67.890625,3.7265625 L73.75,3.7265625 L73.75,4.8984375 L71.40625,4.8984375 L71.40625,9 L70.234375,9 L70.234375,4.8984375 L67.890625,4.8984375 L67.890625,3.7265625 Z" id="SELECT" fill="#FF0000" fill-rule="nonzero" transform="translate(54.707031, 6.363281) scale(-1, 1) translate(-54.707031, -6.363281) "></path>
                </g>
                <g id="Start" transform="translate(0.000000, 230.000000)">
                    <rect id="Rectangle" fill="#808080" x="0" y="-2.84217094e-14" width="76" height="40" rx="5"></rect>
                    <path d="M40.3867188,9 L44.4882812,9 C45.6601621,9 46.2460938,8.462896 46.2460938,7.38867188 C46.2460938,6.31444775 45.6601621,5.77734375 44.4882812,5.77734375 L41.5585938,5.77734375 L41.5585938,4.8984375 L46.2460938,4.8984375 L46.2460938,3.7265625 L42.1445312,3.7265625 C40.9726504,3.7265625 40.3867188,4.27147893 40.3867188,5.36132812 C40.3867188,6.41992717 40.9726504,6.94921875 42.1445312,6.94921875 L45.0742188,6.94921875 L45.0742188,7.828125 L40.3867188,7.828125 L40.3867188,9 Z M46.8320312,3.7265625 L52.6914062,3.7265625 L52.6914062,4.8984375 L50.3476562,4.8984375 L50.3476562,9 L49.1757812,9 L49.1757812,4.8984375 L46.8320312,4.8984375 L46.8320312,3.7265625 Z M57.9648438,6.36328125 L57.9648438,5.484375 C57.9648438,5.09374805 57.7695332,4.8984375 57.3789062,4.8984375 L55.0351562,4.8984375 C54.6445293,4.8984375 54.4492188,5.09374805 54.4492188,5.484375 L54.4492188,6.36328125 L57.9648438,6.36328125 Z M54.4492188,7.53515625 L54.4492188,9 L53.2773438,9 L53.2773438,5.484375 C53.2773438,4.31249414 53.8632754,3.7265625 55.0351562,3.7265625 L57.3789062,3.7265625 C58.5507871,3.7265625 59.1367188,4.31249414 59.1367188,5.484375 L59.1367188,9 L57.9648438,9 L57.9648438,7.53515625 L54.4492188,7.53515625 Z M60.8945312,5.77734375 L64.4101562,5.77734375 L64.4101562,4.8984375 L60.8945312,4.8984375 L60.8945312,5.77734375 Z M60.8945312,6.94921875 L60.8945312,9 L59.7226562,9 L59.7226562,3.7265625 L63.8242188,3.7265625 C64.9960996,3.7265625 65.5820312,4.2617134 65.5820312,5.33203125 C65.5820312,5.83984629 65.4980477,6.21288943 65.3300781,6.45117188 C65.4980477,6.72851701 65.5820312,7.08984152 65.5820312,7.53515625 L65.5820312,9 L64.4101562,9 L64.4101562,7.53515625 C64.4101562,7.1445293 64.2148457,6.94921875 63.8242188,6.94921875 L60.8945312,6.94921875 Z M66.1679688,3.7265625 L72.0273438,3.7265625 L72.0273438,4.8984375 L69.6835938,4.8984375 L69.6835938,9 L68.5117188,9 L68.5117188,4.8984375 L66.1679688,4.8984375 L66.1679688,3.7265625 Z" id="START" fill="#FF0000" fill-rule="nonzero" transform="translate(56.207031, 6.363281) scale(-1, 1) translate(-56.207031, -6.363281) "></path>
                </g>
                <g id="B" transform="translate(0.000000, 276.000000)">
                    <rect id="Rectangle" fill="#DDDDDD" x="0" y="0" width="76" height="40" rx="5"></rect>
                    <path d="M56.5820312,32.6289062 L62.4414062,32.6289062 L62.4414062,31.1640625 L56.5820312,31.1640625 L56.5820312,32.6289062 Z M56.5820312,36.046875 L62.4414062,36.046875 L62.4414062,34.5820312 L56.5820312,34.5820312 L56.5820312,36.046875 Z M54.6289062,38 L54.6289062,29.2109375 L61.4648438,29.2109375 C63.4179785,29.2109375 64.3945312,30.0963453 64.3945312,31.8671875 C64.3945312,32.5898474 64.2382828,33.1692687 63.9257812,33.6054688 C64.2382828,34.0351584 64.3945312,34.6113245 64.3945312,35.3339844 C64.3945312,37.111337 63.4179785,38 61.4648438,38 L54.6289062,38 Z" fill="#FF0000" fill-rule="nonzero" transform="translate(59.511719, 33.605469) scale(-1, 1) translate(-59.511719, -33.605469) "></path>
                </g>
                <g id="A" transform="translate(0.000000, 322.000000)">
                    <rect id="Rectangle" fill="#DDDDDD" x="0" y="0" width="76" height="40" rx="5"></rect>
                    <path d="M62.4414062,33.6054688 L62.4414062,32.140625 C62.4414062,31.4895801 62.1158887,31.1640625 61.4648438,31.1640625 L57.5585938,31.1640625 C56.9075488,31.1640625 56.5820312,31.4895801 56.5820312,32.140625 L56.5820312,33.6054688 L62.4414062,33.6054688 Z M56.5820312,35.5585938 L56.5820312,38 L54.6289062,38 L54.6289062,32.140625 C54.6289062,30.1874902 55.605459,29.2109375 57.5585938,29.2109375 L61.4648438,29.2109375 C63.4179785,29.2109375 64.3945312,30.1874902 64.3945312,32.140625 L64.3945312,38 L62.4414062,38 L62.4414062,35.5585938 L56.5820312,35.5585938 Z" fill="#FF0000" fill-rule="nonzero" transform="translate(59.511719, 33.605469) scale(-1, 1) translate(-59.511719, -33.605469) "></path>
                </g>
            </g>
        </g>
        <g id="global-control" transform="translate(115.000000, 266.000000)">
            <g id="audio" transform="translate(210.000000, 0.000000)">
                <g id="Audio" transform="translate(1.000000, 0.000000)">
                    <rect id="Rectangle" fill="#1A1A1A" x="0" y="0" width="32" height="40" rx="5"></rect>
                    <path d="M16,73 L16,40" id="Line-5" stroke="#1A1A1A" stroke-width="2" stroke-linecap="square"></path>
                    <g id="Port/PJ301M" transform="translate(3.500000, 13.000000)">
                        <g id="PJ301M">
                            <path d="M11.6050278,22.8628611 C5.39619722,22.8628611 0.347222222,17.8139167 0.347222222,11.6050278 C0.347222222,5.39625 5.39619722,0.347222222 11.6050278,0.347222222 C17.81385,0.347222222 22.8628333,5.39625 22.8628333,11.6050278 C22.8628333,17.8139167 17.81385,22.8628611 11.6050278,22.8628611" id="path7255" stroke="#636663" stroke-width="0.25" fill="#E6E6E6" fill-rule="nonzero"></path>
                            <path d="M11.6050278,19.7125556 C7.13406111,19.7125556 3.49756944,16.076 3.49756944,11.6050278 C3.49756944,7.13408333 7.13406111,3.49761111 11.6050278,3.49761111 C16.0759972,3.49761111 19.7124778,7.13408333 19.7124778,11.6050278 C19.7124778,16.076 16.0759972,19.7125556 11.6050278,19.7125556" id="path7261" stroke="#636663" stroke-width="0.25" fill="#E6E6E6" fill-rule="nonzero"></path>
                            <path d="M16.6042417,11.6050278 C16.6042417,14.3649444 14.3649278,16.6043056 11.6050278,16.6043056 C8.84511944,16.6043056 6.60580556,14.3649444 6.60580556,11.6050278 C6.60580556,8.84513889 8.84511944,6.60588889 11.6050278,6.60588889 C14.3649278,6.60588889 16.6042417,8.84513889 16.6042417,11.6050278" id="path7265" fill="#000000" fill-rule="nonzero"></path>
                        </g>
                    </g>
                    <path d="M7.67480469,6.58300781 L7.67480469,5.77734375 C7.67480469,5.41926904 7.49577002,5.24023438 7.13769531,5.24023438 L4.98925781,5.24023438 C4.63118311,5.24023438 4.45214844,5.41926904 4.45214844,5.77734375 L4.45214844,6.58300781 L7.67480469,6.58300781 Z M4.45214844,7.65722656 L4.45214844,9 L3.37792969,9 L3.37792969,5.77734375 C3.37792969,4.70311963 3.91503369,4.16601562 4.98925781,4.16601562 L7.13769531,4.16601562 C8.21191943,4.16601562 8.74902344,4.70311963 8.74902344,5.77734375 L8.74902344,9 L7.67480469,9 L7.67480469,7.65722656 L4.45214844,7.65722656 Z M9.28613281,4.16601562 L9.28613281,7.38867188 C9.28613281,8.462896 9.82323682,9 10.8974609,9 L13.0458984,9 C14.1201226,9 14.6572266,8.462896 14.6572266,7.38867188 L14.6572266,4.16601562 L13.5830078,4.16601562 L13.5830078,7.38867188 C13.5830078,7.74674658 13.4039731,7.92578125 13.0458984,7.92578125 L10.8974609,7.92578125 C10.5393862,7.92578125 10.3603516,7.74674658 10.3603516,7.38867188 L10.3603516,4.16601562 L9.28613281,4.16601562 Z M15.1943359,9 L15.1943359,4.16601562 L18.9541016,4.16601562 C20.0283257,4.16601562 20.5654297,4.70311963 20.5654297,5.77734375 L20.5654297,7.38867188 C20.5654297,8.462896 20.0283257,9 18.9541016,9 L15.1943359,9 Z M18.9541016,7.92578125 C19.3121763,7.92578125 19.4912109,7.74674658 19.4912109,7.38867188 L19.4912109,5.77734375 C19.4912109,5.41926904 19.3121763,5.24023438 18.9541016,5.24023438 L16.2685547,5.24023438 L16.2685547,7.92578125 L18.9541016,7.92578125 Z M22.1767578,4.16601562 L22.1767578,9 L21.1025391,9 L21.1025391,4.16601562 L22.1767578,4.16601562 Z M26.4736328,4.16601562 C27.5478569,4.16601562 28.0849609,4.70311963 28.0849609,5.77734375 L28.0849609,7.38867188 C28.0849609,8.462896 27.6373743,9 26.7421875,9 L24.3251953,9 C23.2509712,9 22.7138672,8.462896 22.7138672,7.38867188 L22.7138672,5.77734375 C22.7138672,4.70311963 23.2509712,4.16601562 24.3251953,4.16601562 L26.4736328,4.16601562 Z M26.4736328,5.24023438 L24.3251953,5.24023438 C24.0029281,5.24023438 23.8256833,5.38525246 23.793457,5.67529253 L23.7880859,5.77734375 L23.7880859,7.38867188 C23.7880859,7.71093911 23.933104,7.88818392 24.2231441,7.9204102 L24.3251953,7.92578125 L26.4736328,7.92578125 C26.7959,7.92578125 26.9731449,7.78076317 27.0053711,7.49072309 L27.0107422,7.38867188 L27.0107422,5.77734375 C27.0107422,5.41926904 26.8317075,5.24023438 26.4736328,5.24023438 Z" id="AUDIO" fill="#FF0000" fill-rule="nonzero"></path>
                </g>
            </g>
            <g id="console-control" transform="translate(84.000000, 0.000000)">
                <g id="save">
                    <rect id="Rectangle" stroke="#1A1A1A" stroke-width="2" x="0" y="0" width="32" height="40" rx="5"></rect>
                    <g id="Port/PJ301M" transform="translate(3.500000, 13.000000)">
                        <g id="PJ301M">
                            <path d="M11.6050278,22.8628611 C5.39619722,22.8628611 0.347222222,17.8139167 0.347222222,11.6050278 C0.347222222,5.39625 5.39619722,0.347222222 11.6050278,0.347222222 C17.81385,0.347222222 22.8628333,5.39625 22.8628333,11.6050278 C22.8628333,17.8139167 17.81385,22.8628611 11.6050278,22.8628611" id="path7255" stroke="#636663" stroke-width="0.25" fill="#E6E6E6" fill-rule="nonzero"></path>
                            <path d="M11.6050278,19.7125556 C7.13406111,19.7125556 3.49756944,16.076 3.49756944,11.6050278 C3.49756944,7.13408333 7.13406111,3.49761111 11.6050278,3.49761111 C16.0759972,3.49761111 19.7124778,7.13408333 19.7124778,11.6050278 C19.7124778,16.076 16.0759972,19.7125556 11.6050278,19.7125556" id="path7261" stroke="#636663" stroke-width="0.25" fill="#E6E6E6" fill-rule="nonzero"></path>
                            <path d="M16.6042417,11.6050278 C16.6042417,14.3649444 14.3649278,16.6043056 11.6050278,16.6043056 C8.84511944,16.6043056 6.60580556,14.3649444 6.60580556,11.6050278 C6.60580556,8.84513889 8.84511944,6.60588889 11.6050278,6.60588889 C14.3649278,6.60588889 16.6042417,8.84513889 16.6042417,11.6050278" id="path7265" fill="#000000" fill-rule="nonzero"></path>
                        </g>
                    </g>
                    <path d="M3.109375,10 L7.2109375,10 C8.38281836,10 8.96875,9.462896 8.96875,8.38867188 C8.96875,7.31444775 8.38281836,6.77734375 7.2109375,6.77734375 L4.28125,6.77734375 L4.28125,5.8984375 L8.96875,5.8984375 L8.96875,4.7265625 L4.8671875,4.7265625 C3.69530664,4.7265625 3.109375,5.27147893 3.109375,6.36132812 C3.109375,7.41992717 3.69530664,7.94921875 4.8671875,7.94921875 L7.796875,7.94921875 L7.796875,8.828125 L3.109375,8.828125 L3.109375,10 Z M14.2421875,7.36328125 L14.2421875,6.484375 C14.2421875,6.09374805 14.046877,5.8984375 13.65625,5.8984375 L11.3125,5.8984375 C10.921873,5.8984375 10.7265625,6.09374805 10.7265625,6.484375 L10.7265625,7.36328125 L14.2421875,7.36328125 Z M10.7265625,8.53515625 L10.7265625,10 L9.5546875,10 L9.5546875,6.484375 C9.5546875,5.31249414 10.1406191,4.7265625 11.3125,4.7265625 L13.65625,4.7265625 C14.8281309,4.7265625 15.4140625,5.31249414 15.4140625,6.484375 L15.4140625,10 L14.2421875,10 L14.2421875,8.53515625 L10.7265625,8.53515625 Z M16,4.7265625 L16,10 L20.1015625,10 C21.2734434,10 21.859375,9.41406836 21.859375,8.2421875 L21.859375,4.7265625 L20.6875,4.7265625 L20.6875,8.2421875 C20.6875,8.63281445 20.4921895,8.828125 20.1015625,8.828125 L17.171875,8.828125 L17.171875,4.7265625 L16,4.7265625 Z M28.3046875,10 L24.203125,10 C23.0312441,10 22.4453125,9.41406836 22.4453125,8.2421875 L22.4453125,4.7265625 L28.3046875,4.7265625 L28.3046875,5.8984375 L23.6171875,5.8984375 L23.6171875,6.77734375 L28.3046875,6.77734375 L28.3046875,7.94921875 L23.6171875,7.94921875 L23.6171875,8.2421875 C23.6171875,8.63281445 23.812498,8.828125 24.203125,8.828125 L28.3046875,8.828125 L28.3046875,10 Z" id="SAVE" fill="#FF0000" fill-rule="nonzero"></path>
                </g>
                <g id="load" transform="translate(42.000000, 0.000000)">
                    <rect id="Rectangle" stroke="#1A1A1A" stroke-width="2" x="0" y="0" width="32" height="40" rx="5"></rect>
                    <g id="Port/PJ301M" transform="translate(3.500000, 13.000000)">
                        <g id="PJ301M">
                            <path d="M11.6050278,22.8628611 C5.39619722,22.8628611 0.347222222,17.8139167 0.347222222,11.6050278 C0.347222222,5.39625 5.39619722,0.347222222 11.6050278,0.347222222 C17.81385,0.347222222 22.8628333,5.39625 22.8628333,11.6050278 C22.8628333,17.8139167 17.81385,22.8628611 11.6050278,22.8628611" id="path7255" stroke="#636663" stroke-width="0.25" fill="#E6E6E6" fill-rule="nonzero"></path>
                            <path d="M11.6050278,19.7125556 C7.13406111,19.7125556 3.49756944,16.076 3.49756944,11.6050278 C3.49756944,7.13408333 7.13406111,3.49761111 11.6050278,3.49761111 C16.0759972,3.49761111 19.7124778,7.13408333 19.7124778,11.6050278 C19.7124778,16.076 16.0759972,19.7125556 11.6050278,19.7125556" id="path7261" stroke="#636663" stroke-width="0.25" fill="#E6E6E6" fill-rule="nonzero"></path>
                            <path d="M16.6042417,11.6050278 C16.6042417,14.3649444 14.3649278,16.6043056 11.6050278,16.6043056 C8.84511944,16.6043056 6.60580556,14.3649444 6.60580556,11.6050278 C6.60580556,8.84513889 8.84511944,6.60588889 11.6050278,6.60588889 C14.3649278,6.60588889 16.6042417,8.84513889 16.6042417,11.6050278" id="path7265" fill="#000000" fill-rule="nonzero"></path>
                        </g>
                    </g>
                    <path d="M3.109375,4.7265625 L3.109375,8.2421875 C3.109375,9.41406836 3.69530664,10 4.8671875,10 L8.96875,10 L8.96875,8.828125 L4.8671875,8.828125 C4.47656055,8.828125 4.28125,8.63281445 4.28125,8.2421875 L4.28125,4.7265625 L3.109375,4.7265625 Z M11.3125,10 C10.1406191,10 9.5546875,9.41406836 9.5546875,8.2421875 L9.5546875,6.484375 C9.5546875,5.31249414 10.1406191,4.7265625 11.3125,4.7265625 L13.65625,4.7265625 C14.8281309,4.7265625 15.4140625,5.31249414 15.4140625,6.484375 L15.4140625,8.2421875 C15.4140625,9.41406836 14.9257861,10 13.9492188,10 L11.3125,10 Z M10.7265625,8.2421875 C10.7265625,8.63281445 10.921873,8.828125 11.3125,8.828125 L13.65625,8.828125 C14.046877,8.828125 14.2421875,8.63281445 14.2421875,8.2421875 L14.2421875,6.484375 C14.2421875,6.09374805 14.046877,5.8984375 13.65625,5.8984375 L11.3125,5.8984375 C10.921873,5.8984375 10.7265625,6.09374805 10.7265625,6.484375 L10.7265625,8.2421875 Z M20.6875,7.36328125 L20.6875,6.484375 C20.6875,6.09374805 20.4921895,5.8984375 20.1015625,5.8984375 L17.7578125,5.8984375 C17.3671855,5.8984375 17.171875,6.09374805 17.171875,6.484375 L17.171875,7.36328125 L20.6875,7.36328125 Z M20.1015625,4.7265625 C21.2734434,4.7265625 21.859375,5.31249414 21.859375,6.484375 L21.859375,10 L20.6875,10 L20.6875,8.53515625 L17.171875,8.53515625 L17.171875,10 L16,10 L16,6.484375 C16,5.31249414 16.5859316,4.7265625 17.7578125,4.7265625 L20.1015625,4.7265625 Z M26.546875,4.7265625 C27.7187559,4.7265625 28.3046875,5.31249414 28.3046875,6.484375 L28.3046875,8.2421875 C28.3046875,9.41406836 27.7187559,10 26.546875,10 L22.4453125,10 L22.4453125,4.7265625 L26.546875,4.7265625 Z M26.546875,5.8984375 L23.6171875,5.8984375 L23.6171875,8.828125 L26.546875,8.828125 C26.8984393,8.828125 27.0917972,8.66992346 27.1269532,8.3535161 L27.1328125,8.2421875 L27.1328125,6.484375 C27.1328125,6.09374805 26.937502,5.8984375 26.546875,5.8984375 Z" id="LOAD" fill="#FF0000" fill-rule="nonzero"></path>
                </g>
                <g id="reset-in" transform="translate(84.000000, 0.000000)">
                    <rect id="Rectangle" stroke="#1A1A1A" stroke-width="2" x="0" y="0" width="32" height="40" rx="5"></rect>
                    <g id="Port/PJ301M" transform="translate(3.500000, 13.000000)">
                        <g id="PJ301M">
                            <path d="M11.6050278,22.8628611 C5.39619722,22.8628611 0.347222222,17.8139167 0.347222222,11.6050278 C0.347222222,5.39625 5.39619722,0.347222222 11.6050278,0.347222222 C17.81385,0.347222222 22.8628333,5.39625 22.8628333,11.6050278 C22.8628333,17.8139167 17.81385,22.8628611 11.6050278,22.8628611" id="path7255" stroke="#636663" stroke-width="0.25" fill="#E6E6E6" fill-rule="nonzero"></path>
                            <path d="M11.6050278,19.7125556 C7.13406111,19.7125556 3.49756944,16.076 3.49756944,11.6050278 C3.49756944,7.13408333 7.13406111,3.49761111 11.6050278,3.49761111 C16.0759972,3.49761111 19.7124778,7.13408333 19.7124778,11.6050278 C19.7124778,16.076 16.0759972,19.7125556 11.6050278,19.7125556" id="path7261" stroke="#636663" stroke-width="0.25" fill="#E6E6E6" fill-rule="nonzero"></path>
                            <path d="M16.6042417,11.6050278 C16.6042417,14.3649444 14.3649278,16.6043056 11.6050278,16.6043056 C8.84511944,16.6043056 6.60580556,14.3649444 6.60580556,11.6050278 C6.60580556,8.84513889 8.84511944,6.60588889 11.6050278,6.60588889 C14.3649278,6.60588889 16.6042417,8.84513889 16.6042417,11.6050278" id="path7265" fill="#000000" fill-rule="nonzero"></path>
                        </g>
                    </g>
                    <path d="M2.30371094,6.04589844 L5.52636719,6.04589844 L5.52636719,5.24023438 L2.30371094,5.24023438 L2.30371094,6.04589844 Z M2.30371094,7.12011719 L2.30371094,9 L1.22949219,9 L1.22949219,4.16601562 L4.98925781,4.16601562 C6.06348193,4.16601562 6.60058594,4.65657062 6.60058594,5.63769531 C6.60058594,6.10319243 6.52360103,6.44514865 6.36962891,6.66357422 C6.52360103,6.91780726 6.60058594,7.2490214 6.60058594,7.65722656 L6.60058594,9 L5.52636719,9 L5.52636719,7.65722656 C5.52636719,7.29915186 5.34733252,7.12011719 4.98925781,7.12011719 L2.30371094,7.12011719 Z M12.5087891,9 L8.74902344,9 C7.67479932,9 7.13769531,8.462896 7.13769531,7.38867188 L7.13769531,4.16601562 L12.5087891,4.16601562 L12.5087891,5.24023438 L8.21191406,5.24023438 L8.21191406,6.04589844 L12.5087891,6.04589844 L12.5087891,7.12011719 L8.21191406,7.12011719 L8.21191406,7.38867188 C8.21191406,7.74674658 8.39094873,7.92578125 8.74902344,7.92578125 L12.5087891,7.92578125 L12.5087891,9 Z M13.0458984,9 L16.8056641,9 C17.8798882,9 18.4169922,8.50765466 18.4169922,7.52294922 C18.4169922,6.53824377 17.8798882,6.04589844 16.8056641,6.04589844 L14.1201172,6.04589844 L14.1201172,5.24023438 L18.4169922,5.24023438 L18.4169922,4.16601562 L14.6572266,4.16601562 C13.5830024,4.16601562 13.0458984,4.66552235 13.0458984,5.66455078 C13.0458984,6.63493324 13.5830024,7.12011719 14.6572266,7.12011719 L17.3427734,7.12011719 L17.3427734,7.92578125 L13.0458984,7.92578125 L13.0458984,9 Z M24.3251953,9 L20.5654297,9 C19.4912056,9 18.9541016,8.462896 18.9541016,7.38867188 L18.9541016,4.16601562 L24.3251953,4.16601562 L24.3251953,5.24023438 L20.0283203,5.24023438 L20.0283203,6.04589844 L24.3251953,6.04589844 L24.3251953,7.12011719 L20.0283203,7.12011719 L20.0283203,7.38867188 C20.0283203,7.74674658 20.207355,7.92578125 20.5654297,7.92578125 L24.3251953,7.92578125 L24.3251953,9 Z M24.8623047,4.16601562 L30.2333984,4.16601562 L30.2333984,5.24023438 L28.0849609,5.24023438 L28.0849609,9 L27.0107422,9 L27.0107422,5.24023438 L24.8623047,5.24023438 L24.8623047,4.16601562 Z" id="RESET" fill="#FF0000" fill-rule="nonzero"></path>
                </g>
            </g>
            <g id="clock">
                <path d="M16.5,68.5 L57.5,87.5" id="Line-2" stroke="#1A1A1A" stroke-linecap="square"></path>
                <g id="clock-out" transform="translate(42.000000, 0.000000)">
                    <rect id="Rectangle" fill="#1A1A1A" x="0" y="0" width="32" height="40" rx="5"></rect>
                    <path d="M16,40 L16,86" id="Line-6" stroke="#1A1A1A" stroke-width="2" stroke-linecap="square"></path>
                    <g id="Port/PJ301M" transform="translate(4.500000, 14.000000)">
                        <g id="PJ301M">
                            <path d="M11.6050278,22.8628611 C5.39619722,22.8628611 0.347222222,17.8139167 0.347222222,11.6050278 C0.347222222,5.39625 5.39619722,0.347222222 11.6050278,0.347222222 C17.81385,0.347222222 22.8628333,5.39625 22.8628333,11.6050278 C22.8628333,17.8139167 17.81385,22.8628611 11.6050278,22.8628611" id="path7255" stroke="#636663" stroke-width="0.25" fill="#E6E6E6" fill-rule="nonzero"></path>
                            <path d="M11.6050278,19.7125556 C7.13406111,19.7125556 3.49756944,16.076 3.49756944,11.6050278 C3.49756944,7.13408333 7.13406111,3.49761111 11.6050278,3.49761111 C16.0759972,3.49761111 19.7124778,7.13408333 19.7124778,11.6050278 C19.7124778,16.076 16.0759972,19.7125556 11.6050278,19.7125556" id="path7261" stroke="#636663" stroke-width="0.25" fill="#E6E6E6" fill-rule="nonzero"></path>
                            <path d="M16.6042417,11.6050278 C16.6042417,14.3649444 14.3649278,16.6043056 11.6050278,16.6043056 C8.84511944,16.6043056 6.60580556,14.3649444 6.60580556,11.6050278 C6.60580556,8.84513889 8.84511944,6.60588889 11.6050278,6.60588889 C14.3649278,6.60588889 16.6042417,8.84513889 16.6042417,11.6050278" id="path7265" fill="#000000" fill-rule="nonzero"></path>
                        </g>
                    </g>
                    <path d="M6.60058594,10 L2.84082031,10 C1.76659619,10 1.22949219,9.462896 1.22949219,8.38867188 L1.22949219,6.77734375 C1.22949219,5.70311963 1.76659619,5.16601562 2.84082031,5.16601562 L6.60058594,5.16601562 L6.60058594,6.24023438 L2.84082031,6.24023438 C2.48274561,6.24023438 2.30371094,6.41926904 2.30371094,6.77734375 L2.30371094,8.38867188 C2.30371094,8.74674658 2.48274561,8.92578125 2.84082031,8.92578125 L6.60058594,8.92578125 L6.60058594,10 Z M7.13769531,5.16601562 L7.13769531,8.38867188 C7.13769531,9.462896 7.67479932,10 8.74902344,10 L12.5087891,10 L12.5087891,8.92578125 L8.74902344,8.92578125 C8.39094873,8.92578125 8.21191406,8.74674658 8.21191406,8.38867188 L8.21191406,5.16601562 L7.13769531,5.16601562 Z M14.6572266,10 C13.5830024,10 13.0458984,9.462896 13.0458984,8.38867188 L13.0458984,6.77734375 C13.0458984,5.70311963 13.5830024,5.16601562 14.6572266,5.16601562 L16.8056641,5.16601562 C17.8798882,5.16601562 18.4169922,5.70311963 18.4169922,6.77734375 L18.4169922,8.38867188 C18.4169922,9.462896 17.9694055,10 17.0742188,10 L14.6572266,10 Z M14.1201172,8.38867188 C14.1201172,8.74674658 14.2991519,8.92578125 14.6572266,8.92578125 L16.8056641,8.92578125 C17.1637388,8.92578125 17.3427734,8.74674658 17.3427734,8.38867188 L17.3427734,6.77734375 C17.3427734,6.41926904 17.1637388,6.24023438 16.8056641,6.24023438 L14.6572266,6.24023438 C14.2991519,6.24023438 14.1201172,6.41926904 14.1201172,6.77734375 L14.1201172,8.38867188 Z M24.3251953,10 L20.5654297,10 C19.4912056,10 18.9541016,9.462896 18.9541016,8.38867188 L18.9541016,6.77734375 C18.9541016,5.70311963 19.4912056,5.16601562 20.5654297,5.16601562 L24.3251953,5.16601562 L24.3251953,6.24023438 L20.5654297,6.24023438 C20.207355,6.24023438 20.0283203,6.41926904 20.0283203,6.77734375 L20.0283203,8.38867188 C20.0283203,8.74674658 20.207355,8.92578125 20.5654297,8.92578125 L24.3251953,8.92578125 L24.3251953,10 Z M25.9365234,8.12011719 L25.9365234,10 L24.8623047,10 L24.8623047,5.16601562 L25.9365234,5.16601562 L25.9365234,7.04589844 L28.6220703,7.04589844 C28.980145,7.04589844 29.1591797,6.86686377 29.1591797,6.50878906 L29.1591797,5.16601562 L30.2333984,5.16601562 L30.2333984,6.50878906 C30.2333984,6.96354394 30.1367197,7.32161328 29.9433594,7.58300781 C30.1367197,7.84440235 30.2333984,8.20247168 30.2333984,8.65722656 L30.2333984,10 L29.1591797,10 L29.1591797,8.65722656 C29.1591797,8.29915186 28.980145,8.12011719 28.6220703,8.12011719 L25.9365234,8.12011719 Z" id="CLOCK" fill="#FF0000" fill-rule="nonzero"></path>
                </g>
                <g id="clock-mod">
                    <rect id="Rectangle" stroke="#1A1A1A" stroke-width="2" x="0" y="0" width="32" height="40" rx="5"></rect>
                    <path d="M16,67 L16,41" id="Line" stroke="#1A1A1A" stroke-width="2" stroke-linecap="square"></path>
                    <g id="Port/PJ301M" transform="translate(3.500000, 13.000000)">
                        <g id="PJ301M">
                            <path d="M11.6050278,22.8628611 C5.39619722,22.8628611 0.347222222,17.8139167 0.347222222,11.6050278 C0.347222222,5.39625 5.39619722,0.347222222 11.6050278,0.347222222 C17.81385,0.347222222 22.8628333,5.39625 22.8628333,11.6050278 C22.8628333,17.8139167 17.81385,22.8628611 11.6050278,22.8628611" id="path7255" stroke="#636663" stroke-width="0.25" fill="#E6E6E6" fill-rule="nonzero"></path>
                            <path d="M11.6050278,19.7125556 C7.13406111,19.7125556 3.49756944,16.076 3.49756944,11.6050278 C3.49756944,7.13408333 7.13406111,3.49761111 11.6050278,3.49761111 C16.0759972,3.49761111 19.7124778,7.13408333 19.7124778,11.6050278 C19.7124778,16.076 16.0759972,19.7125556 11.6050278,19.7125556" id="path7261" stroke="#636663" stroke-width="0.25" fill="#E6E6E6" fill-rule="nonzero"></path>
                            <path d="M16.6042417,11.6050278 C16.6042417,14.3649444 14.3649278,16.6043056 11.6050278,16.6043056 C8.84511944,16.6043056 6.60580556,14.3649444 6.60580556,11.6050278 C6.60580556,8.84513889 8.84511944,6.60588889 11.6050278,6.60588889 C14.3649278,6.60588889 16.6042417,8.84513889 16.6042417,11.6050278" id="path7265" fill="#000000" fill-rule="nonzero"></path>
                        </g>
                    </g>
                    <path d="M8.67578125,10 L4.57421875,10 C3.40233789,10 2.81640625,9.41406836 2.81640625,8.2421875 L2.81640625,6.484375 C2.81640625,5.31249414 3.40233789,4.7265625 4.57421875,4.7265625 L8.67578125,4.7265625 L8.67578125,5.8984375 L4.57421875,5.8984375 C4.1835918,5.8984375 3.98828125,6.09374805 3.98828125,6.484375 L3.98828125,8.2421875 C3.98828125,8.63281445 4.1835918,8.828125 4.57421875,8.828125 L8.67578125,8.828125 L8.67578125,10 Z M13.9492188,4.7265625 C15.1210996,4.7265625 15.7070312,5.31249414 15.7070312,6.484375 L15.7070312,10 L14.5351562,10 L14.5351562,6.484375 C14.5351562,6.09374805 14.3398457,5.8984375 13.9492188,5.8984375 L13.0703125,5.8984375 L13.0703125,10 L11.8984375,10 L11.8984375,5.8984375 L10.4335938,5.8984375 L10.4335938,10 L9.26171875,10 L9.26171875,4.7265625 L13.9492188,4.7265625 Z M20.3945312,4.7265625 C21.5664121,4.7265625 22.1523438,5.31249414 22.1523438,6.484375 L22.1523438,8.2421875 C22.1523438,9.41406836 21.6640674,10 20.6875,10 L18.0507812,10 C16.8789004,10 16.2929688,9.41406836 16.2929688,8.2421875 L16.2929688,6.484375 C16.2929688,5.31249414 16.8789004,4.7265625 18.0507812,4.7265625 L20.3945312,4.7265625 Z M26.8398438,4.7265625 C28.0117246,4.7265625 28.5976562,5.31249414 28.5976562,6.484375 L28.5976562,8.2421875 C28.5976562,9.41406836 28.0117246,10 26.8398438,10 L22.7382812,10 L22.7382812,4.7265625 L26.8398438,4.7265625 Z M20.3945312,5.8984375 L18.0507812,5.8984375 C17.6601543,5.8984375 17.4648438,6.09374805 17.4648438,6.484375 L17.4648438,8.2421875 C17.4648438,8.63281445 17.6601543,8.828125 18.0507812,8.828125 L20.3945312,8.828125 C20.7851582,8.828125 20.9804688,8.63281445 20.9804688,8.2421875 L20.9804688,6.484375 C20.9804688,6.09374805 20.7851582,5.8984375 20.3945312,5.8984375 Z M26.8398438,5.8984375 L23.9101562,5.8984375 L23.9101562,8.828125 L26.8398438,8.828125 C27.191408,8.828125 27.384766,8.66992346 27.4199219,8.3535161 L27.4257812,8.2421875 L27.4257812,6.484375 C27.4257812,6.09374805 27.2304707,5.8984375 26.8398438,5.8984375 Z" id="CMOD" fill="#FF0000" fill-rule="nonzero"></path>
                </g>
            </g>
        </g>
        <g id="player1">
            <g id="bg" fill="#1A1A1A">
                <rect id="inner" x="9" y="0" width="91" height="380"></rect>
            </g>
            <g id="buttons" transform="translate(17.000000, 9.000000)">
                <g id="Up">
                    <rect id="Rectangle" fill="#FFFFFF" x="0" y="7.10542736e-15" width="76" height="40" rx="5"></rect>
                    <path d="M51.5546875,3.7265625 L51.5546875,7.2421875 C51.5546875,8.41406836 52.1406191,9 53.3125,9 L55.65625,9 C56.8281309,9 57.4140625,8.41406836 57.4140625,7.2421875 L57.4140625,3.7265625 L56.2421875,3.7265625 L56.2421875,7.2421875 C56.2421875,7.63281445 56.046877,7.828125 55.65625,7.828125 L53.3125,7.828125 C52.921873,7.828125 52.7265625,7.63281445 52.7265625,7.2421875 L52.7265625,3.7265625 L51.5546875,3.7265625 Z M58,9 L58,3.7265625 L62.1015625,3.7265625 C63.2734434,3.7265625 63.859375,4.26561961 63.859375,5.34375 C63.859375,6.41406785 63.2734434,6.94921875 62.1015625,6.94921875 L59.171875,6.94921875 L59.171875,9 L58,9 Z M62.6875,5.77734375 L59.171875,5.77734375 L59.171875,4.8984375 L62.6875,4.8984375 L62.6875,5.77734375 Z" id="UP" fill="#FF0000" fill-rule="nonzero"></path>
                </g>
                <g id="Dn" transform="translate(0.000000, 46.000000)">
                    <rect id="Rectangle" fill="#FFFFFF" x="0" y="0" width="76" height="40" rx="5"></rect>
                    <path d="M43.8164062,9 L43.8164062,3.7265625 L47.9179688,3.7265625 C49.0898496,3.7265625 49.6757812,4.31249414 49.6757812,5.484375 L49.6757812,7.2421875 C49.6757812,8.41406836 49.0898496,9 47.9179688,9 L43.8164062,9 Z M47.9179688,7.828125 C48.3085957,7.828125 48.5039062,7.63281445 48.5039062,7.2421875 L48.5039062,5.484375 C48.5039062,5.09374805 48.3085957,4.8984375 47.9179688,4.8984375 L44.9882812,4.8984375 L44.9882812,7.828125 L47.9179688,7.828125 Z M52.0195312,9 C50.8476504,9 50.2617188,8.41406836 50.2617188,7.2421875 L50.2617188,5.484375 C50.2617188,4.31249414 50.8476504,3.7265625 52.0195312,3.7265625 L54.3632812,3.7265625 C55.5351621,3.7265625 56.1210938,4.31249414 56.1210938,5.484375 L56.1210938,7.2421875 C56.1210938,8.41406836 55.6328174,9 54.65625,9 L52.0195312,9 Z M51.4335938,7.2421875 C51.4335938,7.63281445 51.6289043,7.828125 52.0195312,7.828125 L54.3632812,7.828125 C54.7539082,7.828125 54.9492188,7.63281445 54.9492188,7.2421875 L54.9492188,5.484375 C54.9492188,5.09374805 54.7539082,4.8984375 54.3632812,4.8984375 L52.0195312,4.8984375 C51.6289043,4.8984375 51.4335938,5.09374805 51.4335938,5.484375 L51.4335938,7.2421875 Z M56.7070312,3.7265625 L56.7070312,7.2421875 C56.7070312,8.41406836 57.2929629,9 58.4648438,9 L63.1523438,9 L63.1523438,3.7265625 L61.9804688,3.7265625 L61.9804688,7.828125 L60.515625,7.828125 L60.515625,3.7265625 L59.34375,3.7265625 L59.34375,7.828125 L58.4648438,7.828125 C58.0742168,7.828125 57.8789062,7.63281445 57.8789062,7.2421875 L57.8789062,3.7265625 L56.7070312,3.7265625 Z M63.7382812,9 L63.7382812,3.7265625 L67.8398438,3.7265625 C69.0117246,3.7265625 69.5976562,4.31249414 69.5976562,5.484375 L69.5976562,9 L68.4257812,9 L68.4257812,5.484375 C68.4257812,5.09374805 68.2304707,4.8984375 67.8398438,4.8984375 L64.9101562,4.8984375 L64.9101562,9 L63.7382812,9 Z" id="DOWN" fill="#FF0000" fill-rule="nonzero"></path>
                </g>
                <g id="Lft" transform="translate(0.000000, 92.000000)">
                    <rect id="Rectangle" fill="#FFFFFF" x="0" y="-2.84217094e-14" width="76" height="40" rx="5"></rect>
                    <path d="M45.4023438,3.7265625 L45.4023438,7.2421875 C45.4023438,8.41406836 45.9882754,9 47.1601562,9 L51.2617188,9 L51.2617188,7.828125 L47.1601562,7.828125 C46.7695293,7.828125 46.5742188,7.63281445 46.5742188,7.2421875 L46.5742188,3.7265625 L45.4023438,3.7265625 Z M57.7070312,9 L53.6054688,9 C52.4335879,9 51.8476562,8.41406836 51.8476562,7.2421875 L51.8476562,3.7265625 L57.7070312,3.7265625 L57.7070312,4.8984375 L53.0195312,4.8984375 L53.0195312,5.77734375 L57.7070312,5.77734375 L57.7070312,6.94921875 L53.0195312,6.94921875 L53.0195312,7.2421875 C53.0195312,7.63281445 53.2148418,7.828125 53.6054688,7.828125 L57.7070312,7.828125 L57.7070312,9 Z M58.2929688,9 L58.2929688,3.7265625 L63.5664062,3.7265625 L63.5664062,4.8984375 L59.4648438,4.8984375 L59.4648438,5.77734375 L62.3945312,5.77734375 L62.3945312,6.94921875 L59.4648438,6.94921875 L59.4648438,9 L58.2929688,9 Z M64.1523438,3.7265625 L70.0117188,3.7265625 L70.0117188,4.8984375 L67.6679688,4.8984375 L67.6679688,9 L66.4960938,9 L66.4960938,4.8984375 L64.1523438,4.8984375 L64.1523438,3.7265625 Z" id="LEFT" fill="#FF0000" fill-rule="nonzero"></path>
                </g>
                <g id="Rgt" transform="translate(0.000000, 138.000000)">
                    <rect id="Rectangle" fill="#FFFFFF" x="0" y="0" width="76" height="40" rx="5"></rect>
                    <path d="M46.4023438,5.77734375 L49.9179688,5.77734375 L49.9179688,4.8984375 L46.4023438,4.8984375 L46.4023438,5.77734375 Z M46.4023438,6.94921875 L46.4023438,9 L45.2304688,9 L45.2304688,3.7265625 L49.3320312,3.7265625 C50.5039121,3.7265625 51.0898438,4.2617134 51.0898438,5.33203125 C51.0898438,5.83984629 51.0058602,6.21288943 50.8378906,6.45117188 C51.0058602,6.72851701 51.0898438,7.08984152 51.0898438,7.53515625 L51.0898438,9 L49.9179688,9 L49.9179688,7.53515625 C49.9179688,7.1445293 49.7226582,6.94921875 49.3320312,6.94921875 L46.4023438,6.94921875 Z M51.6757812,9 L51.6757812,3.7265625 L52.8476562,3.7265625 L52.8476562,9 L51.6757812,9 Z M59.2929688,5.77734375 L59.2929688,9 L55.1914062,9 C54.0195254,9 53.4335938,8.41406836 53.4335938,7.2421875 L53.4335938,5.484375 C53.4335938,4.31249414 54.0195254,3.7265625 55.1914062,3.7265625 L59.2929688,3.7265625 L59.2929688,4.8984375 L55.1914062,4.8984375 C54.8007793,4.8984375 54.6054688,5.09374805 54.6054688,5.484375 L54.6054688,7.2421875 C54.6054688,7.63281445 54.8007793,7.828125 55.1914062,7.828125 L58.1210938,7.828125 L58.1210938,6.94921875 L56.65625,6.94921875 L56.65625,5.77734375 L59.2929688,5.77734375 Z M59.2929688,5.77734375 L59.2929688,9 L55.1914062,9 C54.0195254,9 53.4335938,8.41406836 53.4335938,7.2421875 L53.4335938,5.484375 C53.4335938,4.31249414 54.0195254,3.7265625 55.1914062,3.7265625 L59.2929688,3.7265625 L59.2929688,4.8984375 L55.1914062,4.8984375 C54.8007793,4.8984375 54.6054688,5.09374805 54.6054688,5.484375 L54.6054688,7.2421875 C54.6054688,7.63281445 54.8007793,7.828125 55.1914062,7.828125 L58.1210938,7.828125 L58.1210938,6.94921875 L56.65625,6.94921875 L56.65625,5.77734375 L59.2929688,5.77734375 Z M59.8789062,9 L59.8789062,3.7265625 L61.0507812,3.7265625 L61.0507812,5.77734375 L64.5664062,5.77734375 L64.5664062,3.7265625 L65.7382812,3.7265625 L65.7382812,9 L64.5664062,9 L64.5664062,6.94921875 L61.0507812,6.94921875 L61.0507812,9 L59.8789062,9 Z M66.3242188,3.7265625 L72.1835938,3.7265625 L72.1835938,4.8984375 L69.8398438,4.8984375 L69.8398438,9 L68.6679688,9 L68.6679688,4.8984375 L66.3242188,4.8984375 L66.3242188,3.7265625 Z" id="RIGHT" fill="#FF0000" fill-rule="nonzero"></path>
                </g>
                <g id="Sel" transform="translate(0.000000, 184.000000)">
                    <rect id="Rectangle" fill="#808080" x="0" y="-2.84217094e-14" width="76" height="40" rx="5"></rect>
                    <path d="M35.6640625,9 L39.765625,9 C40.9375059,9 41.5234375,8.462896 41.5234375,7.38867188 C41.5234375,6.31444775 40.9375059,5.77734375 39.765625,5.77734375 L36.8359375,5.77734375 L36.8359375,4.8984375 L41.5234375,4.8984375 L41.5234375,3.7265625 L37.421875,3.7265625 C36.2499941,3.7265625 35.6640625,4.27147893 35.6640625,5.36132812 C35.6640625,6.41992717 36.2499941,6.94921875 37.421875,6.94921875 L40.3515625,6.94921875 L40.3515625,7.828125 L35.6640625,7.828125 L35.6640625,9 Z M47.96875,9 L43.8671875,9 C42.6953066,9 42.109375,8.41406836 42.109375,7.2421875 L42.109375,3.7265625 L47.96875,3.7265625 L47.96875,4.8984375 L43.28125,4.8984375 L43.28125,5.77734375 L47.96875,5.77734375 L47.96875,6.94921875 L43.28125,6.94921875 L43.28125,7.2421875 C43.28125,7.63281445 43.4765605,7.828125 43.8671875,7.828125 L47.96875,7.828125 L47.96875,9 Z M48.5546875,3.7265625 L48.5546875,7.2421875 C48.5546875,8.41406836 49.1406191,9 50.3125,9 L54.4140625,9 L54.4140625,7.828125 L50.3125,7.828125 C49.921873,7.828125 49.7265625,7.63281445 49.7265625,7.2421875 L49.7265625,3.7265625 L48.5546875,3.7265625 Z M60.859375,9 L56.7578125,9 C55.5859316,9 55,8.41406836 55,7.2421875 L55,3.7265625 L60.859375,3.7265625 L60.859375,4.8984375 L56.171875,4.8984375 L56.171875,5.77734375 L60.859375,5.77734375 L60.859375,6.94921875 L56.171875,6.94921875 L56.171875,7.2421875 C56.171875,7.63281445 56.3671855,7.828125 56.7578125,7.828125 L60.859375,7.828125 L60.859375,9 Z M67.3046875,9 L63.203125,9 C62.0312441,9 61.4453125,8.41406836 61.4453125,7.2421875 L61.4453125,5.484375 C61.4453125,4.31249414 62.0312441,3.7265625 63.203125,3.7265625 L67.3046875,3.7265625 L67.3046875,4.8984375 L63.203125,4.8984375 C62.812498,4.8984375 62.6171875,5.09374805 62.6171875,5.484375 L62.6171875,7.2421875 C62.6171875,7.63281445 62.812498,7.828125 63.203125,7.828125 L67.3046875,7.828125 L67.3046875,9 Z M67.890625,3.7265625 L73.75,3.7265625 L73.75,4.8984375 L71.40625,4.8984375 L71.40625,9 L70.234375,9 L70.234375,4.8984375 L67.890625,4.8984375 L67.890625,3.7265625 Z" id="SELECT" fill="#FF0000" fill-rule="nonzero"></path>
                </g>
                <g id="Start" transform="translate(0.000000, 230.000000)">
                    <rect id="Rectangle" fill="#808080" x="0" y="-2.84217094e-14" width="76" height="40" rx="5"></rect>
                    <path d="M40.3867188,9 L44.4882812,9 C45.6601621,9 46.2460938,8.462896 46.2460938,7.38867188 C46.2460938,6.31444775 45.6601621,5.77734375 44.4882812,5.77734375 L41.5585938,5.77734375 L41.5585938,4.8984375 L46.2460938,4.8984375 L46.2460938,3.7265625 L42.1445312,3.7265625 C40.9726504,3.7265625 40.3867188,4.27147893 40.3867188,5.36132812 C40.3867188,6.41992717 40.9726504,6.94921875 42.1445312,6.94921875 L45.0742188,6.94921875 L45.0742188,7.828125 L40.3867188,7.828125 L40.3867188,9 Z M46.8320312,3.7265625 L52.6914062,3.7265625 L52.6914062,4.8984375 L50.3476562,4.8984375 L50.3476562,9 L49.1757812,9 L49.1757812,4.8984375 L46.8320312,4.8984375 L46.8320312,3.7265625 Z M57.9648438,6.36328125 L57.9648438,5.484375 C57.9648438,5.09374805 57.7695332,4.8984375 57.3789062,4.8984375 L55.0351562,4.8984375 C54.6445293,4.8984375 54.4492188,5.09374805 54.4492188,5.484375 L54.4492188,6.36328125 L57.9648438,6.36328125 Z M54.4492188,7.53515625 L54.4492188,9 L53.2773438,9 L53.2773438,5.484375 C53.2773438,4.31249414 53.8632754,3.7265625 55.0351562,3.7265625 L57.3789062,3.7265625 C58.5507871,3.7265625 59.1367188,4.31249414 59.1367188,5.484375 L59.1367188,9 L57.9648438,9 L57.9648438,7.53515625 L54.4492188,7.53515625 Z M60.8945312,5.77734375 L64.4101562,5.77734375 L64.4101562,4.8984375 L60.8945312,4.8984375 L60.8945312,5.77734375 Z M60.8945312,6.94921875 L60.8945312,9 L59.7226562,9 L59.7226562,3.7265625 L63.8242188,3.7265625 C64.9960996,3.7265625 65.5820312,4.2617134 65.5820312,5.33203125 C65.5820312,5.83984629 65.4980477,6.21288943 65.3300781,6.45117188 C65.4980477,6.72851701 65.5820312,7.08984152 65.5820312,7.53515625 L65.5820312,9 L64.4101562,9 L64.4101562,7.53515625 C64.4101562,7.1445293 64.2148457,6.94921875 63.8242188,6.94921875 L60.8945312,6.94921875 Z M66.1679688,3.7265625 L72.0273438,3.7265625 L72.0273438,4.8984375 L69.6835938,4.8984375 L69.6835938,9 L68.5117188,9 L68.5117188,4.8984375 L66.1679688,4.8984375 L66.1679688,3.7265625 Z" id="START" fill="#FF0000" fill-rule="nonzero"></path>
                </g>
                <g id="B" transform="translate(0.000000, 276.000000)">
                    <rect id="Rectangle" fill="#DDDDDD" x="0" y="0" width="76" height="40" rx="5"></rect>
                    <path d="M56.5820312,32.6289062 L62.4414062,32.6289062 L62.4414062,31.1640625 L56.5820312,31.1640625 L56.5820312,32.6289062 Z M56.5820312,36.046875 L62.4414062,36.046875 L62.4414062,34.5820312 L56.5820312,34.5820312 L56.5820312,36.046875 Z M54.6289062,38 L54.6289062,29.2109375 L61.4648438,29.2109375 C63.4179785,29.2109375 64.3945312,30.0963453 64.3945312,31.8671875 C64.3945312,32.5898474 64.2382828,33.1692687 63.9257812,33.6054688 C64.2382828,34.0351584 64.3945312,34.6113245 64.3945312,35.3339844 C64.3945312,37.111337 63.4179785,38 61.4648438,38 L54.6289062,38 Z" fill="#FF0000" fill-rule="nonzero"></path>
                </g>
                <g id="A" transform="translate(0.000000, 322.000000)">
                    <rect id="Rectangle" fill="#DDDDDD" x="0" y="0" width="76" height="40" rx="5"></rect>
                    <path d="M62.4414062,33.6054688 L62.4414062,32.140625 C62.4414062,31.4895801 62.1158887,31.1640625 61.4648438,31.1640625 L57.5585938,31.1640625 C56.9075488,31.1640625 56.5820312,31.4895801 56.5820312,32.140625 L56.5820312,33.6054688 L62.4414062,33.6054688 Z M56.5820312,35.5585938 L56.5820312,38 L54.6289062,38 L54.6289062,32.140625 C54.6289062,30.1874902 55.605459,29.2109375 57.5585938,29.2109375 L61.4648438,29.2109375 C63.4179785,29.2109375 64.3945312,30.1874902 64.3945312,32.140625 L64.3945312,38 L62.4414062,38 L62.4414062,35.5585938 L56.5820312,35.5585938 Z" fill="#FF0000" fill-rule="nonzero"></path>
                </g>
            </g>
        </g>
    </g>
</svg>