<?xml version="1.0" encoding="UTF-8"?>
<svg width="14px" height="31px" viewBox="0 0 14 31" version="1.1" xmlns="http://www.w3.org/2000/svg" xmlns:xlink="http://www.w3.org/1999/xlink">
    <!-- Generator: Sketch 58 (84663) - https://sketch.com -->
    <title>NESSwitchVertical_0</title>
    <desc>Created with Sketch.</desc>
    <g id="NESSwitchVertical_0" stroke="none" stroke-width="1" fill="none" fill-rule="evenodd">
        <g id="Group" transform="translate(7.176471, 15.176471) rotate(-270.000000) translate(-7.176471, -15.176471) translate(-7.823529, 9.176471)" fill-rule="nonzero">
            <path d="M6.17888039,0.441176471 L23.8211196,0.441176471 C26.9900607,0.441176471 29.5588235,3.00872616 29.5588235,6.17677054 L29.5588235,6.17677054 C29.5588235,9.34361512 26.9900607,11.9117647 23.8211196,11.9117647 L6.17888039,11.9117647 C3.00993932,11.9117647 0.441176471,9.34421501 0.441176471,6.17677054 L0.441176471,6.17677054 C0.441176471,3.00872616 3.00993932,0.441176471 6.17888039,0.441176471 Z" id="rect4247" fill="#2B2B2B"></path>
            <path d="M8.82799008,1.20588235 L23.1720099,1.20588235 C26.2771071,1.20588235 28.7941176,3.3784273 28.7941176,6.05882353 L28.7941176,6.05882353 C28.7941176,8.73921976 26.2771071,10.9117647 23.1720099,10.9117647 L8.82799008,10.9117647 C5.72289293,10.9117647 3.20588235,8.73921976 3.20588235,6.05882353 L3.20588235,6.05882353 C3.20588235,3.3784273 5.72289293,1.20588235 8.82799008,1.20588235 Z" id="rect3789" fill="#3D3D3D"></path>
        </g>
    </g>
</svg>