<?xml version="1.0" encoding="UTF-8"?>
<svg width="43px" height="43px" viewBox="0 0 43 43" version="1.1" xmlns="http://www.w3.org/2000/svg" xmlns:xlink="http://www.w3.org/1999/xlink">
    <!-- Generator: Sketch 58 (84663) - https://sketch.com -->
    <title>Knobs/Rogan/3P/SNES</title>
    <desc>Created with Sketch.</desc>
    <defs>
        <radialGradient cx="50%" cy="50%" fx="50%" fy="50%" r="100%" id="radialGradient-1">
            <stop stop-color="#C9C9C9" offset="0%"></stop>
            <stop stop-color="#9A9A98" offset="100%"></stop>
        </radialGradient>
    </defs>
    <g id="Knobs/Rogan/3P/SNES" stroke="none" stroke-width="1" fill="none" fill-rule="evenodd">
        <g id="Group" transform="translate(1.000000, 1.000000)">
            <g id="Group-2">
                <polygon id="Path" stroke="#979797" fill="#979797" points="0.512518597 17.6593125 2.38422816 16.22121 1.05185657 14.3307271 3.13725141 13.5126017 2.38422816 11.6013875 4.53313099 10.6287588 4.09743165 8.56500535 6.30487415 8.56500535 5.91280955 6.04734393 8.10815529 6.35045841 8.10815529 3.99079187 10.7225673 4.57257963 11.1660431 2.18323449 13.1922503 3.15782718 14.144222 1.03668053 16.1412673 2.18323449 17.3451108 0.376113565 18.8744868 1.87706487 20.5007439 0 22.1578928 1.87706487 23.7337117 0.376113565 24.9258905 2.18323449 27.0002686 1.03668053 27.7029607 3.15782718 29.7337041 2.18323449 30.3521509 4.57257963 32.4435941 3.99079187 32.4435941 6.35045841 35.0899762 6.04734393 35.0899762 8.56500535 37.1509615 8.56500535 36.6282087 10.6287588 38.6200697 11.2845249 37.7875534 13.5126017 40.0068767 14.3307271 38.6200697 16.22121 41 17.6593125 39.1171168 19.3106208 41 20.7098647 39.1171168 22.2741158 40.697904 23.8695585 38.6200697 25.266853 40.0068767 27.1252568 37.7875534 28.0012118 38.6200697 30.1526917 36.6282087 30.6910527 37.1509615 32.6865018 34.7713562 33.0376257 35.0899762 35.2203118 32.7684785 35.2203118 32.7684785 37.3997245 30.3521509 36.9150469 29.7337041 39.0235365 27.7029607 38.2377084 27.0002686 40.3163012 24.9258905 39.0235365 23.7337117 41 21.8770752 39.6539884 20.5007439 41 18.8744868 39.6539884 17.3451108 41 16.1412673 39.0235365 14.144222 40.3163012 13.1922503 38.2377084 11.1660431 39.0235365 10.7225673 36.9150469 8.44124819 37.3997245 8.44124819 35.2203118 6.30487415 35.2203118 6.30487415 33.0376257 4.09743165 32.6865018 4.53313099 30.6910527 2.38422816 30.1526917 3.13725141 28.0012118 1.05185657 27.1252568 2.38422816 25.266853 0.512518597 23.8695585 1.88955713 22.2741158 0 20.7098647 1.88955713 19.3106208"></polygon>
                <circle id="Oval" stroke="#A7A7A7" stroke-width="0.75" cx="20.5" cy="21.0394737" r="18.8815789"></circle>
            </g>
            <path d="M25,7.5 C25,9.98465451 22.9850106,12 20.5007829,12 C18.0149894,12 16,9.98465451 16,7.5 C16,5.01377481 18.0149894,3 20.5007829,3 C22.9850106,3 25,5.01377481 25,7.5" id="path7707" stroke="url(#radialGradient-1)" stroke-width="1.3" fill="#C3C3C3" fill-rule="nonzero"></path>
        </g>
    </g>
</svg>