<?xml version="1.0" encoding="UTF-8"?>
<svg width="31px" height="31px" viewBox="0 0 31 31" version="1.1" xmlns="http://www.w3.org/2000/svg" xmlns:xlink="http://www.w3.org/1999/xlink">
    <!-- Generator: Sketch 58 (84663) - https://sketch.com -->
    <title>Knobs/Rogan/1P/SNES</title>
    <desc>Created with Sketch.</desc>
    <defs>
        <radialGradient cx="50%" cy="50%" fx="50%" fy="50%" r="100%" id="radialGradient-1">
            <stop stop-color="#C9C9C9" offset="0%"></stop>
            <stop stop-color="#9A9A98" offset="100%"></stop>
        </radialGradient>
    </defs>
    <g id="Knobs/Rogan/1P/SNES" stroke="none" stroke-width="1" fill="none" fill-rule="evenodd">
        <g id="Group" transform="translate(1.000000, 1.000000)">
            <g id="Group-2">
                <polygon id="Path" stroke="#979797" fill="#979797" points="0.362513154 12.4907332 1.68640529 11.4735388 0.743996109 10.136368 2.21903148 9.55769391 1.68640529 8.20585945 3.20636094 7.51790259 2.89818336 6.05817451 4.45954513 6.05817451 4.18223115 4.27738961 5.73503667 4.49178766 5.73503667 2.82275523 7.58425494 3.23426364 7.89793296 1.54423903 9.33110385 2.23358508 10.0044497 0.733261839 11.4169939 1.54423903 12.268493 0.266031546 13.3502468 1.32768003 14.5005262 0 15.6726559 1.32768003 16.7872595 0.266031546 17.6305079 1.54423903 19.097751 0.733261839 19.5947771 2.23358508 21.0311566 1.54423903 21.4685945 3.23426364 22.947908 2.82275523 22.947908 4.49178766 24.8197392 4.27738961 24.8197392 6.05817451 26.2775093 6.05817451 25.9077574 7.51790259 27.3166346 7.98173709 26.7277817 9.55769391 28.2975469 10.136368 27.3166346 11.4735388 29 12.4907332 27.6682046 13.6587318 29 14.6484409 27.6682046 15.7548624 28.7863224 16.8833463 27.3166346 17.8716765 28.2975469 19.1861572 26.7277817 19.8057352 27.3166346 21.3275136 25.9077574 21.7083056 26.2775093 23.1197208 24.5943739 23.3680767 24.8197392 24.9119279 23.1777043 24.9119279 23.1777043 26.4534637 21.4685945 26.1106429 21.0311566 27.6020136 19.5947771 27.046184 19.097751 28.5164082 17.6305079 27.6020136 16.7872595 29 15.4740288 28.047943 14.5005262 29 13.3502468 28.047943 12.268493 29 11.4169939 27.6020136 10.0044497 28.5164082 9.33110385 27.046184 7.89793296 27.6020136 7.58425494 26.1106429 5.97063896 26.4534637 5.97063896 24.9119279 4.45954513 24.9119279 4.45954513 23.3680767 2.89818336 23.1197208 3.20636094 21.7083056 1.68640529 21.3275136 2.21903148 19.8057352 0.743996109 19.1861572 1.68640529 17.8716765 0.362513154 16.8833463 1.33651602 15.7548624 0 14.6484409 1.33651602 13.6587318"></polygon>
                <circle id="Oval" stroke="#A7A7A7" stroke-width="0.75" cx="14.5" cy="14.8815789" r="13.3552632"></circle>
            </g>
            <path d="M18,5 C18,6.65643634 16.6566737,8 15.000522,8 C13.3433263,8 12,6.65643634 12,5 C12,3.34251654 13.3433263,2 15.000522,2 C16.6566737,2 18,3.34251654 18,5" id="path7707" stroke="url(#radialGradient-1)" stroke-width="1.3" fill="#C3C3C3" fill-rule="nonzero"></path>
        </g>
    </g>
</svg>