<?xml version="1.0" encoding="UTF-8"?>
<svg width="34px" height="34px" viewBox="0 0 34 34" version="1.1" xmlns="http://www.w3.org/2000/svg" xmlns:xlink="http://www.w3.org/1999/xlink">
    <!-- Generator: Sketch 58 (84663) - https://sketch.com -->
    <title>Knobs/Rogan/2P/SNES</title>
    <desc>Created with Sketch.</desc>
    <defs>
        <radialGradient cx="50%" cy="50%" fx="50%" fy="50%" r="100%" id="radialGradient-1">
            <stop stop-color="#C9C9C9" offset="0%"></stop>
            <stop stop-color="#9A9A98" offset="100%"></stop>
        </radialGradient>
    </defs>
    <g id="Knobs/Rogan/2P/SNES" stroke="none" stroke-width="1" fill="none" fill-rule="evenodd">
        <g id="Group" transform="translate(1.000000, 1.000000)">
            <g id="Group-2">
                <polygon id="Path" stroke="#979797" fill="#979797" points="0.400014515 13.7828781 1.860861 12.6604566 0.820961223 11.1849578 2.44858646 10.5464209 1.860861 9.05474146 3.53805345 8.29561665 3.19799544 6.68488222 4.92087739 6.68488222 4.61487575 4.71987819 6.32831632 4.95645534 6.32831632 3.11476439 8.36883303 3.56884264 8.71496051 1.7039879 10.2963905 2.46464561 11.0393928 0.809116512 12.5980623 1.7039879 13.5376475 0.293552051 14.7313068 1.46502624 16.0005806 0 17.2939651 1.46502624 18.5238725 0.293552051 19.4543535 1.7039879 21.0733804 0.809116512 21.621823 2.46464561 23.2067935 1.7039879 23.6894836 3.56884264 25.3218296 3.11476439 25.3218296 4.95645534 27.3872985 4.71987819 27.3872985 6.68488222 28.9958724 6.68488222 28.5878702 8.29561665 30.1424934 8.80743403 29.4927246 10.5464209 31.2248793 11.1849578 30.1424934 12.6604566 32 13.7828781 30.5304327 15.071704 32 16.1637968 30.5304327 17.3846758 31.7642178 18.6298993 30.1424934 19.7204706 31.2248793 21.1709321 29.4927246 21.8546043 30.1424934 23.5338082 28.5878702 23.9539923 28.9958724 25.511416 27.1386195 25.785464 27.3872985 27.4890239 25.5753979 27.4890239 25.5753979 29.1900289 23.6894836 28.8117439 23.2067935 30.4573943 21.621823 29.8440651 21.0733804 31.4663814 19.4543535 30.4573943 18.5238725 32 17.0747904 30.9494544 16.0005806 32 14.7313068 30.9494544 13.5376475 32 12.5980623 30.4573943 11.0393928 31.4663814 10.2963905 29.8440651 8.71496051 30.4573943 8.36883303 28.8117439 6.58829127 29.1900289 6.58829127 27.4890239 4.92087739 27.4890239 4.92087739 25.785464 3.19799544 25.511416 3.53805345 23.9539923 1.860861 23.5338082 2.44858646 21.8546043 0.820961223 21.1709321 1.860861 19.7204706 0.400014515 18.6298993 1.47477629 17.3846758 0 16.1637968 1.47477629 15.071704"></polygon>
                <circle id="Oval" stroke="#A7A7A7" stroke-width="0.75" cx="16" cy="16.4210526" r="14.7368421"></circle>
            </g>
            <path d="M20,5.5 C20,7.43250906 18.432786,9 16.5006089,9 C14.567214,9 13,7.43250906 13,5.5 C13,3.5662693 14.567214,2 16.5006089,2 C18.432786,2 20,3.5662693 20,5.5" id="path7707" stroke="url(#radialGradient-1)" stroke-width="1.3" fill="#C3C3C3" fill-rule="nonzero"></path>
        </g>
    </g>
</svg>