<?xml version="1.0" encoding="UTF-8"?>
<svg width="470px" height="70px" viewBox="0 0 470 70" version="1.1" xmlns="http://www.w3.org/2000/svg" xmlns:xlink="http://www.w3.org/1999/xlink">
    <!-- Generator: Sketch 61.2 (89653) - https://sketch.com -->
    <title>Logo</title>
    <desc>Created with Sketch.</desc>
    <g id="Logo" stroke="none" stroke-width="1" fill="none" fill-rule="evenodd">
        <path d="M84.84375,61.125 L84.84375,54.484375 L91.484375,54.484375 L91.484375,41.203125 L78.203125,41.203125 L78.203125,47.84375 L71.5625,47.84375 L71.5625,54.484375 L64.921875,54.484375 L64.921875,47.84375 L58.28125,47.84375 L58.28125,21.28125 L64.921875,21.28125 L64.921875,14.640625 L71.5625,14.640625 L71.5625,21.28125 L84.84375,21.28125 L84.84375,14.640625 L78.203125,14.640625 L78.203125,8 L58.28125,8 L58.28125,14.640625 L51.640625,14.640625 L51.640625,21.28125 L45,21.28125 L45,47.84375 L51.640625,47.84375 L51.640625,54.484375 L58.28125,54.484375 L58.28125,61.125 L84.84375,61.125 Z M128.921875,61.125 L128.921875,54.484375 L135.5625,54.484375 L135.5625,47.84375 L142.203125,47.84375 L142.203125,34.5625 L148.84375,34.5625 L148.84375,8 L135.5625,8 L135.5625,34.5625 L128.921875,34.5625 L128.921875,47.84375 L122.28125,47.84375 L122.28125,27.921875 L115.640625,27.921875 L115.640625,8 L102.359375,8 L102.359375,21.28125 L109,21.28125 L109,41.203125 L115.640625,41.203125 L115.640625,54.484375 L122.28125,54.484375 L122.28125,61.125 L128.921875,61.125 Z M230.125,61.125 L230.125,54.484375 L236.765625,54.484375 L236.765625,34.5625 L210.203125,34.5625 L210.203125,41.203125 L223.484375,41.203125 L223.484375,47.84375 L216.84375,47.84375 L216.84375,54.484375 L210.203125,54.484375 L210.203125,47.84375 L203.5625,47.84375 L203.5625,21.28125 L210.203125,21.28125 L210.203125,14.640625 L216.84375,14.640625 L216.84375,21.28125 L230.125,21.28125 L230.125,14.640625 L223.484375,14.640625 L223.484375,8 L203.5625,8 L203.5625,14.640625 L196.921875,14.640625 L196.921875,21.28125 L190.28125,21.28125 L190.28125,47.84375 L196.921875,47.84375 L196.921875,54.484375 L203.5625,54.484375 L203.5625,61.125 L230.125,61.125 Z M280.84375,61.125 L280.84375,54.484375 L287.484375,54.484375 L287.484375,47.84375 L274.203125,47.84375 L274.203125,54.484375 L260.921875,54.484375 L260.921875,41.203125 L287.484375,41.203125 L287.484375,27.921875 L280.84375,27.921875 L280.84375,21.28125 L254.28125,21.28125 L254.28125,27.921875 L247.640625,27.921875 L247.640625,54.484375 L254.28125,54.484375 L254.28125,61.125 L280.84375,61.125 Z M274.203125,34.5625 L260.921875,34.5625 L260.921875,27.921875 L274.203125,27.921875 L274.203125,34.5625 Z M318.125,61.125 L318.125,34.5625 L324.765625,34.5625 L324.765625,54.484375 L331.40625,54.484375 L331.40625,61.125 L344.6875,61.125 L344.6875,54.484375 L338.046875,54.484375 L338.046875,27.921875 L331.40625,27.921875 L331.40625,21.28125 L318.125,21.28125 L318.125,27.921875 L311.484375,27.921875 L311.484375,21.28125 L298.203125,21.28125 L298.203125,27.921875 L304.84375,27.921875 L304.84375,61.125 L318.125,61.125 Z M375.484375,14.640625 L375.484375,8 L362.203125,8 L362.203125,14.640625 L375.484375,14.640625 Z M375.484375,61.125 L375.484375,54.484375 L368.84375,54.484375 L368.84375,21.28125 L355.5625,21.28125 L355.5625,54.484375 L362.203125,54.484375 L362.203125,61.125 L375.484375,61.125 Z M419.328125,61.125 L419.328125,54.484375 L425.96875,54.484375 L425.96875,47.84375 L412.6875,47.84375 L412.6875,54.484375 L399.40625,54.484375 L399.40625,41.203125 L425.96875,41.203125 L425.96875,27.921875 L419.328125,27.921875 L419.328125,21.28125 L392.765625,21.28125 L392.765625,27.921875 L386.125,27.921875 L386.125,54.484375 L392.765625,54.484375 L392.765625,61.125 L419.328125,61.125 Z M412.6875,34.5625 L399.40625,34.5625 L399.40625,27.921875 L412.6875,27.921875 L412.6875,34.5625 Z" id="CVGenie" fill="#000000" fill-rule="nonzero"></path>
    </g>
</svg>